<svg xmlns="http://www.w3.org/2000/svg" width="800" height="800"><path d="M0 0 C74.91 0 149.82 0 227 0 C227 49.5 227 99 227 150 C260 150 293 150 327 150 C327 199.5 327 249 327 300 C369.24 300 411.48 300 455 300 C453.80524223 302.98689442 452.63406743 305.87189343 451.2734375 308.76953125 C450.9640625 309.43017578 450.6546875 310.09082031 450.3359375 310.77148438 C450.01882813 311.44501953 449.70171875 312.11855469 449.375 312.8125 C448.88773438 313.85180664 448.88773438 313.85180664 448.390625 314.91210938 C447.59500115 316.60866023 446.79767301 318.30441165 446 320 C445.34 320 444.68 320 444 320 C443.87625 320.7425 443.7525 321.485 443.625 322.25 C443.04513299 324.80141485 442.26291261 326.7267573 441 329 C440.34 329 439.68 329 439 329 C438.67 330.65 438.34 332.3 438 334 C437.34 334 436.68 334 436 334 C435.9071875 334.71929688 435.814375 335.43859375 435.71875 336.1796875 C434.88043828 339.46914979 433.52342712 341.41327595 431.5 344.125 C429.48694928 346.83931838 428.07268224 348.78195329 427 352 C426.34 352 425.68 352 425 352 C424.71125 352.7425 424.4225 353.485 424.125 354.25 C423.17697356 356.56739797 422.15154089 358.77917115 421 361 C420.34 361 419.68 361 419 361 C418.7525 361.515625 418.505 362.03125 418.25 362.5625 C416.60418384 365.77184151 414.8023904 368.87585664 413 372 C412.34 372 411.68 372 411 372 C410.67 373.32 410.34 374.64 410 376 C409.34 376 408.68 376 408 376 C407.7525 376.53625 407.505 377.0725 407.25 377.625 C404.49852951 382.85279394 401.21666746 386.89145222 397 391 C396.443125 391.763125 395.88625 392.52625 395.3125 393.3125 C394.6628125 394.1478125 394.6628125 394.1478125 394 395 C393.34 395 392.68 395 392 395 C391.74992188 395.5671875 391.49984375 396.134375 391.2421875 396.71875 C386.19197075 405.9933619 376.497284 413.60036514 369 421 C367.91525391 422.09441406 367.91525391 422.09441406 366.80859375 423.2109375 C360.95633188 429 360.95633188 429 358 429 C358 429.66 358 430.32 358 431 C357.34 431 356.68 431 356 431 C356 431.66 356 432.32 356 433 C354.00715862 434.3440093 352.00580329 435.67541292 350 437 C349.0925 437.9075 348.185 438.815 347.25 439.75 C346.5075 440.4925 345.765 441.235 345 442 C344.34 442 343.68 442 343 442 C343 442.66 343 443.32 343 444 C341.68 444.33 340.36 444.66 339 445 C339 445.66 339 446.32 339 447 C337.68 447.33 336.36 447.66 335 448 C335 448.66 335 449.32 335 450 C333.1015625 451.5078125 333.1015625 451.5078125 330.625 453.125 C329.81289063 453.66382813 329.00078125 454.20265625 328.1640625 454.7578125 C326 456 326 456 324 456 C324 456.66 324 457.32 324 458 C322.68 458.33 321.36 458.66 320 459 C320 459.66 320 460.32 320 461 C319.41992188 461.31453125 318.83984375 461.6290625 318.2421875 461.953125 C314.59002839 463.95397785 310.98877999 465.94046001 307.5625 468.3125 C305 470 305 470 303 470 C303 470.66 303 471.32 303 472 C302.03900391 472.47179687 302.03900391 472.47179687 301.05859375 472.953125 C296.9881125 474.96713361 292.96043263 476.97875922 289.0625 479.3125 C286 481 286 481 283 481 C283 481.66 283 482.32 283 483 C282.21520264 483.36967896 282.21520264 483.36967896 281.41455078 483.74682617 C278.98413273 484.89251829 276.55444324 486.03974221 274.125 487.1875 C273.25254639 487.5995166 272.38009277 488.0115332 271.48120117 488.43603516 C267.06242809 490.52859598 262.66520081 492.64723974 258.3125 494.875 C254.3015844 496.90478744 250.23447586 498.50497077 246 500 C244.74938376 500.47755599 243.49939757 500.95676472 242.25 501.4375 C236.88798372 503.45090532 231.43919392 505.20869214 226 507 C224.99324219 507.33644531 223.98648437 507.67289063 222.94921875 508.01953125 C220.28354969 508.90573381 217.61775415 509.78396938 214.9375 510.625 C214.12152344 510.88539063 213.30554688 511.14578125 212.46484375 511.4140625 C209.89071753 512.0259784 207.63585002 512.10336667 205 512 C205 512.66 205 513.32 205 514 C199.43553031 515.25649316 193.87601025 516.42493857 188.26171875 517.4375 C185.98213248 517.91471404 185.98213248 517.91471404 183.9921875 519.01953125 C181.7456652 520.12517262 179.92079067 520.43118743 177.4375 520.6875 C176.67308594 520.77386719 175.90867187 520.86023438 175.12109375 520.94921875 C173 521 173 521 170 520 C170 520.66 170 521.32 170 522 C169.09906616 522.08302368 169.09906616 522.08302368 168.17993164 522.16772461 C165.47366869 522.41970782 162.76810116 522.6785117 160.0625 522.9375 C158.64420898 523.06801758 158.64420898 523.06801758 157.19726562 523.20117188 C155.84858398 523.33168945 155.84858398 523.33168945 154.47265625 523.46484375 C153.22367554 523.58267212 153.22367554 523.58267212 151.94946289 523.70288086 C149.999388 523.80311398 149.999388 523.80311398 149 525 C144.02285431 525.55992889 139.00105355 525.74019228 134 526 C133.13810059 526.04656738 132.27620117 526.09313477 131.38818359 526.14111328 C118.03051758 526.84040547 104.68597327 527.10281995 91.3125 527.125 C90.60201508 527.1275882 89.89153015 527.13017639 89.15951538 527.13284302 C77.08205503 527.16763729 64.95275454 526.87494189 53 525 C52.67 524.67 52.34 524.34 52 524 C50.51562191 523.77376479 49.02222575 523.60587035 47.52734375 523.46484375 C46.62822266 523.37783203 45.72910156 523.29082031 44.80273438 523.20117188 C43.38444336 523.0706543 43.38444336 523.0706543 41.9375 522.9375 C40.98810547 522.84662109 40.03871094 522.75574219 39.06054688 522.66210938 C36.70737865 522.43743502 34.35389381 522.21691818 32 522 C32 521.34 32 520.68 32 520 C31.278125 520.18304687 30.55625 520.36609375 29.8125 520.5546875 C26.846043 521.02437653 24.90900564 520.78861691 22 520.125 C21.175 519.94195313 20.35 519.75890625 19.5 519.5703125 C18.675 519.38210938 17.85 519.19390625 17 519 C16.15179688 518.84273437 15.30359375 518.68546875 14.4296875 518.5234375 C12.17953467 518.03867789 10.24506099 517.37969336 8.125 516.5 C4.39722885 515.04716143 0.97244853 514.41379672 -3 514 C-3 513.34 -3 512.68 -3 512 C-6.3 511.67 -9.6 511.34 -13 511 C-13 510.34 -13 509.68 -13 509 C-16.3 508.67 -19.6 508.34 -23 508 C-23 507.34 -23 506.68 -23 506 C-24.11375 505.9175 -25.2275 505.835 -26.375 505.75 C-31.64601249 505.0841879 -36.1568573 503.10147858 -41 501 C-43.08205468 500.12196179 -45.16541612 499.24701652 -47.25 498.375 C-48.20390625 497.97023438 -49.1578125 497.56546875 -50.140625 497.1484375 C-53.06083278 495.97556716 -56.0055659 494.9656607 -59 494 C-59 493.34 -59 492.68 -59 492 C-59.66 491.9175 -60.32 491.835 -61 491.75 C-64.30927665 490.92268084 -66.95196352 489.60726063 -69.9609375 488.03515625 C-71.76388187 487.1198684 -73.62963823 486.3306843 -75.5 485.5625 C-78.89451576 484.04709118 -81.82268758 482.28243757 -84.93359375 480.2734375 C-88.17729112 478.274486 -91.56947451 476.65400336 -95 475 C-95 474.34 -95 473.68 -95 473 C-96.98 472.67 -98.96 472.34 -101 472 C-101 471.34 -101 470.68 -101 470 C-101.78375 469.814375 -102.5675 469.62875 -103.375 469.4375 C-107.69227355 467.72547773 -111.01084215 465.30688929 -114.73046875 462.55859375 C-116.99914531 460.84674048 -116.99914531 460.84674048 -120 460 C-120 459.34 -120 458.68 -120 458 C-120.66 458 -121.32 458 -122 458 C-122 457.34 -122 456.68 -122 456 C-122.7734375 455.62875 -122.7734375 455.62875 -123.5625 455.25 C-126.77184151 453.60418384 -129.87585664 451.8023904 -133 450 C-133 449.34 -133 448.68 -133 448 C-134.98 447.34 -136.96 446.68 -139 446 C-139 445.34 -139 444.68 -139 444 C-139.66 444 -140.32 444 -141 444 C-141 443.34 -141 442.68 -141 442 C-141.99 442 -142.98 442 -144 442 C-146.1875 440.125 -146.1875 440.125 -148 438 C-148 437.34 -148 436.68 -148 436 C-148.763125 435.731875 -149.52625 435.46375 -150.3125 435.1875 C-152.88988618 434.04865495 -154.26954864 433.18583329 -156 431 C-156 430.34 -156 429.68 -156 429 C-156.8971875 428.566875 -156.8971875 428.566875 -157.8125 428.125 C-160 427 -160 427 -163 425 C-163 424.34 -163 423.68 -163 423 C-164.32 422.67 -165.64 422.34 -167 422 C-167 421.34 -167 420.68 -167 420 C-167.66 420 -168.32 420 -169 420 C-170.55078125 418.390625 -170.55078125 418.390625 -172.3125 416.25 C-174.38628535 413.79681109 -176.22327361 411.82239599 -178.75 409.8125 C-181.28047651 407.77406059 -182.36820555 405.78764886 -184 403 C-186.55712788 400.25108753 -188.8733014 398.08446574 -192 396 C-192.4125 395.29875 -192.825 394.5975 -193.25 393.875 C-196.17099697 389.07621926 -200.03454788 384.96545212 -204 381 C-204.70710678 379.35008418 -205.37943989 377.68437744 -206 376 C-206.66 376 -207.32 376 -208 376 C-208 375.34 -208 374.68 -208 374 C-208.66 373.67 -209.32 373.34 -210 373 C-217 364.87096774 -217 364.87096774 -217 361 C-217.99 360.67 -218.98 360.34 -220 360 C-220.495 358.515 -220.495 358.515 -221 357 C-221.66 356.34 -222.32 355.68 -223 355 C-223.474375 354.030625 -223.94875 353.06125 -224.4375 352.0625 C-225.76888928 349.06400401 -225.76888928 349.06400401 -227.625 347.375 C-229.32150114 345.67849886 -229.46460386 344.29455489 -230 342 C-230.66 341.67 -231.32 341.34 -232 341 C-233.57548683 338.37418862 -234 337.12900213 -234 334 C-234.66 334 -235.32 334 -236 334 C-236.33 332.35 -236.66 330.7 -237 329 C-237.66 329 -238.32 329 -239 329 C-242 323.375 -242 323.375 -242 320 C-242.66 320 -243.32 320 -244 320 C-244.33 318.02 -244.66 316.04 -245 314 C-245.66 314 -246.32 314 -247 314 C-248.00484204 312.04414675 -249.00373805 310.08523763 -250 308.125 C-250.556875 307.03445313 -251.11375 305.94390625 -251.6875 304.8203125 C-253 302 -253 302 -253 300 C-202.51 300 -152.02 300 -100 300 C-100 234 -100 168 -100 100 C-67 100 -34 100 0 100 C0 67 0 34 0 0 Z M27 26 C27 50.42 27 74.84 27 100 C43.5 100 60 100 77 100 C77 166 77 232 77 300 C101.09 300 125.18 300 150 300 C150 250.5 150 201 150 150 C166.5 150 183 150 200 150 C200 109.08 200 68.16 200 26 C142.91 26 85.82 26 27 26 Z M-73 126 C-73 183.42 -73 240.84 -73 300 C-32.41 300 8.18 300 50 300 C50 242.58 50 185.16 50 126 C9.41 126 -31.18 126 -73 126 Z M177 176 C177 216.92 177 257.84 177 300 C217.59 300 258.18 300 300 300 C300 259.08 300 218.16 300 176 C259.41 176 218.82 176 177 176 Z M-207 326 C-206.67 326.99 -206.34 327.98 -206 329 C-205.34 329 -204.68 329 -204 329 C-203.67 330.65 -203.34 332.3 -203 334 C-202.34 334 -201.68 334 -201 334 C-200.61328125 335.05767578 -200.61328125 335.05767578 -200.21875 336.13671875 C-198.89669814 339.24269315 -197.30252146 341.95978065 -195.5 344.8125 C-194.58734375 346.27623047 -194.58734375 346.27623047 -193.65625 347.76953125 C-193.1096875 348.50558594 -192.563125 349.24164062 -192 350 C-191.34 350 -190.68 350 -190 350 C-189.67 351.32 -189.34 352.64 -189 354 C-188.34 354 -187.68 354 -187 354 C-185.66666667 356.66666667 -184.33333333 359.33333333 -183 362 C-182.34 362 -181.68 362 -181 362 C-180 364 -179 366 -178 368 C-177.34 368 -176.68 368 -176 368 C-175.71125 368.598125 -175.4225 369.19625 -175.125 369.8125 C-173.95257974 372.19327792 -173.95257974 372.19327792 -172 375 C-171.34 375 -170.68 375 -170 375 C-169 377 -168 379 -167 381 C-166.34 381 -165.68 381 -165 381 C-164.67 381.99 -164.34 382.98 -164 384 C-163.34 384 -162.68 384 -162 384 C-161.67 384.99 -161.34 385.98 -161 387 C-160.34 387 -159.68 387 -159 387 C-158.74691543 387.56334832 -158.49383085 388.12669664 -158.23307705 388.70711613 C-155.70154728 393.41444872 -152.40384248 396.97695121 -148 400 C-143.22758417 401.23845599 -138.56119244 401.1443554 -133.66772461 401.02172852 C-132.23784548 401.01918561 -130.80795462 401.02062315 -129.37808228 401.02571106 C-125.5202539 401.02827984 -121.66497497 400.97559993 -117.80773616 400.91254544 C-113.76799967 400.8560501 -109.72819619 400.85097876 -105.68812561 400.84031677 C-98.04864109 400.81241108 -90.41032413 400.73865043 -82.77135235 400.64817137 C-74.07014461 400.54736144 -65.36887931 400.49803753 -56.66723239 400.45291245 C-38.77749448 400.35899264 -20.88884131 400.20082445 -3 400 C-3 399.34 -3 398.68 -3 398 C-3.66 398 -4.32 398 -5 398 C-5.33 394.37 -5.66 390.74 -6 387 C-6.66 387 -7.32 387 -8 387 C-8.33 383.37 -8.66 379.74 -9 376 C-9.66 376 -10.32 376 -11 376 C-10.95875 375.13375 -10.9175 374.2675 -10.875 373.375 C-11.00619495 369.83273633 -11.84414351 367.33158636 -13 364 C-13.165 362.80375 -13.33 361.6075 -13.5 360.375 C-13.78637122 357.15003962 -13.78637122 357.15003962 -15 355.109375 C-16.51672041 351.91004288 -16.44887893 348.73638995 -16.65625 345.2421875 C-16.80410474 342.80137133 -16.80410474 342.80137133 -19 341 C-19.38722721 337.65576501 -19.50745916 334.33142298 -19.65625 330.96875 C-19.70201329 327.88393229 -19.70201329 327.88393229 -22 326 C-24.45874228 325.80700921 -26.80433506 325.73942345 -29.26382446 325.75949097 C-30.39957352 325.75692769 -30.39957352 325.75692769 -31.558267 325.75431263 C-34.10876357 325.75100457 -36.65900011 325.76204292 -39.20947266 325.77294922 C-41.03240452 325.77351305 -42.85533684 325.77319733 -44.67826843 325.77206421 C-49.63877508 325.77148859 -54.59918571 325.78327659 -59.55966997 325.79721212 C-64.73934986 325.80968479 -69.91903177 325.81088724 -75.09872437 325.81326294 C-84.91244361 325.81948792 -94.72611849 325.83591247 -104.53981817 325.85596192 C-115.71014158 325.8782893 -126.88046708 325.88930638 -138.05080724 325.89935279 C-161.03389613 325.92027784 -184.01694558 325.95547354 -207 326 Z M7 326 C7.33 328.64 7.66 331.28 8 334 C8.66 334 9.32 334 10 334 C10.33 338.62 10.66 343.24 11 348 C11.66 348 12.32 348 13 348 C12.938125 348.9075 12.87625 349.815 12.8125 350.75 C12.79704056 358.34058301 15.57259874 365.89118201 18 373 C18.36106097 374.66088045 18.70462173 376.32618981 19 378 C19.66 378 20.32 378 21 378 C21.04898437 378.65226562 21.09796875 379.30453125 21.1484375 379.9765625 C21.57297448 384.93925343 22.15413702 389.33105246 24 394 C24.350625 394.928125 24.70125 395.85625 25.0625 396.8125 C25.81237034 398.93616723 25.81237034 398.93616723 27 400 C28.90633158 400.10096207 30.81644762 400.13077202 32.72544861 400.13371277 C33.96922775 400.13797775 35.2130069 400.14224274 36.49447632 400.14663696 C37.88555911 400.1462874 39.27664188 400.14582584 40.66772461 400.14526367 C42.1227375 400.14825356 43.57774959 400.15165569 45.03276062 400.15544128 C48.99552345 400.16430282 52.95826471 400.1666203 56.92103648 400.16725707 C60.22390173 400.16820439 63.52676189 400.17188063 66.82962519 400.17542917 C74.61908541 400.18358191 82.40853406 400.18601265 90.19799805 400.18530273 C98.24539056 400.18470172 106.29271609 400.19525645 114.34009165 400.2110464 C121.23860298 400.22410205 128.13709238 400.22948747 135.03561598 400.22884732 C139.16047076 400.22859175 143.28526604 400.23147527 147.41010857 400.24202538 C151.28833142 400.25167325 155.16643752 400.25180847 159.04466438 400.24450874 C160.47094009 400.24345876 161.89722294 400.24585015 163.32348633 400.2518692 C165.26483229 400.25953355 167.20621765 400.25377031 169.14756775 400.24723816 C170.23582824 400.24778293 171.32408873 400.24832769 172.44532681 400.24888897 C175.16668655 400.25678642 175.16668655 400.25678642 177 398 C177.60609623 395.97087478 177.60609623 395.97087478 178 393.6875 C178.53422252 391.03334685 179.07487386 388.82113466 180.125 386.3125 C181.20834223 383.44938126 181.14114994 381.03472369 181 378 C181.66 378 182.32 378 183 378 C183.10957031 377.3709375 183.21914063 376.741875 183.33203125 376.09375 C184.11204334 371.882953 184.92720517 367.9054948 186.5625 363.9375 C188.63489472 358.78791313 189 353.51028939 189 348 C189.66 348 190.32 348 191 348 C191.33 343.38 191.66 338.76 192 334 C192.66 334 193.32 334 194 334 C194.33 331.36 194.66 328.72 195 326 C132.96 326 70.92 326 7 326 Z M222 328 C220.99074991 333.04625044 220.91021556 337.88228715 221 343 C220.34 343 219.68 343 219 343 C218.86722656 343.92683594 218.73445313 344.85367187 218.59765625 345.80859375 C218.42105469 347.00613281 218.24445313 348.20367188 218.0625 349.4375 C217.88847656 350.63246094 217.71445312 351.82742188 217.53515625 353.05859375 C217 356 217 356 216 357 C215.855625 358.051875 215.71125 359.10375 215.5625 360.1875 C215 364 215 364 213.9375 367.0625 C212.935815 370.201113 212.84414325 372.72700832 213 376 C212.34 376 211.68 376 211 376 C210.87882812 376.72445312 210.75765625 377.44890625 210.6328125 378.1953125 C209.74826415 383.29847606 208.77449858 388.12012891 207 393 C206.32547641 395.33107418 205.65797185 397.66419994 205 400 C223.81922751 400.11678906 242.63838151 400.20496642 261.45789623 400.25906086 C270.19609375 400.28484522 278.93406613 400.32000001 287.67211914 400.37719727 C295.28800729 400.42702534 302.9037324 400.45928933 310.51977903 400.47044247 C314.55270495 400.47696233 318.58516444 400.49229 322.6179409 400.52865028 C326.41421834 400.56260078 330.20983745 400.57305517 334.00625229 400.56553841 C335.39905056 400.56691341 336.79187094 400.57685246 338.18453789 400.59602737 C346.38253042 401.08365226 346.38253042 401.08365226 353.36738586 397.58952332 C355.17777388 395.22823227 355.17777388 395.22823227 355 393 C355.61875 392.7525 356.2375 392.505 356.875 392.25 C359.38710296 390.77229238 359.76107344 389.56044823 361 387 C361.99 386.67 362.98 386.34 364 386 C365.7087646 384.62485459 365.7087646 384.62485459 367 383 C367 382.34 367 381.68 367 381 C367.66 381 368.32 381 369 381 C371.39820305 378.36315253 371.39820305 378.36315253 372 375 C372.66 375 373.32 375 374 375 C377.02517909 371.94441577 377.02517909 371.94441577 378 368 C378.66 368 379.32 368 380 368 C382.39820305 365.36315253 382.39820305 365.36315253 383 362 C383.66 362 384.32 362 385 362 C387.96235695 358.36676311 387.96235695 358.36676311 389 354 C389.66 354 390.32 354 391 354 C392.19542478 352.31874988 393.30712843 350.57751917 394.375 348.8125 C396.1882047 345.82909931 397.96694164 343.0408754 400.1640625 340.32421875 C402.17058976 338.05473182 402.17058976 338.05473182 403 335 C403.66 334.67 404.32 334.34 405 334 C405.65555119 331.47266765 405.65555119 331.47266765 406 329 C406.66 329 407.32 329 408 329 C408.33 328.01 408.66 327.02 409 326 C384.91354648 325.95333586 360.8270997 325.91803862 336.74061012 325.89637566 C325.55752682 325.88605105 314.37447156 325.87196816 303.19140625 325.84912109 C293.44736188 325.8292234 283.70333781 325.81629219 273.9592737 325.81182301 C268.79705886 325.80920948 263.63490211 325.80304209 258.47270584 325.78853989 C253.61860962 325.7750131 248.76459569 325.77076737 243.91048241 325.77378464 C242.12460445 325.77323227 240.33872388 325.76922573 238.55286217 325.76158905 C236.12308024 325.75170439 233.69361299 325.75400717 231.26382446 325.75949097 C230.54982471 325.75366528 229.83582496 325.7478396 229.10018885 325.74183738 C225.10441723 325.65838113 225.10441723 325.65838113 222 328 Z M-115 426 C-115 426.66 -115 427.32 -115 428 C-113.68 428.33 -112.36 428.66 -111 429 C-111 429.66 -111 430.32 -111 431 C-108.69614555 432.75751597 -108.69614555 432.75751597 -105.8125 434.5 C-104.84957031 435.1084375 -103.88664063 435.716875 -102.89453125 436.34375 C-100.30373304 437.82620404 -97.79817831 438.97690007 -95 440 C-95 440.66 -95 441.32 -95 442 C-93.35 442.33 -91.7 442.66 -90 443 C-90 443.66 -90 444.32 -90 445 C-89.43152344 445.31453125 -88.86304688 445.6290625 -88.27734375 445.953125 C-87.50519531 446.38109375 -86.73304688 446.8090625 -85.9375 447.25 C-85.11894531 447.70246094 -84.30039063 448.15492188 -83.45703125 448.62109375 C-81.32386903 449.81824202 -79.22463501 451.0581142 -77.125 452.3125 C-74.15196699 454.23757446 -74.15196699 454.23757446 -71 454 C-71 454.66 -71 455.32 -71 456 C-69.06629769 457.00732399 -67.12789694 458.00563288 -65.1875 459 C-64.10855469 459.556875 -63.02960938 460.11375 -61.91796875 460.6875 C-59.07726534 462.20510619 -59.07726534 462.20510619 -56 462 C-56 462.66 -56 463.32 -56 464 C-53.69 464.33 -51.38 464.66 -49 465 C-49 465.66 -49 466.32 -49 467 C-46.69 467.33 -44.38 467.66 -42 468 C-42 468.66 -42 469.32 -42 470 C-39.69 470.33 -37.38 470.66 -35 471 C-35 471.66 -35 472.32 -35 473 C-34.18015625 473.26554687 -33.3603125 473.53109375 -32.515625 473.8046875 C-31.43796875 474.15789062 -30.3603125 474.51109375 -29.25 474.875 C-28.18265625 475.22304688 -27.1153125 475.57109375 -26.015625 475.9296875 C-23 477 -23 477 -20.78125 478.125 C-18.45278502 479.26880736 -16.55738556 479.14207698 -14 479 C-14 479.66 -14 480.32 -14 481 C-10.7 481.33 -7.4 481.66 -4 482 C-4 482.66 -4 483.32 -4 484 C-2.84242188 484.26554687 -1.68484375 484.53109375 -0.4921875 484.8046875 C1.04690993 485.16130764 2.58597048 485.51808691 4.125 485.875 C4.88554687 486.04902344 5.64609375 486.22304688 6.4296875 486.40234375 C10.71209624 487.3991113 14.8291172 488.59756342 19 490 C21.33177975 490.34403308 23.66487041 490.67949202 26 491 C26.33 491.33 26.66 491.66 27 492 C32.0698552 492.93119789 36.87118304 493.08997924 42 493 C41.2236068 489.9254644 41.2236068 489.9254644 39 488 C38.67 487.34 38.34 486.68 38 486 C37.34 486 36.68 486 36 486 C36 485.34 36 484.68 36 484 C35.34 484 34.68 484 34 484 C33.67 482.35 33.34 480.7 33 479 C32.34 479 31.68 479 31 479 C30.74089844 478.319375 30.48179687 477.63875 30.21484375 476.9375 C28.81243335 473.54646262 27.21087658 470.27575474 25.5625 467 C25.26279297 466.39671875 24.96308594 465.7934375 24.65429688 465.171875 C21.87477992 458.64033035 21.87477992 458.64033035 17 454 C16.375 450.9375 16.375 450.9375 16 448 C15.34 448 14.68 448 14 448 C13.938125 447.236875 13.87625 446.47375 13.8125 445.6875 C12.8550242 441.34203293 11.15733483 437.68931659 9.25390625 433.68359375 C8.07648925 431.1637013 7.03298488 428.5824622 6 426 C-33.93 426 -73.86 426 -115 426 Z M36 426 C39.92536709 435.52438874 39.92536709 435.52438874 44.3125 444.75 C44.82425781 445.75546875 45.33601563 446.7609375 45.86328125 447.796875 C46.23839844 448.52390625 46.61351562 449.2509375 47 450 C47.66 450 48.32 450 49 450 C49.33 451.98 49.66 453.96 50 456 C50.66 456 51.32 456 52 456 C52.12568359 456.78117187 52.12568359 456.78117187 52.25390625 457.578125 C53.29173323 460.94698743 55.09145714 463.77672743 56.9375 466.75 C57.29779297 467.35199219 57.65808594 467.95398438 58.02929688 468.57421875 C58.96079133 470.08725394 59.97461836 471.54894869 61 473 C61.66 473 62.32 473 63 473 C63.2475 473.556875 63.495 474.11375 63.75 474.6875 C65.22924818 477.42410913 66.93467439 479.67650869 69 482 C69.66 482 70.32 482 71 482 C71.3403125 482.86625 71.3403125 482.86625 71.6875 483.75 C73.34848222 486.59739809 75.31524561 488.12067193 78 490 C78.66 490 79.32 490 80 490 C80 490.66 80 491.32 80 492 C81.051875 492.61875 82.10375 493.2375 83.1875 493.875 C83.77917969 494.22304688 84.37085938 494.57109375 84.98046875 494.9296875 C92.5699171 498.95194833 101.64686402 500.19819368 110 498 C114.08047245 496.1452398 118.05164214 494.12005422 122 492 C122 491.34 122 490.68 122 490 C124 489 126 488 128 487 C128 486.34 128 485.68 128 485 C128.99 484.67 129.98 484.34 131 484 C131 483.34 131 482.68 131 482 C131.5775 481.773125 132.155 481.54625 132.75 481.3125 C135.59739809 479.65151778 137.12067193 477.68475439 139 475 C139 474.34 139 473.68 139 473 C139.66 473 140.32 473 141 473 C142.56280869 471.15900877 142.56280869 471.15900877 144.0625 468.8125 C144.58972656 468.03519531 145.11695313 467.25789063 145.66015625 466.45703125 C147.03809267 463.93014494 147.59232823 461.83357045 148 459 C148.66 459 149.32 459 150 459 C150 458.01 150 457.02 150 456 C150.66 456 151.32 456 152 456 C152.33 454.02 152.66 452.04 153 450 C153.66 450 154.32 450 155 450 C156.29673602 447.46080994 157.58747837 444.91885762 158.875 442.375 C159.42220703 441.30572266 159.42220703 441.30572266 159.98046875 440.21484375 C162.0023943 436.20775493 163.66957023 432.30129237 165 428 C165.33 427.34 165.66 426.68 166 426 C123.1 426 80.2 426 36 426 Z M196 426 C196 426.99 196 427.98 196 429 C195.34 429 194.68 429 194 429 C193.73445313 429.74765625 193.46890625 430.4953125 193.1953125 431.265625 C192.66550781 432.74289062 192.66550781 432.74289062 192.125 434.25 C191.77695312 435.22453125 191.42890625 436.1990625 191.0703125 437.203125 C190 440 190 440 188.8671875 442.109375 C187.72205776 444.2592944 187.72205776 444.2592944 188 448 C187.34 448 186.68 448 186 448 C185.67 449.98 185.34 451.96 185 454 C184.34 454 183.68 454 183 454 C182.67 455.98 182.34 457.96 182 460 C181.34 460 180.68 460 180 460 C177.64089647 464.2637281 177.64089647 464.2637281 177 469 C176.34 469 175.68 469 175 469 C173.27735506 472.29549466 171.70554068 475.33118845 171 479 C170.34 479 169.68 479 169 479 C166.68407978 482.22114157 166.68407978 482.22114157 166 486 C165.34 486 164.68 486 164 486 C162.68 488.31 161.36 490.62 160 493 C165.12881696 493.08997924 169.9301448 492.93119789 175 492 C175.495 491.505 175.495 491.505 176 491 C177.82748064 490.67366417 179.66254797 490.38948173 181.5 490.125 C186.15980771 489.38604824 190.39269473 488.32797919 194.8203125 486.73046875 C198.47257998 485.50650097 202.22783846 484.75799936 206 484 C206 483.34 206 482.68 206 482 C210.95 481.505 210.95 481.505 216 481 C216 480.34 216 479.68 216 479 C217.134375 478.9175 218.26875 478.835 219.4375 478.75 C223.57370225 478.23478884 226.83393628 476.89230758 230.57421875 475.109375 C233.21649773 473.90098976 235.88787108 472.91103423 238.625 471.9375 C242.83042588 470.4410545 246.9216429 468.81260315 251 467 C251 466.34 251 465.68 251 465 C254.465 464.505 254.465 464.505 258 464 C258 463.34 258 462.68 258 462 C258.86625 461.9175 259.7325 461.835 260.625 461.75 C264.49463402 460.89008133 266.79318338 459.28040293 270 457 C270.99 456.67 271.98 456.34 273 456 C273 455.34 273 454.68 273 454 C273.556875 453.84144531 274.11375 453.68289063 274.6875 453.51953125 C279.75370907 451.97057206 283.96257594 450.02494938 288.37109375 447.0859375 C290 446 290 446 292 445 C292 444.34 292 443.68 292 443 C293.65 442.67 295.3 442.34 297 442 C297 441.34 297 440.68 297 440 C297.72832031 439.73316406 298.45664062 439.46632813 299.20703125 439.19140625 C301.97027979 438.01267785 304.22086918 436.64194609 306.6875 434.9375 C310.85650224 432.07174888 310.85650224 432.07174888 313 431 C313 430.34 313 429.68 313 429 C314.32 428.67 315.64 428.34 317 428 C317 427.34 317 426.68 317 426 C277.07 426 237.14 426 196 426 Z " fill="#000000" transform="translate(299,262)"></path><path d="M0 0 C1.28064331 -0.00143509 1.28064331 -0.00143509 2.5871582 -0.00289917 C4.37874425 -0.00357476 6.17033283 -0.00176418 7.96191406 0.00244141 C10.68039528 0.0077985 13.39871132 0.00247515 16.1171875 -0.00390625 C17.86979203 -0.00324536 19.62239645 -0.00196397 21.375 0 C22.17526611 -0.00202423 22.97553223 -0.00404846 23.80004883 -0.00613403 C29.16442596 0.01579484 34.36397748 0.46471839 39.6875 1.1328125 C39.6875 1.7928125 39.6875 2.4528125 39.6875 3.1328125 C45.6275 3.6278125 45.6275 3.6278125 51.6875 4.1328125 C51.6875 4.7928125 51.6875 5.4528125 51.6875 6.1328125 C53.42 6.2565625 53.42 6.2565625 55.1875 6.3828125 C59.14925818 6.87629466 62.04248015 8.11868816 65.5234375 10.01171875 C69.43788155 12.03959861 73.57762409 13.54949965 77.6875 15.1328125 C77.6875 15.7928125 77.6875 16.4528125 77.6875 17.1328125 C79.3375 17.4628125 80.9875 17.7928125 82.6875 18.1328125 C82.6875 18.7928125 82.6875 19.4528125 82.6875 20.1328125 C83.25984375 20.24753906 83.8321875 20.36226562 84.421875 20.48046875 C86.90221656 21.19463606 88.75118697 22.20589122 90.9375 23.5703125 C91.64390625 24.00214844 92.3503125 24.43398438 93.078125 24.87890625 C93.60921875 25.29269531 94.1403125 25.70648438 94.6875 26.1328125 C94.6875 26.7928125 94.6875 27.4528125 94.6875 28.1328125 C95.244375 28.3803125 95.80125 28.6278125 96.375 28.8828125 C99.11160913 30.36206068 101.36400869 32.06748689 103.6875 34.1328125 C103.6875 34.7928125 103.6875 35.4528125 103.6875 36.1328125 C104.244375 36.3596875 104.80125 36.5865625 105.375 36.8203125 C108.34909588 38.50831286 110.40758865 40.59957767 112.6875 43.1328125 C112.6875 43.7928125 112.6875 44.4528125 112.6875 45.1328125 C113.3475 45.1328125 114.0075 45.1328125 114.6875 45.1328125 C116.1953125 46.59375 116.1953125 46.59375 117.8125 48.5078125 C118.35132813 49.13429687 118.89015625 49.76078125 119.4453125 50.40625 C120.6875 52.1328125 120.6875 52.1328125 120.6875 54.1328125 C121.3475 54.1328125 122.0075 54.1328125 122.6875 54.1328125 C124.1953125 56.25 124.1953125 56.25 125.8125 59.0078125 C126.35132813 59.91273437 126.89015625 60.81765625 127.4453125 61.75 C128.6875 64.1328125 128.6875 64.1328125 128.6875 66.1328125 C129.3475 66.1328125 130.0075 66.1328125 130.6875 66.1328125 C131.0175 67.7828125 131.3475 69.4328125 131.6875 71.1328125 C132.3475 71.1328125 133.0075 71.1328125 133.6875 71.1328125 C136.2033113 76.55624179 138.68391051 81.99568553 141 87.5078125 C141.32613281 88.27867188 141.65226562 89.04953125 141.98828125 89.84375 C142.76266447 92.37888165 142.81324132 94.49690177 142.6875 97.1328125 C143.3475 97.1328125 144.0075 97.1328125 144.6875 97.1328125 C145.0175 101.0928125 145.3475 105.0528125 145.6875 109.1328125 C146.3475 109.1328125 147.0075 109.1328125 147.6875 109.1328125 C148.45862956 115.27734437 148.83596718 121.25633925 148.8203125 127.4453125 C148.82174759 128.72595581 148.82174759 128.72595581 148.82321167 130.0324707 C148.82388726 131.82405675 148.82207668 133.61564533 148.81787109 135.40722656 C148.812514 138.12570778 148.81783735 140.84402382 148.82421875 143.5625 C148.82355786 145.31510453 148.82227647 147.06770895 148.8203125 148.8203125 C148.82233673 149.62057861 148.82436096 150.42084473 148.82644653 151.24536133 C148.80451766 156.60973846 148.35559411 161.80928998 147.6875 167.1328125 C147.0275 167.1328125 146.3675 167.1328125 145.6875 167.1328125 C145.3575 171.0928125 145.0275 175.0528125 144.6875 179.1328125 C144.0275 179.1328125 143.3675 179.1328125 142.6875 179.1328125 C142.605 180.2878125 142.5225 181.4428125 142.4375 182.6328125 C141.94401784 186.59457068 140.70162434 189.48779265 138.80859375 192.96875 C136.78071389 196.88319405 135.27081285 201.02293659 133.6875 205.1328125 C133.0275 205.1328125 132.3675 205.1328125 131.6875 205.1328125 C131.3575 206.7828125 131.0275 208.4328125 130.6875 210.1328125 C130.0275 210.1328125 129.3675 210.1328125 128.6875 210.1328125 C128.44 210.8134375 128.1925 211.4940625 127.9375 212.1953125 C126.44552092 215.70146333 124.61914489 218.84901618 122.6875 222.1328125 C122.0275 222.1328125 121.3675 222.1328125 120.6875 222.1328125 C120.44 222.6896875 120.1925 223.2465625 119.9375 223.8203125 C118.45825182 226.55692163 116.75282561 228.80932119 114.6875 231.1328125 C114.0275 231.1328125 113.3675 231.1328125 112.6875 231.1328125 C112.3471875 231.9371875 112.3471875 231.9371875 112 232.7578125 C109.42056891 237.42535448 106.55780494 240.93331994 101.6875 243.1328125 C101.12417969 243.71289062 100.56085938 244.29296875 99.98046875 244.890625 C97.23471655 247.57556838 94.2190628 249.71972148 91.0625 251.8828125 C90.47726562 252.29402344 89.89203125 252.70523438 89.2890625 253.12890625 C84.93788933 256.1328125 84.93788933 256.1328125 82.6875 256.1328125 C82.3575 257.1228125 82.0275 258.1128125 81.6875 259.1328125 C80.3675 259.1328125 79.0475 259.1328125 77.6875 259.1328125 C77.6875 259.7928125 77.6875 260.4528125 77.6875 261.1328125 C72.26407071 263.6486238 66.82462697 266.12922301 61.3125 268.4453125 C60.54164063 268.77144531 59.77078125 269.09757812 58.9765625 269.43359375 C56.44143085 270.20797697 54.32341073 270.25855382 51.6875 270.1328125 C51.6875 270.7928125 51.6875 271.4528125 51.6875 272.1328125 C47.7275 272.4628125 43.7675 272.7928125 39.6875 273.1328125 C39.6875 273.7928125 39.6875 274.4528125 39.6875 275.1328125 C39.08421875 275.19339844 38.4809375 275.25398438 37.859375 275.31640625 C36.66054688 275.44208984 36.66054688 275.44208984 35.4375 275.5703125 C34.64859375 275.65152344 33.8596875 275.73273438 33.046875 275.81640625 C30.77243481 276.05942932 30.77243481 276.05942932 28.97338867 276.64208984 C23.91904457 277.72713007 18.58457019 277.318696 13.42797852 277.31811523 C11.28836314 277.3202738 9.14928794 277.3383654 7.00976562 277.35742188 C-3.79099319 277.40272484 -14.02939088 276.63579151 -24.3125 273.1328125 C-26.30619031 272.76361059 -28.30529077 272.41955668 -30.3125 272.1328125 C-30.3125 271.4728125 -30.3125 270.8128125 -30.3125 270.1328125 C-31.4675 270.0503125 -32.6225 269.9678125 -33.8125 269.8828125 C-37.78286196 269.38825864 -40.68019624 268.14085656 -44.16796875 266.2421875 C-46.55934757 265.00511722 -48.98809172 264.03786236 -51.5 263.0703125 C-54.98605863 261.70059763 -58.27032397 260.36374159 -61.3125 258.1328125 C-61.3125 257.4728125 -61.3125 256.8128125 -61.3125 256.1328125 C-63.96478812 255.05756056 -66.59618454 254.03825099 -69.3125 253.1328125 C-69.3125 252.4728125 -69.3125 251.8128125 -69.3125 251.1328125 C-70.6325 250.8028125 -71.9525 250.4728125 -73.3125 250.1328125 C-73.3125 249.4728125 -73.3125 248.8128125 -73.3125 248.1328125 C-73.910625 247.8646875 -74.50875 247.5965625 -75.125 247.3203125 C-77.30971913 246.13432211 -78.60720795 244.91224768 -80.3125 243.1328125 C-81.3025 242.4728125 -82.2925 241.8128125 -83.3125 241.1328125 C-85.06913912 239.4951269 -86.79565849 237.82485717 -88.5 236.1328125 C-89.85158203 234.8025 -89.85158203 234.8025 -91.23046875 233.4453125 C-93.3125 231.1328125 -93.3125 231.1328125 -93.3125 229.1328125 C-94.240625 228.7615625 -94.240625 228.7615625 -95.1875 228.3828125 C-97.7197196 226.89327156 -98.11968658 225.75700202 -99.3125 223.1328125 C-99.77140625 222.6790625 -100.2303125 222.2253125 -100.703125 221.7578125 C-102.45582617 219.98809481 -103.68516838 218.18272966 -105 216.0703125 C-105.43699219 215.37808594 -105.87398437 214.68585938 -106.32421875 213.97265625 C-107.3125 212.1328125 -107.3125 212.1328125 -107.3125 210.1328125 C-107.9725 210.1328125 -108.6325 210.1328125 -109.3125 210.1328125 C-109.6425 208.4828125 -109.9725 206.8328125 -110.3125 205.1328125 C-110.9725 205.1328125 -111.6325 205.1328125 -112.3125 205.1328125 C-112.6425 203.1528125 -112.9725 201.1728125 -113.3125 199.1328125 C-113.9725 199.1328125 -114.6325 199.1328125 -115.3125 199.1328125 C-115.81865298 197.86441724 -116.31719099 196.59298148 -116.8125 195.3203125 C-117.0909375 194.61261719 -117.369375 193.90492188 -117.65625 193.17578125 C-118.3125 191.1328125 -118.3125 191.1328125 -118.3125 188.1328125 C-118.9725 188.1328125 -119.6325 188.1328125 -120.3125 188.1328125 C-122.4375 181.3828125 -122.4375 181.3828125 -121.3125 179.1328125 C-121.9725 179.1328125 -122.6325 179.1328125 -123.3125 179.1328125 C-124.29498524 175.0800609 -124.39409574 171.29419513 -124.3125 167.1328125 C-125.3025 166.8028125 -126.2925 166.4728125 -127.3125 166.1328125 C-127.27994792 164.27734375 -127.24739583 162.421875 -127.21484375 160.56640625 C-127.27266226 157.99056061 -127.27266226 157.99056061 -127.80810547 154.90722656 C-128.62902921 148.76420575 -128.49697351 142.63449046 -128.5 136.4453125 C-128.51224609 135.14658203 -128.52449219 133.84785156 -128.53710938 132.50976562 C-128.55297165 121.98250089 -127.39244301 112.19395968 -124.3125 102.1328125 C-123.95878502 100.47035209 -123.61654678 98.80506979 -123.3125 97.1328125 C-122.6525 97.1328125 -121.9925 97.1328125 -121.3125 97.1328125 C-120.9825 94.1628125 -120.6525 91.1928125 -120.3125 88.1328125 C-119.6525 88.1328125 -118.9925 88.1328125 -118.3125 88.1328125 C-118.21066406 87.28460938 -118.10882812 86.43640625 -118.00390625 85.5625 C-117.23931493 81.76978149 -115.9209567 78.74193497 -114.25 75.2578125 C-113.70214844 74.10539062 -113.15429688 72.95296875 -112.58984375 71.765625 C-112.16832031 70.89679688 -111.74679687 70.02796875 -111.3125 69.1328125 C-110.6525 69.1328125 -109.9925 69.1328125 -109.3125 69.1328125 C-109.3125 68.1428125 -109.3125 67.1528125 -109.3125 66.1328125 C-108.6525 66.1328125 -107.9925 66.1328125 -107.3125 66.1328125 C-107.065 65.4521875 -106.8175 64.7715625 -106.5625 64.0703125 C-105.07052092 60.56416167 -103.24414489 57.41660882 -101.3125 54.1328125 C-100.6525 54.1328125 -99.9925 54.1328125 -99.3125 54.1328125 C-99.04695312 53.55015625 -98.78140625 52.9675 -98.5078125 52.3671875 C-93.6599245 43.30512236 -83.64480499 34.07802471 -75.3125 28.1328125 C-74.6525 28.1328125 -73.9925 28.1328125 -73.3125 28.1328125 C-73.3125 27.4728125 -73.3125 26.8128125 -73.3125 26.1328125 C-71.1953125 24.625 -71.1953125 24.625 -68.4375 23.0078125 C-67.53257812 22.46898438 -66.62765625 21.93015625 -65.6953125 21.375 C-63.3125 20.1328125 -63.3125 20.1328125 -61.3125 20.1328125 C-61.3125 19.4728125 -61.3125 18.8128125 -61.3125 18.1328125 C-59.6625 17.8028125 -58.0125 17.4728125 -56.3125 17.1328125 C-56.3125 16.4728125 -56.3125 15.8128125 -56.3125 15.1328125 C-44.79085991 9.57700384 -44.79085991 9.57700384 -39.3125 9.1328125 C-39.3125 8.4728125 -39.3125 7.8128125 -39.3125 7.1328125 C-34.8575 6.6378125 -34.8575 6.6378125 -30.3125 6.1328125 C-30.3125 5.4728125 -30.3125 4.8128125 -30.3125 4.1328125 C-26.3525 3.8028125 -22.3925 3.4728125 -18.3125 3.1328125 C-18.3125 2.4728125 -18.3125 1.8128125 -18.3125 1.1328125 C-12.16796813 0.36168294 -6.18897325 -0.01565468 0 0 Z M5.6875 27.1328125 C2.02954714 27.43380976 -1.62883071 27.64024249 -5.29296875 27.8515625 C-8.18979093 27.79727655 -8.18979093 27.79727655 -9.3125 29.1328125 C-11.32561449 29.52850358 -13.34847208 29.87533441 -15.375 30.1953125 C-17.03208984 30.46021484 -17.03208984 30.46021484 -18.72265625 30.73046875 C-20.00462891 30.92962891 -20.00462891 30.92962891 -21.3125 31.1328125 C-21.3125 31.7928125 -21.3125 32.4528125 -21.3125 33.1328125 C-25.7675 33.6278125 -25.7675 33.6278125 -30.3125 34.1328125 C-30.3125 34.7928125 -30.3125 35.4528125 -30.3125 36.1328125 C-32.6225 36.4628125 -34.9325 36.7928125 -37.3125 37.1328125 C-37.3125 37.7928125 -37.3125 38.4528125 -37.3125 39.1328125 C-38.364375 39.2565625 -38.364375 39.2565625 -39.4375 39.3828125 C-42.96948979 40.30420114 -45.33178357 42.05927064 -48.3125 44.1328125 C-49.3025 44.4628125 -50.2925 44.7928125 -51.3125 45.1328125 C-51.3125 45.7928125 -51.3125 46.4528125 -51.3125 47.1328125 C-52.6325 47.4628125 -53.9525 47.7928125 -55.3125 48.1328125 C-55.3125 48.7928125 -55.3125 49.4528125 -55.3125 50.1328125 C-55.84875 50.3803125 -56.385 50.6278125 -56.9375 50.8828125 C-62.14122738 53.62161638 -65.76889034 56.44610295 -69.3125 61.1328125 C-70.97916667 62.79947917 -72.64583333 64.46614583 -74.3125 66.1328125 C-76.71827002 68.80153625 -76.71827002 68.80153625 -77.3125 72.1328125 C-77.9725 72.1328125 -78.6325 72.1328125 -79.3125 72.1328125 C-79.6425 73.4528125 -79.9725 74.7728125 -80.3125 76.1328125 C-80.9725 76.1328125 -81.6325 76.1328125 -82.3125 76.1328125 C-83.3201952 77.8992782 -84.31841714 79.67115073 -85.3125 81.4453125 C-85.869375 82.43144531 -86.42625 83.41757813 -87 84.43359375 C-88.53114753 87.08223721 -88.53114753 87.08223721 -88.3125 90.1328125 C-88.9725 90.1328125 -89.6325 90.1328125 -90.3125 90.1328125 C-90.6425 92.4428125 -90.9725 94.7528125 -91.3125 97.1328125 C-91.9725 97.1328125 -92.6325 97.1328125 -93.3125 97.1328125 C-93.6425 100.1028125 -93.9725 103.0728125 -94.3125 106.1328125 C-94.9725 106.1328125 -95.6325 106.1328125 -96.3125 106.1328125 C-96.44527344 106.98746094 -96.57804688 107.84210938 -96.71484375 108.72265625 C-96.89144531 109.82738281 -97.06804688 110.93210937 -97.25 112.0703125 C-97.42402344 113.17246094 -97.59804688 114.27460937 -97.77734375 115.41015625 C-98.3125 118.1328125 -98.3125 118.1328125 -99.3125 119.1328125 C-101.02775689 133.70492318 -101.60657599 150.02130003 -97.3125 164.1328125 C-96.94979412 166.12769484 -96.60609301 168.1265936 -96.3125 170.1328125 C-95.6525 170.1328125 -94.9925 170.1328125 -94.3125 170.1328125 C-94.22355469 171.28910156 -94.13460937 172.44539062 -94.04296875 173.63671875 C-93.45468955 178.30291242 -91.80835674 181.94529903 -89.625 186.0703125 C-89.26921875 186.76253906 -88.9134375 187.45476562 -88.546875 188.16796875 C-85.81571784 193.39534481 -82.80329967 198.37263113 -79.3125 203.1328125 C-77.75000191 201.82080077 -77.75000191 201.82080077 -76.3125 200.1328125 C-76.3125 199.1428125 -76.3125 198.1528125 -76.3125 197.1328125 C-75.6525 197.1328125 -74.9925 197.1328125 -74.3125 197.1328125 C-73.9825 195.4828125 -73.6525 193.8328125 -73.3125 192.1328125 C-72.6525 192.1328125 -71.9925 192.1328125 -71.3125 192.1328125 C-70.9825 190.8128125 -70.6525 189.4928125 -70.3125 188.1328125 C-69.6525 188.1328125 -68.9925 188.1328125 -68.3125 188.1328125 C-65.91429695 185.49596503 -65.91429695 185.49596503 -65.3125 182.1328125 C-64.3225 181.8028125 -63.3325 181.4728125 -62.3125 181.1328125 C-58.48552847 177.69116877 -58.48552847 177.69116877 -56.3125 173.1328125 C-54.625 172.1953125 -54.625 172.1953125 -52.3125 171.1328125 C-49.09420896 169.20987732 -49.09420896 169.20987732 -46.3125 167.1328125 C-46.3125 166.4728125 -46.3125 165.8128125 -46.3125 165.1328125 C-45.61125 165.0296875 -44.91 164.9265625 -44.1875 164.8203125 C-40.92112353 164.03922247 -38.2653148 162.71222507 -35.3125 161.1328125 C-35.3125 160.4728125 -35.3125 159.8128125 -35.3125 159.1328125 C-34.6525 158.8028125 -33.9925 158.4728125 -33.3125 158.1328125 C-33.93125 157.8853125 -34.55 157.6378125 -35.1875 157.3828125 C-37.66318687 155.92652611 -38.26375002 154.75468744 -39.3125 152.1328125 C-39.9725 152.1328125 -40.6325 152.1328125 -41.3125 152.1328125 C-41.456875 151.5140625 -41.60125 150.8953125 -41.75 150.2578125 C-42.24402225 148.10022928 -42.24402225 148.10022928 -43.3125 146.1328125 C-43.9725 146.1328125 -44.6325 146.1328125 -45.3125 146.1328125 C-45.43625 145.4109375 -45.56 144.6890625 -45.6875 143.9453125 C-46.43811893 140.56752732 -47.73439459 137.54178802 -49.0456543 134.34594727 C-51.52212953 127.71638658 -51.99286429 121.35277008 -52.25 114.3203125 C-52.31767578 113.22138672 -52.38535156 112.12246094 -52.45507812 110.99023438 C-52.74544814 103.84881525 -51.77336204 98.25765999 -49.18969727 91.5871582 C-48.14422203 89.0963797 -48.14422203 89.0963797 -48.3125 86.1328125 C-47.6525 86.1328125 -46.9925 86.1328125 -46.3125 86.1328125 C-45.9825 84.1528125 -45.6525 82.1728125 -45.3125 80.1328125 C-44.6525 80.1328125 -43.9925 80.1328125 -43.3125 80.1328125 C-40.99657978 76.91167093 -40.99657978 76.91167093 -40.3125 73.1328125 C-39.6525 73.1328125 -38.9925 73.1328125 -38.3125 73.1328125 C-38.23 72.5140625 -38.1475 71.8953125 -38.0625 71.2578125 C-37.3125 69.1328125 -37.3125 69.1328125 -35.5 68.0703125 C-34.778125 67.7609375 -34.05625 67.4515625 -33.3125 67.1328125 C-31.08506213 65.71303341 -31.08506213 65.71303341 -29.3125 64.1328125 C-29.3125 63.4728125 -29.3125 62.8128125 -29.3125 62.1328125 C-26.98035852 60.92653242 -24.81607861 59.9673387 -22.3125 59.1328125 C-22.3125 58.4728125 -22.3125 57.8128125 -22.3125 57.1328125 C-20.3325 56.8028125 -18.3525 56.4728125 -16.3125 56.1328125 C-16.3125 55.4728125 -16.3125 54.8128125 -16.3125 54.1328125 C-14.0025 53.8028125 -11.6925 53.4728125 -9.3125 53.1328125 C-9.3125 52.4728125 -9.3125 51.8128125 -9.3125 51.1328125 C-4.74098262 51.08309299 -0.16962532 51.04694274 4.40209961 51.02294922 C5.95486191 51.01293869 7.50760558 50.99932616 9.06030273 50.98193359 C11.30196755 50.95746598 13.54338149 50.94627982 15.78515625 50.9375 C16.47086197 50.92717743 17.15656769 50.91685486 17.86305237 50.90621948 C22.46837728 50.90516566 26.31252572 51.7514491 30.6875 53.1328125 C33.01537927 53.50231715 35.34795145 53.84633717 37.6875 54.1328125 C37.6875 54.7928125 37.6875 55.4528125 37.6875 56.1328125 C39.6675 56.4628125 41.6475 56.7928125 43.6875 57.1328125 C43.6875 57.7928125 43.6875 58.4528125 43.6875 59.1328125 C46.90864157 61.44873272 46.90864157 61.44873272 50.6875 62.1328125 C50.6875 62.7928125 50.6875 63.4528125 50.6875 64.1328125 C52.44271948 65.86974408 52.44271948 65.86974408 54.625 67.6328125 C58.58629154 70.93039558 58.58629154 70.93039558 59.6875 73.1328125 C60.3475 73.1328125 61.0075 73.1328125 61.6875 73.1328125 C62.89378008 75.46495398 63.8529738 77.62923389 64.6875 80.1328125 C65.3475 80.1328125 66.0075 80.1328125 66.6875 80.1328125 C67.0175 82.1128125 67.3475 84.0928125 67.6875 86.1328125 C68.3475 86.1328125 69.0075 86.1328125 69.6875 86.1328125 C69.81125 87.1434375 69.935 88.1540625 70.0625 89.1953125 C70.54873769 93.01681594 70.54873769 93.01681594 71.71484375 96.0625 C73.34449053 101.63491243 72.93600948 107.44436612 72.875 113.1953125 C72.8740332 114.93264648 72.8740332 114.93264648 72.87304688 116.70507812 C72.8048462 129.8981201 72.8048462 129.8981201 69.6875 136.1328125 C69.6875 137.4528125 69.6875 138.7728125 69.6875 140.1328125 C69.0275 140.1328125 68.3675 140.1328125 67.6875 140.1328125 C64.92435499 145.49812443 64.92435499 145.49812443 62.625 151.0703125 C62.315625 151.7509375 62.00625 152.4315625 61.6875 153.1328125 C60.6975 153.4628125 59.7075 153.7928125 58.6875 154.1328125 C58.6875 154.7928125 58.6875 155.4528125 58.6875 156.1328125 C58.0275 156.1328125 57.3675 156.1328125 56.6875 156.1328125 C56.6875 156.7928125 56.6875 157.4528125 56.6875 158.1328125 C56.0275 158.4628125 55.3675 158.7928125 54.6875 159.1328125 C55.3475 159.1328125 56.0075 159.1328125 56.6875 159.1328125 C56.6875 159.7928125 56.6875 160.4528125 56.6875 161.1328125 C57.95441507 161.80689558 59.22620749 162.47181747 60.5 163.1328125 C61.56154297 163.6896875 61.56154297 163.6896875 62.64453125 164.2578125 C64.77670729 165.32966608 64.77670729 165.32966608 67.6875 165.1328125 C68.0175 166.1228125 68.3475 167.1128125 68.6875 168.1328125 C70.37901518 169.62734954 70.37901518 169.62734954 72.4375 171.0078125 C75.02924652 172.86569531 77.36701114 174.69400388 79.5625 177.0078125 C80.26375 177.7090625 80.965 178.4103125 81.6875 179.1328125 C82.3475 179.1328125 83.0075 179.1328125 83.6875 179.1328125 C84.0175 180.1228125 84.3475 181.1128125 84.6875 182.1328125 C85.3475 182.1328125 86.0075 182.1328125 86.6875 182.1328125 C86.935 182.6690625 87.1825 183.2053125 87.4375 183.7578125 C88.99402537 186.7152107 90.72185673 189.43005301 92.6875 192.1328125 C93.3475 192.1328125 94.0075 192.1328125 94.6875 192.1328125 C95.0175 193.7828125 95.3475 195.4328125 95.6875 197.1328125 C96.3475 197.1328125 97.0075 197.1328125 97.6875 197.1328125 C98.3475 199.1128125 99.0075 201.0928125 99.6875 203.1328125 C105.8521419 197.34097832 109.60121058 189.92201914 112.6875 182.1328125 C113.244375 180.9365625 113.80125 179.7403125 114.375 178.5078125 C115.59543937 175.36953984 115.98816346 173.44011058 115.6875 170.1328125 C116.3475 170.1328125 117.0075 170.1328125 117.6875 170.1328125 C117.82027344 169.27816406 117.95304688 168.42351562 118.08984375 167.54296875 C118.35474609 165.88587891 118.35474609 165.88587891 118.625 164.1953125 C118.79902344 163.09316406 118.97304688 161.99101562 119.15234375 160.85546875 C119.6875 158.1328125 119.6875 158.1328125 120.6875 157.1328125 C121.08009563 153.60638509 121.16464231 150.05195853 121.3125 146.5078125 C121.37787964 144.94450195 121.37787964 144.94450195 121.44458008 143.34960938 C121.83057719 132.6441821 121.80023305 122.47196895 118.6875 112.1328125 C118.32479412 110.13793016 117.98109301 108.1390314 117.6875 106.1328125 C117.0275 106.1328125 116.3675 106.1328125 115.6875 106.1328125 C115.584375 104.9778125 115.48125 103.8228125 115.375 102.6328125 C114.82714887 98.12109731 113.4100121 94.32675501 111.6875 90.1328125 C111.0275 90.1328125 110.3675 90.1328125 109.6875 90.1328125 C109.605 89.4315625 109.5225 88.7303125 109.4375 88.0078125 C108.50635326 84.43841665 106.79991001 82.15054109 104.6875 79.1328125 C103.31254785 76.82102855 102.00190836 74.47997029 100.6875 72.1328125 C100.0275 72.1328125 99.3675 72.1328125 98.6875 72.1328125 C98.31625 71.3284375 98.31625 71.3284375 97.9375 70.5078125 C96.3734619 67.5361401 94.70373538 64.82112633 92.6875 62.1328125 C91.6975 62.1328125 90.7075 62.1328125 89.6875 62.1328125 C89.6875 61.1428125 89.6875 60.1528125 89.6875 59.1328125 C87.30949501 56.75835105 87.30949501 56.75835105 84.3125 54.4453125 C82.81589844 53.23294922 82.81589844 53.23294922 81.2890625 51.99609375 C78.94983506 49.93872018 78.94983506 49.93872018 76.6875 50.1328125 C76.6875 49.4728125 76.6875 48.8128125 76.6875 48.1328125 C75.3675 47.8028125 74.0475 47.4728125 72.6875 47.1328125 C72.6875 46.4728125 72.6875 45.8128125 72.6875 45.1328125 C58.32774124 36.37416221 58.32774124 36.37416221 42.6875 33.1328125 C42.3575 32.4728125 42.0275 31.8128125 41.6875 31.1328125 C39.14043768 30.47906508 39.14043768 30.47906508 36.1875 30.0703125 C30.78215649 29.22746899 30.78215649 29.22746899 29.6875 28.1328125 C27.07916878 27.92060928 24.48774168 27.75624911 21.875 27.6328125 C14.1862843 27.26375415 14.1862843 27.26375415 11.42578125 26.5390625 C9.19658889 26.01808271 7.89604958 26.53654334 5.6875 27.1328125 Z M-7.3125 81.1328125 C-7.3125 81.7928125 -7.3125 82.4528125 -7.3125 83.1328125 C-8.034375 83.3596875 -8.75625 83.5865625 -9.5 83.8203125 C-13.87329847 85.86118512 -16.58412738 88.57201403 -18.625 92.9453125 C-18.851875 93.6671875 -19.07875 94.3890625 -19.3125 95.1328125 C-19.9725 95.1328125 -20.6325 95.1328125 -21.3125 95.1328125 C-25.9078437 103.72410725 -26.46137355 114.67409559 -24.3125 124.1328125 C-23.45490402 126.57854918 -22.45497932 128.79818084 -21.3125 131.1328125 C-20.6525 131.1328125 -19.9925 131.1328125 -19.3125 131.1328125 C-19.085625 131.8546875 -18.85875 132.5765625 -18.625 133.3203125 C-16.58412738 137.69361097 -13.87329847 140.40443988 -9.5 142.4453125 C-8.778125 142.6721875 -8.05625 142.8990625 -7.3125 143.1328125 C-7.3125 143.7928125 -7.3125 144.4528125 -7.3125 145.1328125 C1.27879475 149.7281562 12.22878309 150.28168605 21.6875 148.1328125 C24.13323668 147.27521652 26.35286834 146.27529182 28.6875 145.1328125 C28.6875 144.4728125 28.6875 143.8128125 28.6875 143.1328125 C29.409375 142.9059375 30.13125 142.6790625 30.875 142.4453125 C35.24829847 140.40443988 37.95912738 137.69361097 40 133.3203125 C40.226875 132.5984375 40.45375 131.8765625 40.6875 131.1328125 C41.3475 131.1328125 42.0075 131.1328125 42.6875 131.1328125 C46.24002561 122.01981202 48.10036627 111.78427757 45.6875 102.1328125 C44.20762037 99.38708522 44.20762037 99.38708522 42.6875 97.1328125 C42.6875 96.4728125 42.6875 95.8128125 42.6875 95.1328125 C41.7121803 94.10872682 40.70551357 93.11446844 39.6875 92.1328125 C38.35416667 90.46614583 37.02083333 88.79947917 35.6875 87.1328125 C33.56350133 84.75393399 32.82152591 84.1774878 29.6875 83.1328125 C29.1925 82.1428125 29.1925 82.1428125 28.6875 81.1328125 C26.36593403 80.72552022 24.0306213 80.38842573 21.6875 80.1328125 C21.6875 79.4728125 21.6875 78.8128125 21.6875 78.1328125 C11.04351593 77.16110047 2.47430633 76.44330113 -7.3125 81.1328125 Z M-11.3125 180.1328125 C-12.64380115 180.47417177 -13.97608148 180.81207206 -15.3125 181.1328125 C-15.3125 181.7928125 -15.3125 182.4528125 -15.3125 183.1328125 C-17.6225 183.4628125 -19.9325 183.7928125 -22.3125 184.1328125 C-22.3125 184.7928125 -22.3125 185.4528125 -22.3125 186.1328125 C-23.9625 186.4628125 -25.6125 186.7928125 -27.3125 187.1328125 C-27.3125 187.7928125 -27.3125 188.4528125 -27.3125 189.1328125 C-28.9625 189.4628125 -30.6125 189.7928125 -32.3125 190.1328125 C-32.3125 190.7928125 -32.3125 191.4528125 -32.3125 192.1328125 C-34.3125 193.1328125 -36.3125 194.1328125 -38.3125 195.1328125 C-38.3125 195.7928125 -38.3125 196.4528125 -38.3125 197.1328125 C-39.3025 197.4628125 -40.2925 197.7928125 -41.3125 198.1328125 C-41.3125 198.7928125 -41.3125 199.4528125 -41.3125 200.1328125 C-41.9725 200.1328125 -42.6325 200.1328125 -43.3125 200.1328125 C-45.71070305 202.76965997 -45.71070305 202.76965997 -46.3125 206.1328125 C-46.9725 206.1328125 -47.6325 206.1328125 -48.3125 206.1328125 C-51.50810041 210.19854811 -51.50810041 210.19854811 -52.3125 215.1328125 C-52.9725 215.1328125 -53.6325 215.1328125 -54.3125 215.1328125 C-54.8075 216.2053125 -55.3025 217.2778125 -55.8125 218.3828125 C-56.0909375 218.98609375 -56.369375 219.589375 -56.65625 220.2109375 C-57.52792924 222.42524086 -57.52792924 222.42524086 -57.3125 226.1328125 C-54.71262797 228.58986946 -54.71262797 228.58986946 -51.3125 229.1328125 C-51.3125 229.7928125 -51.3125 230.4528125 -51.3125 231.1328125 C-49.73175436 231.95033553 -48.14778777 232.76163247 -46.5625 233.5703125 C-45.23992187 234.24900391 -45.23992187 234.24900391 -43.890625 234.94140625 C-41.67051434 235.96736648 -39.69805381 236.64789853 -37.3125 237.1328125 C-37.3125 237.7928125 -37.3125 238.4528125 -37.3125 239.1328125 C-35.587273 239.80960908 -33.85711061 240.4738325 -32.125 241.1328125 C-30.68060547 241.6896875 -30.68060547 241.6896875 -29.20703125 242.2578125 C-26.39067642 243.10918022 -24.23085561 243.30353897 -21.3125 243.1328125 C-21.3125 243.7928125 -21.3125 244.4528125 -21.3125 245.1328125 C-20.45785156 245.26558594 -19.60320312 245.39835937 -18.72265625 245.53515625 C-17.06556641 245.80005859 -17.06556641 245.80005859 -15.375 246.0703125 C-14.27285156 246.24433594 -13.17070313 246.41835938 -12.03515625 246.59765625 C-9.3125 247.1328125 -9.3125 247.1328125 -8.3125 248.1328125 C6.25961068 249.84806939 22.57598753 250.42688849 36.6875 246.1328125 C38.68238234 245.77010662 40.6812811 245.42640551 42.6875 245.1328125 C42.6875 244.4728125 42.6875 243.8128125 42.6875 243.1328125 C43.8425 243.0296875 44.9975 242.9265625 46.1875 242.8203125 C50.69921519 242.27246137 54.49355749 240.8553246 58.6875 239.1328125 C58.6875 238.4728125 58.6875 237.8128125 58.6875 237.1328125 C59.5228125 236.9471875 59.5228125 236.9471875 60.375 236.7578125 C62.90864364 236.07304395 65.26671032 235.14147487 67.6875 234.1328125 C67.6875 233.4728125 67.6875 232.8128125 67.6875 232.1328125 C70.1625 231.6378125 70.1625 231.6378125 72.6875 231.1328125 C72.6875 230.4728125 72.6875 229.8128125 72.6875 229.1328125 C75.6875 227.6328125 75.6875 227.6328125 78.6875 226.1328125 C78.85437448 223.71635468 78.85437448 223.71635468 78.6875 221.1328125 C78.0275 220.4728125 77.3675 219.8128125 76.6875 219.1328125 C75.66984073 217.14174002 74.67172146 215.14062427 73.6875 213.1328125 C72.22638984 210.33383307 72.22638984 210.33383307 70.6875 208.1328125 C70.0275 208.1328125 69.3675 208.1328125 68.6875 208.1328125 C68.460625 207.4315625 68.23375 206.7303125 68 206.0078125 C66.34908712 202.39152715 64.3966165 200.04511274 61.6875 197.1328125 C61.0275 197.1328125 60.3675 197.1328125 59.6875 197.1328125 C59.6875 196.4728125 59.6875 195.8128125 59.6875 195.1328125 C57.05065253 192.73460945 57.05065253 192.73460945 53.6875 192.1328125 C53.6875 191.4728125 53.6875 190.8128125 53.6875 190.1328125 C51.04011084 188.672184 49.79301666 188.1328125 46.6875 188.1328125 C46.6875 187.4728125 46.6875 186.8128125 46.6875 186.1328125 C42.95784861 184.09845719 41.01844958 183.1328125 36.6875 183.1328125 C36.1925 182.1428125 36.1925 182.1428125 35.6875 181.1328125 C22.67737715 174.70464306 2.06503612 175.67363379 -11.3125 180.1328125 Z " fill="#000000" transform="translate(639.3125,11.8671875)"></path><path d="M0 0 C1.28064331 -0.00143509 1.28064331 -0.00143509 2.5871582 -0.00289917 C4.37874425 -0.00357476 6.17033283 -0.00176418 7.96191406 0.00244141 C10.68039528 0.0077985 13.39871132 0.00247515 16.1171875 -0.00390625 C17.86979203 -0.00324536 19.62239645 -0.00196397 21.375 0 C22.17526611 -0.00202423 22.97553223 -0.00404846 23.80004883 -0.00613403 C29.16442596 0.01579484 34.36397748 0.46471839 39.6875 1.1328125 C39.6875 1.7928125 39.6875 2.4528125 39.6875 3.1328125 C45.6275 3.6278125 45.6275 3.6278125 51.6875 4.1328125 C51.6875 4.7928125 51.6875 5.4528125 51.6875 6.1328125 C53.42 6.2565625 53.42 6.2565625 55.1875 6.3828125 C59.14925818 6.87629466 62.04248015 8.11868816 65.5234375 10.01171875 C69.43788155 12.03959861 73.57762409 13.54949965 77.6875 15.1328125 C77.6875 15.7928125 77.6875 16.4528125 77.6875 17.1328125 C79.3375 17.4628125 80.9875 17.7928125 82.6875 18.1328125 C82.6875 18.7928125 82.6875 19.4528125 82.6875 20.1328125 C83.25984375 20.24753906 83.8321875 20.36226562 84.421875 20.48046875 C86.90221656 21.19463606 88.75118697 22.20589122 90.9375 23.5703125 C91.64390625 24.00214844 92.3503125 24.43398438 93.078125 24.87890625 C93.60921875 25.29269531 94.1403125 25.70648438 94.6875 26.1328125 C94.6875 26.7928125 94.6875 27.4528125 94.6875 28.1328125 C95.244375 28.3803125 95.80125 28.6278125 96.375 28.8828125 C99.11160913 30.36206068 101.36400869 32.06748689 103.6875 34.1328125 C103.6875 34.7928125 103.6875 35.4528125 103.6875 36.1328125 C104.244375 36.3596875 104.80125 36.5865625 105.375 36.8203125 C108.34909588 38.50831286 110.40758865 40.59957767 112.6875 43.1328125 C112.6875 43.7928125 112.6875 44.4528125 112.6875 45.1328125 C113.3475 45.1328125 114.0075 45.1328125 114.6875 45.1328125 C116.1953125 46.59375 116.1953125 46.59375 117.8125 48.5078125 C118.35132813 49.13429687 118.89015625 49.76078125 119.4453125 50.40625 C120.6875 52.1328125 120.6875 52.1328125 120.6875 54.1328125 C121.3475 54.1328125 122.0075 54.1328125 122.6875 54.1328125 C124.1953125 56.25 124.1953125 56.25 125.8125 59.0078125 C126.35132813 59.91273437 126.89015625 60.81765625 127.4453125 61.75 C128.6875 64.1328125 128.6875 64.1328125 128.6875 66.1328125 C129.3475 66.1328125 130.0075 66.1328125 130.6875 66.1328125 C131.0175 67.7828125 131.3475 69.4328125 131.6875 71.1328125 C132.3475 71.1328125 133.0075 71.1328125 133.6875 71.1328125 C136.2033113 76.55624179 138.68391051 81.99568553 141 87.5078125 C141.32613281 88.27867188 141.65226562 89.04953125 141.98828125 89.84375 C142.76266447 92.37888165 142.81324132 94.49690177 142.6875 97.1328125 C143.3475 97.1328125 144.0075 97.1328125 144.6875 97.1328125 C145.0175 101.0928125 145.3475 105.0528125 145.6875 109.1328125 C146.3475 109.1328125 147.0075 109.1328125 147.6875 109.1328125 C148.45862956 115.27734437 148.83596718 121.25633925 148.8203125 127.4453125 C148.82174759 128.72595581 148.82174759 128.72595581 148.82321167 130.0324707 C148.82388726 131.82405675 148.82207668 133.61564533 148.81787109 135.40722656 C148.812514 138.12570778 148.81783735 140.84402382 148.82421875 143.5625 C148.82355786 145.31510453 148.82227647 147.06770895 148.8203125 148.8203125 C148.82233673 149.62057861 148.82436096 150.42084473 148.82644653 151.24536133 C148.80451766 156.60973846 148.35559411 161.80928998 147.6875 167.1328125 C147.0275 167.1328125 146.3675 167.1328125 145.6875 167.1328125 C145.3575 171.0928125 145.0275 175.0528125 144.6875 179.1328125 C144.0275 179.1328125 143.3675 179.1328125 142.6875 179.1328125 C142.605 180.2878125 142.5225 181.4428125 142.4375 182.6328125 C141.94401784 186.59457068 140.70162434 189.48779265 138.80859375 192.96875 C136.78071389 196.88319405 135.27081285 201.02293659 133.6875 205.1328125 C133.0275 205.1328125 132.3675 205.1328125 131.6875 205.1328125 C131.3575 206.7828125 131.0275 208.4328125 130.6875 210.1328125 C130.0275 210.1328125 129.3675 210.1328125 128.6875 210.1328125 C128.44 210.8134375 128.1925 211.4940625 127.9375 212.1953125 C126.44552092 215.70146333 124.61914489 218.84901618 122.6875 222.1328125 C122.0275 222.1328125 121.3675 222.1328125 120.6875 222.1328125 C120.44 222.6896875 120.1925 223.2465625 119.9375 223.8203125 C118.45825182 226.55692163 116.75282561 228.80932119 114.6875 231.1328125 C114.0275 231.1328125 113.3675 231.1328125 112.6875 231.1328125 C112.3471875 231.9371875 112.3471875 231.9371875 112 232.7578125 C109.42056891 237.42535448 106.55780494 240.93331994 101.6875 243.1328125 C101.12417969 243.71289062 100.56085938 244.29296875 99.98046875 244.890625 C97.23471655 247.57556838 94.2190628 249.71972148 91.0625 251.8828125 C90.47726563 252.29402344 89.89203125 252.70523438 89.2890625 253.12890625 C84.93788933 256.1328125 84.93788933 256.1328125 82.6875 256.1328125 C82.3575 257.1228125 82.0275 258.1128125 81.6875 259.1328125 C80.3675 259.1328125 79.0475 259.1328125 77.6875 259.1328125 C77.6875 259.7928125 77.6875 260.4528125 77.6875 261.1328125 C72.26407071 263.6486238 66.82462697 266.12922301 61.3125 268.4453125 C60.54164063 268.77144531 59.77078125 269.09757812 58.9765625 269.43359375 C56.44143085 270.20797697 54.32341073 270.25855382 51.6875 270.1328125 C51.6875 270.7928125 51.6875 271.4528125 51.6875 272.1328125 C47.7275 272.4628125 43.7675 272.7928125 39.6875 273.1328125 C39.6875 273.7928125 39.6875 274.4528125 39.6875 275.1328125 C39.08421875 275.19339844 38.4809375 275.25398438 37.859375 275.31640625 C36.66054688 275.44208984 36.66054688 275.44208984 35.4375 275.5703125 C34.64859375 275.65152344 33.8596875 275.73273438 33.046875 275.81640625 C30.77243481 276.05942932 30.77243481 276.05942932 28.97338867 276.64208984 C23.91904457 277.72713007 18.58457019 277.318696 13.42797852 277.31811523 C11.28836314 277.3202738 9.14928794 277.3383654 7.00976562 277.35742188 C-3.79099319 277.40272484 -14.02939088 276.63579151 -24.3125 273.1328125 C-26.30619031 272.76361059 -28.30529077 272.41955668 -30.3125 272.1328125 C-30.3125 271.4728125 -30.3125 270.8128125 -30.3125 270.1328125 C-31.4675 270.0503125 -32.6225 269.9678125 -33.8125 269.8828125 C-37.78286196 269.38825864 -40.68019624 268.14085656 -44.16796875 266.2421875 C-46.55934757 265.00511722 -48.98809172 264.03786236 -51.5 263.0703125 C-54.98605863 261.70059763 -58.27032397 260.36374159 -61.3125 258.1328125 C-61.3125 257.4728125 -61.3125 256.8128125 -61.3125 256.1328125 C-63.96478812 255.05756056 -66.59618454 254.03825099 -69.3125 253.1328125 C-69.3125 252.4728125 -69.3125 251.8128125 -69.3125 251.1328125 C-70.6325 250.8028125 -71.9525 250.4728125 -73.3125 250.1328125 C-73.3125 249.4728125 -73.3125 248.8128125 -73.3125 248.1328125 C-73.910625 247.8646875 -74.50875 247.5965625 -75.125 247.3203125 C-77.30971913 246.13432211 -78.60720795 244.91224768 -80.3125 243.1328125 C-81.3025 242.4728125 -82.2925 241.8128125 -83.3125 241.1328125 C-87.90626086 237.5214797 -91.37867199 234.7731442 -93.3125 229.1328125 C-94.62897119 228.43343718 -95.96272151 227.76552117 -97.3125 227.1328125 C-98.375 225.1953125 -98.375 225.1953125 -99.3125 223.1328125 C-99.77140625 222.6790625 -100.2303125 222.2253125 -100.703125 221.7578125 C-102.45582617 219.98809481 -103.68516838 218.18272966 -105 216.0703125 C-105.43699219 215.37808594 -105.87398437 214.68585938 -106.32421875 213.97265625 C-107.3125 212.1328125 -107.3125 212.1328125 -107.3125 210.1328125 C-107.9725 210.1328125 -108.6325 210.1328125 -109.3125 210.1328125 C-109.6425 208.4828125 -109.9725 206.8328125 -110.3125 205.1328125 C-110.9725 205.1328125 -111.6325 205.1328125 -112.3125 205.1328125 C-112.6425 203.1528125 -112.9725 201.1728125 -113.3125 199.1328125 C-113.9725 199.1328125 -114.6325 199.1328125 -115.3125 199.1328125 C-115.81865298 197.86441724 -116.31719099 196.59298148 -116.8125 195.3203125 C-117.0909375 194.61261719 -117.369375 193.90492188 -117.65625 193.17578125 C-118.3125 191.1328125 -118.3125 191.1328125 -118.3125 188.1328125 C-118.9725 188.1328125 -119.6325 188.1328125 -120.3125 188.1328125 C-120.6425 185.1628125 -120.9725 182.1928125 -121.3125 179.1328125 C-121.9725 179.1328125 -122.6325 179.1328125 -123.3125 179.1328125 C-124.29498524 175.0800609 -124.39409574 171.29419513 -124.3125 167.1328125 C-125.3025 166.8028125 -126.2925 166.4728125 -127.3125 166.1328125 C-127.27994792 164.27734375 -127.24739583 162.421875 -127.21484375 160.56640625 C-127.27266226 157.99056061 -127.27266226 157.99056061 -127.80810547 154.90722656 C-128.62902921 148.76420575 -128.49697351 142.63449046 -128.5 136.4453125 C-128.51224609 135.14658203 -128.52449219 133.84785156 -128.53710938 132.50976562 C-128.55297165 121.98250089 -127.39244301 112.19395968 -124.3125 102.1328125 C-123.95878502 100.47035209 -123.61654678 98.80506979 -123.3125 97.1328125 C-122.6525 97.1328125 -121.9925 97.1328125 -121.3125 97.1328125 C-120.9825 94.1628125 -120.6525 91.1928125 -120.3125 88.1328125 C-119.6525 88.1328125 -118.9925 88.1328125 -118.3125 88.1328125 C-118.21066406 87.28460938 -118.10882813 86.43640625 -118.00390625 85.5625 C-117.23931493 81.76978149 -115.9209567 78.74193497 -114.25 75.2578125 C-113.70214844 74.10539062 -113.15429688 72.95296875 -112.58984375 71.765625 C-112.16832031 70.89679688 -111.74679688 70.02796875 -111.3125 69.1328125 C-110.6525 69.1328125 -109.9925 69.1328125 -109.3125 69.1328125 C-109.3125 68.1428125 -109.3125 67.1528125 -109.3125 66.1328125 C-108.6525 66.1328125 -107.9925 66.1328125 -107.3125 66.1328125 C-107.065 65.4521875 -106.8175 64.7715625 -106.5625 64.0703125 C-105.07052092 60.56416167 -103.24414489 57.41660882 -101.3125 54.1328125 C-100.6525 54.1328125 -99.9925 54.1328125 -99.3125 54.1328125 C-99.04695313 53.55015625 -98.78140625 52.9675 -98.5078125 52.3671875 C-93.6599245 43.30512236 -83.64480499 34.07802471 -75.3125 28.1328125 C-74.6525 28.1328125 -73.9925 28.1328125 -73.3125 28.1328125 C-73.3125 27.4728125 -73.3125 26.8128125 -73.3125 26.1328125 C-71.1953125 24.625 -71.1953125 24.625 -68.4375 23.0078125 C-67.53257813 22.46898438 -66.62765625 21.93015625 -65.6953125 21.375 C-63.3125 20.1328125 -63.3125 20.1328125 -61.3125 20.1328125 C-61.3125 19.4728125 -61.3125 18.8128125 -61.3125 18.1328125 C-59.6625 17.8028125 -58.0125 17.4728125 -56.3125 17.1328125 C-56.3125 16.4728125 -56.3125 15.8128125 -56.3125 15.1328125 C-44.79085991 9.57700384 -44.79085991 9.57700384 -39.3125 9.1328125 C-39.3125 8.4728125 -39.3125 7.8128125 -39.3125 7.1328125 C-34.8575 6.6378125 -34.8575 6.6378125 -30.3125 6.1328125 C-30.3125 5.4728125 -30.3125 4.8128125 -30.3125 4.1328125 C-26.3525 3.8028125 -22.3925 3.4728125 -18.3125 3.1328125 C-18.3125 2.4728125 -18.3125 1.8128125 -18.3125 1.1328125 C-12.16796813 0.36168294 -6.18897325 -0.01565468 0 0 Z M5.6875 27.1328125 C2.02954714 27.43380976 -1.62883071 27.64024249 -5.29296875 27.8515625 C-8.18979093 27.79727655 -8.18979093 27.79727655 -9.3125 29.1328125 C-11.32561449 29.52850358 -13.34847208 29.87533441 -15.375 30.1953125 C-17.03208984 30.46021484 -17.03208984 30.46021484 -18.72265625 30.73046875 C-20.00462891 30.92962891 -20.00462891 30.92962891 -21.3125 31.1328125 C-21.3125 31.7928125 -21.3125 32.4528125 -21.3125 33.1328125 C-25.7675 33.6278125 -25.7675 33.6278125 -30.3125 34.1328125 C-30.3125 34.7928125 -30.3125 35.4528125 -30.3125 36.1328125 C-32.6225 36.4628125 -34.9325 36.7928125 -37.3125 37.1328125 C-37.3125 37.7928125 -37.3125 38.4528125 -37.3125 39.1328125 C-38.364375 39.2565625 -38.364375 39.2565625 -39.4375 39.3828125 C-42.96948979 40.30420114 -45.33178357 42.05927064 -48.3125 44.1328125 C-49.3025 44.4628125 -50.2925 44.7928125 -51.3125 45.1328125 C-51.3125 45.7928125 -51.3125 46.4528125 -51.3125 47.1328125 C-52.6325 47.4628125 -53.9525 47.7928125 -55.3125 48.1328125 C-55.3125 48.7928125 -55.3125 49.4528125 -55.3125 50.1328125 C-55.84875 50.3803125 -56.385 50.6278125 -56.9375 50.8828125 C-62.14122738 53.62161638 -65.76889034 56.44610295 -69.3125 61.1328125 C-70.97916667 62.79947917 -72.64583333 64.46614583 -74.3125 66.1328125 C-76.71827002 68.80153625 -76.71827002 68.80153625 -77.3125 72.1328125 C-77.9725 72.1328125 -78.6325 72.1328125 -79.3125 72.1328125 C-79.6425 73.4528125 -79.9725 74.7728125 -80.3125 76.1328125 C-80.9725 76.1328125 -81.6325 76.1328125 -82.3125 76.1328125 C-83.3201952 77.8992782 -84.31841714 79.67115073 -85.3125 81.4453125 C-85.869375 82.43144531 -86.42625 83.41757813 -87 84.43359375 C-88.53114753 87.08223721 -88.53114753 87.08223721 -88.3125 90.1328125 C-88.9725 90.1328125 -89.6325 90.1328125 -90.3125 90.1328125 C-90.6425 92.4428125 -90.9725 94.7528125 -91.3125 97.1328125 C-91.9725 97.1328125 -92.6325 97.1328125 -93.3125 97.1328125 C-93.6425 100.1028125 -93.9725 103.0728125 -94.3125 106.1328125 C-94.9725 106.1328125 -95.6325 106.1328125 -96.3125 106.1328125 C-96.44527344 106.98746094 -96.57804687 107.84210938 -96.71484375 108.72265625 C-96.89144531 109.82738281 -97.06804687 110.93210937 -97.25 112.0703125 C-97.42402344 113.17246094 -97.59804687 114.27460937 -97.77734375 115.41015625 C-98.3125 118.1328125 -98.3125 118.1328125 -99.3125 119.1328125 C-101.02775689 133.70492318 -101.60657599 150.02130003 -97.3125 164.1328125 C-96.94979412 166.12769484 -96.60609301 168.1265936 -96.3125 170.1328125 C-95.6525 170.1328125 -94.9925 170.1328125 -94.3125 170.1328125 C-94.22355469 171.28910156 -94.13460937 172.44539062 -94.04296875 173.63671875 C-93.45468955 178.30291242 -91.80835674 181.94529903 -89.625 186.0703125 C-89.26921875 186.76253906 -88.9134375 187.45476562 -88.546875 188.16796875 C-85.81571784 193.39534481 -82.80329967 198.37263113 -79.3125 203.1328125 C-77.75000191 201.82080077 -77.75000191 201.82080077 -76.3125 200.1328125 C-76.3125 199.1428125 -76.3125 198.1528125 -76.3125 197.1328125 C-75.6525 197.1328125 -74.9925 197.1328125 -74.3125 197.1328125 C-73.9825 195.4828125 -73.6525 193.8328125 -73.3125 192.1328125 C-72.6525 192.1328125 -71.9925 192.1328125 -71.3125 192.1328125 C-70.9825 190.8128125 -70.6525 189.4928125 -70.3125 188.1328125 C-69.6525 188.1328125 -68.9925 188.1328125 -68.3125 188.1328125 C-65.91429695 185.49596503 -65.91429695 185.49596503 -65.3125 182.1328125 C-64.3225 181.8028125 -63.3325 181.4728125 -62.3125 181.1328125 C-58.48552847 177.69116877 -58.48552847 177.69116877 -56.3125 173.1328125 C-54.625 172.1953125 -54.625 172.1953125 -52.3125 171.1328125 C-49.09420896 169.20987732 -49.09420896 169.20987732 -46.3125 167.1328125 C-46.3125 166.4728125 -46.3125 165.8128125 -46.3125 165.1328125 C-45.61125 165.0296875 -44.91 164.9265625 -44.1875 164.8203125 C-40.92112353 164.03922247 -38.2653148 162.71222507 -35.3125 161.1328125 C-35.3125 160.4728125 -35.3125 159.8128125 -35.3125 159.1328125 C-34.6525 158.8028125 -33.9925 158.4728125 -33.3125 158.1328125 C-33.93125 157.8853125 -34.55 157.6378125 -35.1875 157.3828125 C-37.66318687 155.92652611 -38.26375002 154.75468744 -39.3125 152.1328125 C-39.9725 152.1328125 -40.6325 152.1328125 -41.3125 152.1328125 C-41.456875 151.5140625 -41.60125 150.8953125 -41.75 150.2578125 C-42.24402225 148.10022928 -42.24402225 148.10022928 -43.3125 146.1328125 C-43.9725 146.1328125 -44.6325 146.1328125 -45.3125 146.1328125 C-45.43625 145.4109375 -45.56 144.6890625 -45.6875 143.9453125 C-46.43811893 140.56752732 -47.73439459 137.54178802 -49.0456543 134.34594727 C-51.52212953 127.71638658 -51.99286429 121.35277008 -52.25 114.3203125 C-52.31767578 113.22138672 -52.38535156 112.12246094 -52.45507812 110.99023438 C-52.74544814 103.84881525 -51.77336204 98.25765999 -49.18969727 91.5871582 C-48.14422203 89.0963797 -48.14422203 89.0963797 -48.3125 86.1328125 C-47.6525 86.1328125 -46.9925 86.1328125 -46.3125 86.1328125 C-45.9825 84.1528125 -45.6525 82.1728125 -45.3125 80.1328125 C-44.6525 80.1328125 -43.9925 80.1328125 -43.3125 80.1328125 C-40.99657978 76.91167093 -40.99657978 76.91167093 -40.3125 73.1328125 C-39.6525 73.1328125 -38.9925 73.1328125 -38.3125 73.1328125 C-38.23 72.5140625 -38.1475 71.8953125 -38.0625 71.2578125 C-37.3125 69.1328125 -37.3125 69.1328125 -35.5 68.0703125 C-34.778125 67.7609375 -34.05625 67.4515625 -33.3125 67.1328125 C-31.08506213 65.71303341 -31.08506213 65.71303341 -29.3125 64.1328125 C-29.3125 63.4728125 -29.3125 62.8128125 -29.3125 62.1328125 C-26.98035852 60.92653242 -24.81607861 59.9673387 -22.3125 59.1328125 C-22.3125 58.4728125 -22.3125 57.8128125 -22.3125 57.1328125 C-20.3325 56.8028125 -18.3525 56.4728125 -16.3125 56.1328125 C-16.3125 55.4728125 -16.3125 54.8128125 -16.3125 54.1328125 C-14.0025 53.8028125 -11.6925 53.4728125 -9.3125 53.1328125 C-9.3125 52.4728125 -9.3125 51.8128125 -9.3125 51.1328125 C-4.74098262 51.08309299 -0.16962532 51.04694274 4.40209961 51.02294922 C5.95486191 51.01293869 7.50760558 50.99932616 9.06030273 50.98193359 C11.30196755 50.95746598 13.54338149 50.94627982 15.78515625 50.9375 C16.47086197 50.92717743 17.15656769 50.91685486 17.86305237 50.90621948 C22.46837728 50.90516566 26.31252572 51.7514491 30.6875 53.1328125 C33.01537927 53.50231715 35.34795145 53.84633717 37.6875 54.1328125 C37.6875 54.7928125 37.6875 55.4528125 37.6875 56.1328125 C39.6675 56.4628125 41.6475 56.7928125 43.6875 57.1328125 C43.6875 57.7928125 43.6875 58.4528125 43.6875 59.1328125 C46.90864157 61.44873272 46.90864157 61.44873272 50.6875 62.1328125 C50.6875 62.7928125 50.6875 63.4528125 50.6875 64.1328125 C52.44271948 65.86974408 52.44271948 65.86974408 54.625 67.6328125 C58.58629154 70.93039558 58.58629154 70.93039558 59.6875 73.1328125 C60.3475 73.1328125 61.0075 73.1328125 61.6875 73.1328125 C62.89378008 75.46495398 63.8529738 77.62923389 64.6875 80.1328125 C65.3475 80.1328125 66.0075 80.1328125 66.6875 80.1328125 C67.0175 82.1128125 67.3475 84.0928125 67.6875 86.1328125 C68.3475 86.1328125 69.0075 86.1328125 69.6875 86.1328125 C69.81125 87.1434375 69.935 88.1540625 70.0625 89.1953125 C70.54873769 93.01681594 70.54873769 93.01681594 71.71484375 96.0625 C73.34449053 101.63491243 72.93600948 107.44436612 72.875 113.1953125 C72.8740332 114.93264648 72.8740332 114.93264648 72.87304688 116.70507812 C72.8048462 129.8981201 72.8048462 129.8981201 69.6875 136.1328125 C69.6875 137.4528125 69.6875 138.7728125 69.6875 140.1328125 C69.0275 140.1328125 68.3675 140.1328125 67.6875 140.1328125 C64.92435499 145.49812443 64.92435499 145.49812443 62.625 151.0703125 C62.315625 151.7509375 62.00625 152.4315625 61.6875 153.1328125 C60.6975 153.4628125 59.7075 153.7928125 58.6875 154.1328125 C58.6875 154.7928125 58.6875 155.4528125 58.6875 156.1328125 C58.0275 156.1328125 57.3675 156.1328125 56.6875 156.1328125 C56.6875 156.7928125 56.6875 157.4528125 56.6875 158.1328125 C56.0275 158.4628125 55.3675 158.7928125 54.6875 159.1328125 C55.3475 159.1328125 56.0075 159.1328125 56.6875 159.1328125 C56.6875 159.7928125 56.6875 160.4528125 56.6875 161.1328125 C57.95441507 161.80689558 59.22620749 162.47181747 60.5 163.1328125 C61.56154297 163.6896875 61.56154297 163.6896875 62.64453125 164.2578125 C64.77670729 165.32966608 64.77670729 165.32966608 67.6875 165.1328125 C68.0175 166.1228125 68.3475 167.1128125 68.6875 168.1328125 C70.37901518 169.62734954 70.37901518 169.62734954 72.4375 171.0078125 C75.02924652 172.86569531 77.36701114 174.69400388 79.5625 177.0078125 C80.26375 177.7090625 80.965 178.4103125 81.6875 179.1328125 C82.3475 179.1328125 83.0075 179.1328125 83.6875 179.1328125 C84.0175 180.1228125 84.3475 181.1128125 84.6875 182.1328125 C85.3475 182.1328125 86.0075 182.1328125 86.6875 182.1328125 C86.935 182.6690625 87.1825 183.2053125 87.4375 183.7578125 C88.99402537 186.7152107 90.72185673 189.43005301 92.6875 192.1328125 C93.3475 192.1328125 94.0075 192.1328125 94.6875 192.1328125 C95.0175 193.7828125 95.3475 195.4328125 95.6875 197.1328125 C96.3475 197.1328125 97.0075 197.1328125 97.6875 197.1328125 C98.3475 199.1128125 99.0075 201.0928125 99.6875 203.1328125 C105.8521419 197.34097832 109.60121058 189.92201914 112.6875 182.1328125 C113.244375 180.9365625 113.80125 179.7403125 114.375 178.5078125 C115.59543937 175.36953984 115.98816346 173.44011058 115.6875 170.1328125 C116.3475 170.1328125 117.0075 170.1328125 117.6875 170.1328125 C117.82027344 169.27816406 117.95304688 168.42351562 118.08984375 167.54296875 C118.35474609 165.88587891 118.35474609 165.88587891 118.625 164.1953125 C118.79902344 163.09316406 118.97304688 161.99101562 119.15234375 160.85546875 C119.6875 158.1328125 119.6875 158.1328125 120.6875 157.1328125 C121.08009563 153.60638509 121.16464231 150.05195853 121.3125 146.5078125 C121.37787964 144.94450195 121.37787964 144.94450195 121.44458008 143.34960938 C121.83057719 132.6441821 121.80023305 122.47196895 118.6875 112.1328125 C118.32479412 110.13793016 117.98109301 108.1390314 117.6875 106.1328125 C117.0275 106.1328125 116.3675 106.1328125 115.6875 106.1328125 C115.584375 104.9778125 115.48125 103.8228125 115.375 102.6328125 C114.82714887 98.12109731 113.4100121 94.32675501 111.6875 90.1328125 C111.0275 90.1328125 110.3675 90.1328125 109.6875 90.1328125 C109.605 89.4315625 109.5225 88.7303125 109.4375 88.0078125 C108.50635326 84.43841665 106.79991001 82.15054109 104.6875 79.1328125 C103.31254785 76.82102855 102.00190836 74.47997029 100.6875 72.1328125 C100.0275 72.1328125 99.3675 72.1328125 98.6875 72.1328125 C98.31625 71.3284375 98.31625 71.3284375 97.9375 70.5078125 C96.3734619 67.5361401 94.70373538 64.82112633 92.6875 62.1328125 C91.6975 62.1328125 90.7075 62.1328125 89.6875 62.1328125 C89.6875 61.1428125 89.6875 60.1528125 89.6875 59.1328125 C87.30949501 56.75835105 87.30949501 56.75835105 84.3125 54.4453125 C82.81589844 53.23294922 82.81589844 53.23294922 81.2890625 51.99609375 C78.94983506 49.93872018 78.94983506 49.93872018 76.6875 50.1328125 C76.6875 49.4728125 76.6875 48.8128125 76.6875 48.1328125 C75.3675 47.8028125 74.0475 47.4728125 72.6875 47.1328125 C72.6875 46.4728125 72.6875 45.8128125 72.6875 45.1328125 C58.32774124 36.37416221 58.32774124 36.37416221 42.6875 33.1328125 C42.3575 32.4728125 42.0275 31.8128125 41.6875 31.1328125 C39.14043768 30.47906508 39.14043768 30.47906508 36.1875 30.0703125 C30.78215649 29.22746899 30.78215649 29.22746899 29.6875 28.1328125 C27.07916878 27.92060928 24.48774168 27.75624911 21.875 27.6328125 C14.1862843 27.26375415 14.1862843 27.26375415 11.42578125 26.5390625 C9.19658889 26.01808271 7.89604958 26.53654334 5.6875 27.1328125 Z M-7.3125 81.1328125 C-7.3125 81.7928125 -7.3125 82.4528125 -7.3125 83.1328125 C-8.034375 83.3596875 -8.75625 83.5865625 -9.5 83.8203125 C-13.87329847 85.86118512 -16.58412738 88.57201403 -18.625 92.9453125 C-18.851875 93.6671875 -19.07875 94.3890625 -19.3125 95.1328125 C-19.9725 95.1328125 -20.6325 95.1328125 -21.3125 95.1328125 C-25.9078437 103.72410725 -26.46137355 114.67409559 -24.3125 124.1328125 C-23.45490402 126.57854918 -22.45497932 128.79818084 -21.3125 131.1328125 C-20.6525 131.1328125 -19.9925 131.1328125 -19.3125 131.1328125 C-19.085625 131.8546875 -18.85875 132.5765625 -18.625 133.3203125 C-16.58412738 137.69361097 -13.87329847 140.40443988 -9.5 142.4453125 C-8.778125 142.6721875 -8.05625 142.8990625 -7.3125 143.1328125 C-7.3125 143.7928125 -7.3125 144.4528125 -7.3125 145.1328125 C1.27879475 149.7281562 12.22878309 150.28168605 21.6875 148.1328125 C24.13323668 147.27521652 26.35286834 146.27529182 28.6875 145.1328125 C28.6875 144.4728125 28.6875 143.8128125 28.6875 143.1328125 C29.409375 142.9059375 30.13125 142.6790625 30.875 142.4453125 C35.24829847 140.40443988 37.95912738 137.69361097 40 133.3203125 C40.226875 132.5984375 40.45375 131.8765625 40.6875 131.1328125 C41.3475 131.1328125 42.0075 131.1328125 42.6875 131.1328125 C46.24002561 122.01981202 48.10036627 111.78427757 45.6875 102.1328125 C44.20762037 99.38708522 44.20762037 99.38708522 42.6875 97.1328125 C42.6875 96.4728125 42.6875 95.8128125 42.6875 95.1328125 C41.7121803 94.10872682 40.70551357 93.11446844 39.6875 92.1328125 C38.35416667 90.46614583 37.02083333 88.79947917 35.6875 87.1328125 C33.56350133 84.75393399 32.82152591 84.1774878 29.6875 83.1328125 C29.1925 82.1428125 29.1925 82.1428125 28.6875 81.1328125 C26.36593403 80.72552022 24.0306213 80.38842573 21.6875 80.1328125 C21.6875 79.4728125 21.6875 78.8128125 21.6875 78.1328125 C11.04351593 77.16110047 2.47430633 76.44330113 -7.3125 81.1328125 Z M-11.3125 180.1328125 C-12.64380115 180.47417177 -13.97608148 180.81207206 -15.3125 181.1328125 C-15.3125 181.7928125 -15.3125 182.4528125 -15.3125 183.1328125 C-17.6225 183.4628125 -19.9325 183.7928125 -22.3125 184.1328125 C-22.3125 184.7928125 -22.3125 185.4528125 -22.3125 186.1328125 C-23.9625 186.4628125 -25.6125 186.7928125 -27.3125 187.1328125 C-27.3125 187.7928125 -27.3125 188.4528125 -27.3125 189.1328125 C-28.9625 189.4628125 -30.6125 189.7928125 -32.3125 190.1328125 C-32.3125 190.7928125 -32.3125 191.4528125 -32.3125 192.1328125 C-34.3125 193.1328125 -36.3125 194.1328125 -38.3125 195.1328125 C-38.3125 195.7928125 -38.3125 196.4528125 -38.3125 197.1328125 C-39.3025 197.4628125 -40.2925 197.7928125 -41.3125 198.1328125 C-41.3125 198.7928125 -41.3125 199.4528125 -41.3125 200.1328125 C-41.9725 200.1328125 -42.6325 200.1328125 -43.3125 200.1328125 C-45.71070305 202.76965997 -45.71070305 202.76965997 -46.3125 206.1328125 C-46.9725 206.1328125 -47.6325 206.1328125 -48.3125 206.1328125 C-51.50810041 210.19854811 -51.50810041 210.19854811 -52.3125 215.1328125 C-52.9725 215.1328125 -53.6325 215.1328125 -54.3125 215.1328125 C-54.8075 216.2053125 -55.3025 217.2778125 -55.8125 218.3828125 C-56.0909375 218.98609375 -56.369375 219.589375 -56.65625 220.2109375 C-57.52792924 222.42524086 -57.52792924 222.42524086 -57.3125 226.1328125 C-54.71262797 228.58986946 -54.71262797 228.58986946 -51.3125 229.1328125 C-51.3125 229.7928125 -51.3125 230.4528125 -51.3125 231.1328125 C-49.73175436 231.95033553 -48.14778777 232.76163247 -46.5625 233.5703125 C-45.23992187 234.24900391 -45.23992187 234.24900391 -43.890625 234.94140625 C-41.67051434 235.96736648 -39.69805381 236.64789853 -37.3125 237.1328125 C-37.3125 237.7928125 -37.3125 238.4528125 -37.3125 239.1328125 C-35.587273 239.80960908 -33.85711061 240.4738325 -32.125 241.1328125 C-30.68060547 241.6896875 -30.68060547 241.6896875 -29.20703125 242.2578125 C-26.39067642 243.10918022 -24.23085561 243.30353897 -21.3125 243.1328125 C-21.3125 243.7928125 -21.3125 244.4528125 -21.3125 245.1328125 C-20.45785156 245.26558594 -19.60320312 245.39835937 -18.72265625 245.53515625 C-17.06556641 245.80005859 -17.06556641 245.80005859 -15.375 246.0703125 C-14.27285156 246.24433594 -13.17070313 246.41835938 -12.03515625 246.59765625 C-9.3125 247.1328125 -9.3125 247.1328125 -8.3125 248.1328125 C6.25961068 249.84806939 22.57598753 250.42688849 36.6875 246.1328125 C38.68238234 245.77010662 40.6812811 245.42640551 42.6875 245.1328125 C42.6875 244.4728125 42.6875 243.8128125 42.6875 243.1328125 C43.8425 243.0296875 44.9975 242.9265625 46.1875 242.8203125 C50.69921519 242.27246137 54.49355749 240.8553246 58.6875 239.1328125 C58.6875 238.4728125 58.6875 237.8128125 58.6875 237.1328125 C59.5228125 236.9471875 59.5228125 236.9471875 60.375 236.7578125 C62.90864364 236.07304395 65.26671032 235.14147487 67.6875 234.1328125 C67.6875 233.4728125 67.6875 232.8128125 67.6875 232.1328125 C70.1625 231.6378125 70.1625 231.6378125 72.6875 231.1328125 C72.6875 230.4728125 72.6875 229.8128125 72.6875 229.1328125 C75.6875 227.6328125 75.6875 227.6328125 78.6875 226.1328125 C78.85437448 223.71635468 78.85437448 223.71635468 78.6875 221.1328125 C78.0275 220.4728125 77.3675 219.8128125 76.6875 219.1328125 C75.66984073 217.14174002 74.67172146 215.14062427 73.6875 213.1328125 C72.22638984 210.33383307 72.22638984 210.33383307 70.6875 208.1328125 C70.0275 208.1328125 69.3675 208.1328125 68.6875 208.1328125 C68.460625 207.4315625 68.23375 206.7303125 68 206.0078125 C66.34908712 202.39152715 64.3966165 200.04511274 61.6875 197.1328125 C61.0275 197.1328125 60.3675 197.1328125 59.6875 197.1328125 C59.6875 196.4728125 59.6875 195.8128125 59.6875 195.1328125 C57.05065253 192.73460945 57.05065253 192.73460945 53.6875 192.1328125 C53.6875 191.4728125 53.6875 190.8128125 53.6875 190.1328125 C51.04011084 188.672184 49.79301666 188.1328125 46.6875 188.1328125 C46.6875 187.4728125 46.6875 186.8128125 46.6875 186.1328125 C42.95784861 184.09845719 41.01844958 183.1328125 36.6875 183.1328125 C36.1925 182.1428125 36.1925 182.1428125 35.6875 181.1328125 C22.67737715 174.70464306 2.06503612 175.67363379 -11.3125 180.1328125 Z " fill="#000000" transform="translate(139.3125,11.8671875)"></path><path d="M0 0 C0.99 0 1.98 0 3 0 C4.37868281 1.62935241 5.71274093 3.29749607 7 5 C7.99 5.495 7.99 5.495 9 6 C9 6.66 9 7.32 9 8 C9.66 8 10.32 8 11 8 C12.33895632 9.66215268 13.67130142 11.32963607 15 13 C15.9075 13.721875 16.815 14.44375 17.75 15.1875 C18.4925 15.785625 19.235 16.38375 20 17 C20 17.66 20 18.32 20 19 C20.66 19 21.32 19 22 19 C23.33895632 20.66215268 24.67130142 22.32963607 26 24 C27.64295195 25.36244796 29.30824337 26.69864875 31 28 C32.8125 29.625 32.8125 29.625 34 31 C34 31.66 34 32.32 34 33 C34.66 33 35.32 33 36 33 C37.33895632 34.66215268 38.67130142 36.32963607 40 38 C40.9075 38.721875 41.815 39.44375 42.75 40.1875 C43.86375 41.0846875 43.86375 41.0846875 45 42 C45 42.66 45 43.32 45 44 C45.66 44 46.32 44 47 44 C48.33895632 45.66215268 49.67130142 47.32963607 51 49 C52.64295195 50.36244796 54.30824337 51.69864875 56 53 C57.8125 54.625 57.8125 54.625 59 56 C59 56.66 59 57.32 59 58 C59.66 58 60.32 58 61 58 C62.33895632 59.66215268 63.67130142 61.32963607 65 63 C65.9075 63.721875 66.815 64.44375 67.75 65.1875 C68.4925 65.785625 69.235 66.38375 70 67 C70 67.66 70 68.32 70 69 C70.66 69 71.32 69 72 69 C73.125 71.3125 73.125 71.3125 74 74 C73.34 74.99 72.68 75.98 72 77 C71.34 77 70.68 77 70 77 C70 77.66 70 78.32 70 79 C68.33784732 80.33895632 66.67036393 81.67130142 65 83 C64.278125 83.9075 63.55625 84.815 62.8125 85.75 C62.214375 86.4925 61.61625 87.235 61 88 C60.34 88 59.68 88 59 88 C59 88.66 59 89.32 59 90 C57.33784732 91.33895632 55.67036393 92.67130142 54 94 C52.63755204 95.64295195 51.30135125 97.30824337 50 99 C48.375 100.8125 48.375 100.8125 47 102 C46.34 102 45.68 102 45 102 C45 102.66 45 103.32 45 104 C43.33784732 105.33895632 41.67036393 106.67130142 40 108 C39.278125 108.9075 38.55625 109.815 37.8125 110.75 C37.214375 111.4925 36.61625 112.235 36 113 C35.34 113 34.68 113 34 113 C34 113.66 34 114.32 34 115 C32.33784732 116.33895632 30.67036393 117.67130142 29 119 C27.63755204 120.64295195 26.30135125 122.30824337 25 124 C23.375 125.8125 23.375 125.8125 22 127 C21.34 127 20.68 127 20 127 C20 127.66 20 128.32 20 129 C18.33784732 130.33895632 16.67036393 131.67130142 15 133 C14.278125 133.9075 13.55625 134.815 12.8125 135.75 C12.214375 136.4925 11.61625 137.235 11 138 C10.34 138 9.68 138 9 138 C9 138.66 9 139.32 9 140 C7.34997172 141.35386936 5.6825613 142.68678142 4 144 C3.67 144.66 3.34 145.32 3 146 C2.01 146 1.02 146 0 146 C0 145.34 0 144.68 0 144 C-0.639375 143.731875 -1.27875 143.46375 -1.9375 143.1875 C-4 142 -4 142 -5 139 C-5.99 138.67 -6.98 138.34 -8 138 C-8 137.34 -8 136.68 -8 136 C-8.99 135.67 -9.98 135.34 -11 135 C-11 134.34 -11 133.68 -11 133 C-11.66 133 -12.32 133 -13 133 C-13 132.34 -13 131.68 -13 131 C-13.99 130.67 -14.98 130.34 -16 130 C-16 129.34 -16 128.68 -16 128 C-16.66 128 -17.32 128 -18 128 C-18 125 -18 125 -16.4609375 123.421875 C-15.77257812 122.87015625 -15.08421875 122.3184375 -14.375 121.75 C-10.98703136 118.91969699 -8.11062124 115.99526043 -5.32421875 112.578125 C-3.95229092 110.94314316 -2.59532286 109.41996566 -1 108 C-0.34 108 0.32 108 1 108 C1 107.34 1 106.68 1 106 C2.66215268 104.66104368 4.32963607 103.32869858 6 102 C7.36244796 100.35704805 8.69864875 98.69175663 10 97 C11.625 95.1875 11.625 95.1875 13 94 C13.66 94 14.32 94 15 94 C15 93.34 15 92.68 15 92 C16.65002828 90.64613064 18.3174387 89.31321858 20 88 C20.33 87.34 20.66 86.68 21 86 C-17.61 86 -56.22 86 -96 86 C-96 77.42 -96 68.84 -96 60 C-57.39 60 -18.78 60 21 60 C16.71594832 55.10394093 13.50034905 51.45218814 8.69140625 47.50390625 C6.33373528 45.40759372 4.40942384 43.02313104 2.40625 40.59375 C0.49949192 38.43275751 -1.74243406 36.7822889 -4 35 C-4.61875 34.21625 -5.2375 33.4325 -5.875 32.625 C-8.19709533 29.7565293 -10.73301667 27.62224093 -13.609375 25.33203125 C-14.29773438 24.67267578 -14.29773438 24.67267578 -15 24 C-15 23.34 -15 22.68 -15 22 C-16.485 21.505 -16.485 21.505 -18 21 C-18 20.01 -18 19.02 -18 18 C-17.34 18 -16.68 18 -16 18 C-15.731875 17.360625 -15.46375 16.72125 -15.1875 16.0625 C-14 14 -14 14 -11 13 C-10.67 12.01 -10.34 11.02 -10 10 C-9.34 10 -8.68 10 -8 10 C-7.67 9.01 -7.34 8.02 -7 7 C-6.34 7 -5.68 7 -5 7 C-4.731875 6.360625 -4.46375 5.72125 -4.1875 5.0625 C-3 3 -3 3 0 2 C0 1.34 0 0.68 0 0 Z " fill="#000000" transform="translate(695,302)"></path><path d="M0 0 C2.6875 0.875 2.6875 0.875 5 2 C5 2.66 5 3.32 5 4 C5.66 4 6.32 4 7 4 C8.33895632 5.66215268 9.67130142 7.32963607 11 9 C11.9075 9.721875 12.815 10.44375 13.75 11.1875 C14.4925 11.785625 15.235 12.38375 16 13 C16 13.66 16 14.32 16 15 C16.66 15 17.32 15 18 15 C19.33895632 16.66215268 20.67130142 18.32963607 22 20 C23.64295195 21.36244796 25.30824337 22.69864875 27 24 C28.8125 25.625 28.8125 25.625 30 27 C30 27.66 30 28.32 30 29 C30.66 29 31.32 29 32 29 C33.33895632 30.66215268 34.67130142 32.32963607 36 34 C36.9075 34.721875 37.815 35.44375 38.75 36.1875 C39.4925 36.785625 40.235 37.38375 41 38 C41 38.66 41 39.32 41 40 C41.66 40 42.32 40 43 40 C44.33895632 41.66215268 45.67130142 43.32963607 47 45 C48.64295195 46.36244796 50.30824337 47.69864875 52 49 C53.8125 50.625 53.8125 50.625 55 52 C55 52.66 55 53.32 55 54 C55.66 54 56.32 54 57 54 C58.33895632 55.66215268 59.67130142 57.32963607 61 59 C61.9075 59.721875 62.815 60.44375 63.75 61.1875 C64.86375 62.0846875 64.86375 62.0846875 66 63 C66 63.66 66 64.32 66 65 C66.66 65 67.32 65 68 65 C69.35386936 66.65002828 70.68678142 68.3174387 72 70 C72.66 70.33 73.32 70.66 74 71 C74 71.99 74 72.98 74 74 C73.34 74 72.68 74 72 74 C71.731875 74.639375 71.46375 75.27875 71.1875 75.9375 C70 78 70 78 67 79 C66.67 79.99 66.34 80.98 66 82 C65.34 82 64.68 82 64 82 C63.62875 82.86625 63.62875 82.86625 63.25 83.75 C61.81700012 86.32939979 60.21575324 88.06121592 58 90 C57.34 90 56.68 90 56 90 C56 90.66 56 91.32 56 92 C54.02 91.505 54.02 91.505 52 91 C52 90.34 52 89.68 52 89 C51.34 89 50.68 89 50 89 C48.375 87.625 48.375 87.625 47 86 C47 85.34 47 84.68 47 84 C46.34 84 45.68 84 45 84 C43.66104368 82.33784732 42.32869858 80.67036393 41 79 C40.21625 78.38125 39.4325 77.7625 38.625 77.125 C36.40020026 75.32397164 34.80915052 73.68025831 33 71.5 C31.22905551 69.36763827 29.68323681 67.74658945 27.5 66 C24.79131393 63.83305115 22.78372096 61.47965121 20.625 58.78125 C18.59455039 56.46263352 18.59455039 56.46263352 14 53 C14 87.32 14 121.64 14 157 C5.42 157 -3.16 157 -12 157 C-12 122.68 -12 88.36 -12 53 C-16.81375192 56.27828869 -16.81375192 56.27828869 -18 59 C-18.66 59 -19.32 59 -20 59 C-20 59.66 -20 60.32 -20 61 C-21.66215268 62.33895632 -23.32963607 63.67130142 -25 65 C-26.36244796 66.64295195 -27.69864875 68.30824337 -29 70 C-30.625 71.8125 -30.625 71.8125 -32 73 C-32.66 73 -33.32 73 -34 73 C-34 73.66 -34 74.32 -34 75 C-35.66215268 76.33895632 -37.32963607 77.67130142 -39 79 C-39.721875 79.9075 -40.44375 80.815 -41.1875 81.75 C-41.785625 82.4925 -42.38375 83.235 -43 84 C-43.66 84 -44.32 84 -45 84 C-45 84.66 -45 85.32 -45 86 C-46.65002828 87.35386936 -48.3174387 88.68678142 -50 90 C-50.33 90.66 -50.66 91.32 -51 92 C-51.99 92 -52.98 92 -54 92 C-54 91.34 -54 90.68 -54 90 C-54.66 90 -55.32 90 -56 90 C-56 89.34 -56 88.68 -56 88 C-56.99 87.67 -57.98 87.34 -59 87 C-59 86.34 -59 85.68 -59 85 C-59.99 84.67 -60.98 84.34 -62 84 C-62 83.34 -62 82.68 -62 82 C-62.99 81.67 -63.98 81.34 -65 81 C-65 80.34 -65 79.68 -65 79 C-65.639375 78.731875 -66.27875 78.46375 -66.9375 78.1875 C-69 77 -69 77 -70 74 C-70.66 74 -71.32 74 -72 74 C-72 73.01 -72 72.02 -72 71 C-70.37064759 69.62131719 -68.70250393 68.28725907 -67 67 C-66.505 66.01 -66.505 66.01 -66 65 C-65.34 65 -64.68 65 -64 65 C-64 64.34 -64 63.68 -64 63 C-62.33784732 61.66104368 -60.67036393 60.32869858 -59 59 C-58.278125 58.0925 -57.55625 57.185 -56.8125 56.25 C-56.214375 55.5075 -55.61625 54.765 -55 54 C-54.34 54 -53.68 54 -53 54 C-53 53.34 -53 52.68 -53 52 C-51.33784732 50.66104368 -49.67036393 49.32869858 -48 48 C-47.071875 46.824375 -47.071875 46.824375 -46.125 45.625 C-44.32397164 43.40020026 -42.68025831 41.80915052 -40.5 40 C-37.58513618 37.57717516 -35.29440426 35.03189135 -33 32 C-31.375 30.1875 -31.375 30.1875 -30 29 C-29.34 29 -28.68 29 -28 29 C-28 28.34 -28 27.68 -28 27 C-26.33784732 25.66104368 -24.67036393 24.32869858 -23 23 C-21.63755204 21.35704805 -20.30135125 19.69175663 -19 18 C-17.375 16.1875 -17.375 16.1875 -16 15 C-15.34 15 -14.68 15 -14 15 C-14 14.34 -14 13.68 -14 13 C-12.33784732 11.66104368 -10.67036393 10.32869858 -9 9 C-8.278125 8.0925 -7.55625 7.185 -6.8125 6.25 C-6.214375 5.5075 -5.61625 4.765 -5 4 C-4.34 4 -3.68 4 -3 4 C-3 3.34 -3 2.68 -3 2 C-2.01 1.34 -1.02 0.68 0 0 Z " fill="#000000" transform="translate(399,31)"></path><path d="M0 0 C0.99 0 1.98 0 3 0 C3 0.66 3 1.32 3 2 C3.639375 2.268125 4.27875 2.53625 4.9375 2.8125 C7 4 7 4 8 7 C8.99 7.33 9.98 7.66 11 8 C11 8.66 11 9.32 11 10 C11.99 10.33 12.98 10.66 14 11 C14 11.66 14 12.32 14 13 C14.639375 13.268125 15.27875 13.53625 15.9375 13.8125 C18 15 18 15 19 18 C19.66 18 20.32 18 21 18 C21 18.99 21 19.98 21 21 C19.37064759 22.37868281 17.70250393 23.71274093 16 25 C15.67 25.66 15.34 26.32 15 27 C14.34 27 13.68 27 13 27 C13 27.66 13 28.32 13 29 C11.33784732 30.33895632 9.67036393 31.67130142 8 33 C7.278125 33.9075 6.55625 34.815 5.8125 35.75 C5.214375 36.4925 4.61625 37.235 4 38 C3.34 38 2.68 38 2 38 C2 38.66 2 39.32 2 40 C0.33784732 41.33895632 -1.32963607 42.67130142 -3 44 C-4.36244796 45.64295195 -5.69864875 47.30824337 -7 49 C-8.625 50.8125 -8.625 50.8125 -10 52 C-10.66 52 -11.32 52 -12 52 C-12 52.66 -12 53.32 -12 54 C-13.65002828 55.35386936 -15.3174387 56.68678142 -17 58 C-17.495 58.99 -17.495 58.99 -18 60 C12.36 60 42.72 60 74 60 C74 68.58 74 77.16 74 86 C43.64 86 13.28 86 -18 86 C-14.72171131 90.81375192 -14.72171131 90.81375192 -12 92 C-12 92.66 -12 93.32 -12 94 C-11.34 94 -10.68 94 -10 94 C-8.66104368 95.66215268 -7.32869858 97.32963607 -6 99 C-4.35704805 100.36244796 -2.69175663 101.69864875 -1 103 C0.8125 104.625 0.8125 104.625 2 106 C2 106.66 2 107.32 2 108 C2.66 108 3.32 108 4 108 C5.33895632 109.66215268 6.67130142 111.32963607 8 113 C8.9075 113.721875 9.815 114.44375 10.75 115.1875 C11.4925 115.785625 12.235 116.38375 13 117 C13 117.66 13 118.32 13 119 C13.66 119 14.32 119 15 119 C16.35386936 120.65002828 17.68678142 122.3174387 19 124 C19.66 124.33 20.32 124.66 21 125 C21 125.99 21 126.98 21 128 C20.34 128 19.68 128 19 128 C18.731875 128.639375 18.46375 129.27875 18.1875 129.9375 C17 132 17 132 14 133 C13.5359375 133.9590625 13.5359375 133.9590625 13.0625 134.9375 C11.74215782 137.50051718 10.5185326 137.7407337 8 139 C7.31731862 140.32520503 6.6492959 141.65812182 6 143 C5.01 143.33 4.02 143.66 3 144 C3 144.66 3 145.32 3 146 C0 146 0 146 -1.4296875 144.609375 C-1.90664062 143.99578125 -2.38359375 143.3821875 -2.875 142.75 C-5.34067648 139.71062652 -7.92271281 137.42943725 -11 135 C-11.61875 134.21625 -12.2375 133.4325 -12.875 132.625 C-14.67602836 130.40020026 -16.31974169 128.80915052 -18.5 127 C-21.42120792 124.57601896 -23.64442272 121.98373122 -26 119 C-26.9075 118.278125 -27.815 117.55625 -28.75 116.8125 C-29.4925 116.214375 -30.235 115.61625 -31 115 C-31 114.34 -31 113.68 -31 113 C-31.66 113 -32.32 113 -33 113 C-34.36176922 111.35648543 -35.68962066 109.68477344 -37 108 C-39.4155178 105.46060949 -41.79899388 103.15688282 -44.5625 101 C-47 99 -47 99 -48.875 96.625 C-50.67602836 94.40020026 -52.31974169 92.80915052 -54.5 91 C-57.42120792 88.57601896 -59.64442272 85.98373122 -62 83 C-63.36125 81.9171875 -63.36125 81.9171875 -64.75 80.8125 C-65.4925 80.214375 -66.235 79.61625 -67 79 C-67 78.34 -67 77.68 -67 77 C-67.66 77 -68.32 77 -69 77 C-69.875 74.4375 -69.875 74.4375 -70 71 C-67.2599444 66.44955052 -63.15960856 63.20884089 -59 60 C-58.67 59.34 -58.34 58.68 -58 58 C-57.34 58 -56.68 58 -56 58 C-56 57.34 -56 56.68 -56 56 C-54.33784732 54.66104368 -52.67036393 53.32869858 -51 52 C-49.63755204 50.35704805 -48.30135125 48.69175663 -47 47 C-45.375 45.1875 -45.375 45.1875 -44 44 C-43.34 44 -42.68 44 -42 44 C-42 43.34 -42 42.68 -42 42 C-40.33784732 40.66104368 -38.67036393 39.32869858 -37 38 C-36.278125 37.0925 -35.55625 36.185 -34.8125 35.25 C-34.214375 34.5075 -33.61625 33.765 -33 33 C-32.34 33 -31.68 33 -31 33 C-31 32.34 -31 31.68 -31 31 C-29.33784732 29.66104368 -27.67036393 28.32869858 -26 27 C-25.38125 26.21625 -24.7625 25.4325 -24.125 24.625 C-22.32397164 22.40020026 -20.68025831 20.80915052 -18.5 19 C-15.58513618 16.57717516 -13.29440426 14.03189135 -11 11 C-9.375 9.1875 -9.375 9.1875 -8 8 C-7.34 8 -6.68 8 -6 8 C-6 7.34 -6 6.68 -6 6 C-4.34997172 4.64613064 -2.6825613 3.31321858 -1 2 C-0.67 1.34 -0.34 0.68 0 0 Z " fill="#000000" transform="translate(102,302)"></path><path d="M0 0 C8.91 0 17.82 0 27 0 C27 8.58 27 17.16 27 26 C18.09 26 9.18 26 0 26 C0 17.42 0 8.84 0 0 Z " fill="#000000" transform="translate(549,512)"></path><path d="M0 0 C8.91 0 17.82 0 27 0 C27 8.58 27 17.16 27 26 C18.09 26 9.18 26 0 26 C0 17.42 0 8.84 0 0 Z " fill="#000000" transform="translate(499,512)"></path><path d="M0 0 C8.91 0 17.82 0 27 0 C27 8.58 27 17.16 27 26 C18.09 26 9.18 26 0 26 C0 17.42 0 8.84 0 0 Z " fill="#000000" transform="translate(399,512)"></path><path d="M0 0 C8.91 0 17.82 0 27 0 C27 8.58 27 17.16 27 26 C18.09 26 9.18 26 0 26 C0 17.42 0 8.84 0 0 Z " fill="#000000" transform="translate(299,512)"></path><path d="M0 0 C8.91 0 17.82 0 27 0 C27 8.58 27 17.16 27 26 C18.09 26 9.18 26 0 26 C0 17.42 0 8.84 0 0 Z " fill="#000000" transform="translate(249,512)"></path><path d="M0 0 C8.91 0 17.82 0 27 0 C27 8.58 27 17.16 27 26 C18.09 26 9.18 26 0 26 C0 17.42 0 8.84 0 0 Z " fill="#000000" transform="translate(549,462)"></path><path d="M0 0 C8.91 0 17.82 0 27 0 C27 8.58 27 17.16 27 26 C18.09 26 9.18 26 0 26 C0 17.42 0 8.84 0 0 Z " fill="#000000" transform="translate(499,462)"></path><path d="M0 0 C8.91 0 17.82 0 27 0 C27 8.58 27 17.16 27 26 C18.09 26 9.18 26 0 26 C0 17.42 0 8.84 0 0 Z " fill="#000000" transform="translate(399,462)"></path><path d="M0 0 C8.91 0 17.82 0 27 0 C27 8.58 27 17.16 27 26 C18.09 26 9.18 26 0 26 C0 17.42 0 8.84 0 0 Z " fill="#000000" transform="translate(299,462)"></path><path d="M0 0 C8.91 0 17.82 0 27 0 C27 8.58 27 17.16 27 26 C18.09 26 9.18 26 0 26 C0 17.42 0 8.84 0 0 Z " fill="#000000" transform="translate(249,462)"></path><path d="M0 0 C8.91 0 17.82 0 27 0 C27 8.58 27 17.16 27 26 C18.09 26 9.18 26 0 26 C0 17.42 0 8.84 0 0 Z " fill="#000000" transform="translate(399,412)"></path><path d="M0 0 C8.91 0 17.82 0 27 0 C27 8.58 27 17.16 27 26 C18.09 26 9.18 26 0 26 C0 17.42 0 8.84 0 0 Z " fill="#000000" transform="translate(299,412)"></path><path d="M0 0 C8.91 0 17.82 0 27 0 C27 8.58 27 17.16 27 26 C18.09 26 9.18 26 0 26 C0 17.42 0 8.84 0 0 Z " fill="#000000" transform="translate(249,412)"></path><path d="M0 0 C8.91 0 17.82 0 27 0 C27 8.58 27 17.16 27 26 C18.09 26 9.18 26 0 26 C0 17.42 0 8.84 0 0 Z " fill="#000000" transform="translate(449,362)"></path><path d="M0 0 C8.91 0 17.82 0 27 0 C27 8.58 27 17.16 27 26 C18.09 26 9.18 26 0 26 C0 17.42 0 8.84 0 0 Z " fill="#000000" transform="translate(399,362)"></path><path d="M0 0 C8.91 0 17.82 0 27 0 C27 8.58 27 17.16 27 26 C18.09 26 9.18 26 0 26 C0 17.42 0 8.84 0 0 Z " fill="#000000" transform="translate(449,312)"></path><path d="M0 0 C8.91 0 17.82 0 27 0 C27 8.58 27 17.16 27 26 C18.09 26 9.18 26 0 26 C0 17.42 0 8.84 0 0 Z " fill="#000000" transform="translate(399,312)"></path><path d="M0 0 C8.91 0 17.82 0 27 0 C27 8.58 27 17.16 27 26 C18.09 26 9.18 26 0 26 C0 17.42 0 8.84 0 0 Z " fill="#000000" transform="translate(349,312)"></path><path d="M0 0 C8.58 0 17.16 0 26 0 C26 8.58 26 17.16 26 26 C17.42 26 8.84 26 0 26 C0 17.42 0 8.84 0 0 Z " fill="#000000" transform="translate(387,212)"></path></svg>