<svg xmlns="http://www.w3.org/2000/svg" width="512" height="512"><path d="M0 0 C47.52 0 95.04 0 144 0 C144 31.68 144 63.36 144 96 C165.12 96 186.24 96 208 96 C208 127.68 208 159.36 208 192 C235.06 192 262.12 192 290 192 C272.52383994 226.95232012 250.19126227 258.88304464 219 283 C218.40703125 283.4640625 217.8140625 283.928125 217.203125 284.40625 C207.86313855 291.69599552 198.34947431 298.23420895 188 304 C187.24686523 304.42635742 186.49373047 304.85271484 185.71777344 305.29199219 C152.73199503 323.8339777 114.39573081 336.00427081 76.3046875 336.203125 C75.40282211 336.21018463 74.50095673 336.21724426 73.57176208 336.22451782 C35.64489268 336.45396145 35.64489268 336.45396145 19 333 C17.50944092 332.69400879 17.50944092 332.69400879 15.98876953 332.38183594 C-23.78628114 323.97011982 -60.36827716 307.63194828 -92 282 C-92.54978516 281.55462891 -93.09957031 281.10925781 -93.66601562 280.65039062 C-107.34194669 269.46672843 -120.32099916 257.10803781 -131 243 C-131.41523926 242.46117187 -131.83047852 241.92234375 -132.25830078 241.3671875 C-162 202.68020871 -162 202.68020871 -162 192 C-129.66 192 -97.32 192 -64 192 C-64 149.76 -64 107.52 -64 64 C-42.88 64 -21.76 64 0 64 C0 42.88 0 21.76 0 0 Z M16 16 C16 31.84 16 47.68 16 64 C26.56 64 37.12 64 48 64 C48 106.24 48 148.48 48 192 C63.84 192 79.68 192 96 192 C96 160.32 96 128.64 96 96 C106.56 96 117.12 96 128 96 C128 69.6 128 43.2 128 16 C91.04 16 54.08 16 16 16 Z M-48 80 C-48 116.96 -48 153.92 -48 192 C-21.6 192 4.8 192 32 192 C32 155.04 32 118.08 32 80 C5.6 80 -20.8 80 -48 80 Z M112 112 C112 138.4 112 164.8 112 192 C138.4 192 164.8 192 192 192 C192 165.6 192 139.2 192 112 C165.6 112 139.2 112 112 112 Z M-133 208 C-131.10445281 212.73886797 -128.99285432 216.29415383 -126.125 220.4375 C-125.6395874 221.13979736 -125.1541748 221.84209473 -124.65405273 222.56567383 C-120.15273466 228.96637952 -115.31695481 235.11686917 -109.9238739 240.79542542 C-108 243 -108 243 -105.80607605 246.16723633 C-101.87301738 251.53029183 -98.10324613 255.98595789 -91.29176331 257.14729309 C-85.61377215 257.66713001 -79.95550887 257.46487594 -74.265625 257.26953125 C-72.17533115 257.24524373 -70.0849626 257.22675804 -67.99456787 257.21379089 C-62.52798277 257.16446845 -57.06598505 257.03707101 -51.60119629 256.89263916 C-46.01080376 256.75895276 -40.41965981 256.70013226 -34.828125 256.63476562 C-23.88341568 256.49590401 -12.9420912 256.27443787 -2 256 C-2.25692627 254.97229492 -2.51385254 253.94458984 -2.77856445 252.88574219 C-8.38928223 230.44287109 -8.38928223 230.44287109 -14 208 C-53.27 208 -92.54 208 -133 208 Z M4 208 C4.61888839 213.5699955 5.16774942 218.30669649 6.48828125 223.6171875 C6.93010742 225.39416016 6.93010742 225.39416016 7.38085938 227.20703125 C7.68830078 228.41746094 7.99574219 229.62789062 8.3125 230.875 C8.60833984 232.07769531 8.90417969 233.28039062 9.20898438 234.51953125 C9.50740234 235.70675781 9.80582031 236.89398438 10.11328125 238.1171875 C10.37923096 239.17534668 10.64518066 240.23350586 10.91918945 241.32373047 C12.37939748 246.29048277 14.23081244 251.1347342 16 256 C47.68 256 79.36 256 112 256 C117.19977394 240.44514492 117.19977394 240.44514492 121.375 224.6875 C121.63410156 223.61822266 121.89320313 222.54894531 122.16015625 221.44726562 C123.27328212 216.73856653 124 212.88808069 124 208 C84.4 208 44.8 208 4 208 Z M142 208 C140.68 213.28 139.36 218.56 138 224 C135.33333333 234.66666667 132.66666667 245.33333333 130 256 C142.13498094 256.16231855 154.26970288 256.2866348 166.40554905 256.3626852 C172.04102026 256.39918934 177.6757478 256.44868922 183.31079102 256.52807617 C188.7508517 256.604235 194.19019794 256.6460115 199.63075066 256.6641407 C201.70443912 256.67705698 203.77808925 256.70228048 205.85147285 256.7401104 C208.76064086 256.79106994 211.66687221 256.79791799 214.57641602 256.79467773 C215.43021851 256.81984467 216.284021 256.8450116 217.16369629 256.87094116 C221.96513585 256.81322785 224.42108428 256.09855691 227.885849 252.67689514 C228.94526602 251.46968465 229.9838422 250.24384281 231 249 C232.08111567 247.78968208 233.16419777 246.58111528 234.25 245.375 C234.82878906 244.69953125 235.40757812 244.0240625 236.00390625 243.328125 C237.4729761 241.61468932 238.96316323 239.91930338 240.46484375 238.234375 C246.04050223 231.90879198 251.00126147 225.32613685 255.6875 218.3125 C256.21690186 217.52182129 256.74630371 216.73114258 257.29174805 215.91650391 C260.00662274 212.2469131 260.00662274 212.2469131 261 208 C221.73 208 182.46 208 142 208 Z M-75 272 C-50.40217996 296.59782004 -7.44550717 313.51510204 27 316 C26.5875 315.36835938 26.175 314.73671875 25.75 314.0859375 C16.94677925 300.44880536 10.38536223 287.16523531 4 272 C-22.07 272 -48.14 272 -75 272 Z M22 272 C27.3215512 284.77172288 32.87431884 296.53783464 42 307 C42.55300781 307.63550781 43.10601562 308.27101563 43.67578125 308.92578125 C49.42098196 315.09361741 55.33879872 319.20244506 63.9375 319.6875 C73.07740292 319.25779681 79.84259311 313.98812669 85.9375 307.5 C92.75975866 299.23059557 106 283.12320474 106 272 C78.28 272 50.56 272 22 272 Z M124 272 C121.03 278.93 118.06 285.86 115 293 C112.07695669 298.1153258 109.18043524 303.06632677 106 308 C104.97740225 309.64473764 103.95620768 311.29035012 102.9375 312.9375 C102.298125 313.948125 101.65875 314.95875 101 316 C108.20732213 315.49446271 114.96324434 314.23902616 121.9375 312.375 C122.94184082 312.10703613 123.94618164 311.83907227 124.98095703 311.56298828 C153.48293758 303.76429792 180.28687402 290.64480634 204 273 C204 272.67 204 272.34 204 272 C177.6 272 151.2 272 124 272 Z " fill="#000000" transform="translate(192,168)"></path><path d="M0 0 C0.85207031 0.48339844 1.70414063 0.96679688 2.58203125 1.46484375 C22.60759293 13.91316588 35.36357223 34.4224447 41 57 C46.50508718 80.91304043 40.73201134 104.44719923 28.2421875 124.875 C15.05083347 144.5086432 -4.06596882 157.46958649 -27 163 C-42.70028418 165.93904974 -59.90931085 165.28521832 -75 160 C-76.03640625 159.649375 -77.0728125 159.29875 -78.140625 158.9375 C-101.48819588 150.13632145 -118.01426408 132.39066308 -128.15869141 109.98681641 C-136.31343344 90.7287518 -137.61499084 65.63306297 -130 46 C-127.65159027 40.48946572 -124.95462244 35.20791795 -122 30 C-121.51660156 29.14792969 -121.03320312 28.29585937 -120.53515625 27.41796875 C-108.08683412 7.39240707 -87.5775553 -5.36357223 -65 -11 C-42.31331267 -16.22276504 -19.78055435 -11.22215638 0 0 Z M-97.25 25.6875 C-106.82090829 35.77196922 -112.33274421 46.67345441 -116 60 C-116.17740723 60.62084473 -116.35481445 61.24168945 -116.53759766 61.88134766 C-120.84567283 81.62024753 -114.97866292 100.20593906 -105 117 C-104.01 117 -103.02 117 -102 117 C-100.57924995 115.30467077 -100.57924995 115.30467077 -99.3125 113.0625 C-93.87683134 104.57592908 -88.16205811 98.61367004 -79.41796875 93.5078125 C-77.26599711 92.16587219 -75.68805104 90.87311976 -74 89 C-74.38671875 88.5153125 -74.7734375 88.030625 -75.171875 87.53125 C-84.22886595 75.8737369 -86.16972043 65.61170325 -85 51 C-83.0256307 40.91406524 -77.28566137 33.18213686 -69.125 27.125 C-58.28881717 20.15426149 -46.28673148 19.14926348 -33.70703125 21.65625 C-22.0519326 25.47004815 -14.66575806 33.46548169 -8.90234375 44.0078125 C-5.22795073 52.72381455 -5.32902319 65.76403471 -8.625 74.5625 C-10.60205669 78.6730711 -13.13443317 82.41602147 -15.828125 86.08984375 C-17.26146494 88.05269131 -17.26146494 88.05269131 -17 91 C-15.07095964 92.42478716 -15.07095964 92.42478716 -12.5625 93.6875 C-3.97899119 98.6218052 2.1009092 104.50550521 7.4921875 112.80078125 C8.85428865 114.78747282 10.23764938 116.36956185 12 118 C23.26507212 100.5023622 28.04651481 82.25778456 24.58105469 61.48925781 C23.490306 56.80045503 21.87291627 52.42877439 20 48 C19.61585938 47.0615625 19.23171875 46.123125 18.8359375 45.15625 C15.88990288 38.6629492 11.69507022 33.32562411 7 28 C6.32066406 27.22527344 5.64132812 26.45054688 4.94140625 25.65234375 C-8.44871654 11.32859772 -25.95757839 5.68985728 -45 4 C-65.35312953 4 -82.50864088 11.87598046 -97.25 25.6875 Z M-65.7734375 47.15625 C-69.70554427 53.06693278 -69.69863277 59.12115424 -69 66 C-67.22657567 72.64472914 -62.5533353 77.17367959 -57 81 C-51.00112996 83.94062257 -44.1171647 84.09883788 -37.6875 82.3828125 C-31.55867139 79.67750925 -26.76047208 74.59136305 -23.828125 68.609375 C-21.92194143 62.60309848 -21.93561313 55.49708442 -24.5 49.6875 C-27.98037258 43.75476525 -33.4356193 39.06836256 -40 37 C-51.72394962 35.57391138 -58.30742361 38.31382015 -65.7734375 47.15625 Z M-82.38671875 116.97265625 C-85.51790991 120.90749454 -88.37014071 125.22736272 -90 130 C-89.0115496 133.69828381 -86.83357849 135.06323328 -83.625 136.9375 C-66.52260241 146.69970672 -46.64778038 150.83781164 -27.2644043 145.56225586 C-18.84465031 142.86730271 -8.00360172 138.76173573 -2 132 C-4.75616281 121.25096503 -12.63335567 112.59649725 -21.8125 106.75 C-42.41156653 95.23422887 -66.30039689 100.04170651 -82.38671875 116.97265625 Z " fill="#000000" transform="translate(462,20)"></path><path d="M0 0 C0.85207031 0.48339844 1.70414063 0.96679688 2.58203125 1.46484375 C22.60759293 13.91316588 35.36357223 34.4224447 41 57 C46.50508718 80.91304043 40.73201134 104.44719923 28.2421875 124.875 C15.05083347 144.5086432 -4.06596882 157.46958649 -27 163 C-42.70028418 165.93904974 -59.90931085 165.28521832 -75 160 C-76.03640625 159.649375 -77.0728125 159.29875 -78.140625 158.9375 C-101.48819588 150.13632145 -118.01426408 132.39066308 -128.15869141 109.98681641 C-136.31343344 90.7287518 -137.61499084 65.63306297 -130 46 C-127.65159027 40.48946572 -124.95462244 35.20791795 -122 30 C-121.51660156 29.14792969 -121.03320312 28.29585937 -120.53515625 27.41796875 C-108.08683412 7.39240707 -87.5775553 -5.36357223 -65 -11 C-42.31331267 -16.22276504 -19.78055435 -11.22215638 0 0 Z M-97.25 25.6875 C-106.82090829 35.77196922 -112.33274421 46.67345441 -116 60 C-116.17740723 60.62084473 -116.35481445 61.24168945 -116.53759766 61.88134766 C-120.84567283 81.62024753 -114.97866292 100.20593906 -105 117 C-104.01 117 -103.02 117 -102 117 C-100.57924995 115.30467077 -100.57924995 115.30467077 -99.3125 113.0625 C-93.87683134 104.57592908 -88.16205811 98.61367004 -79.41796875 93.5078125 C-77.26599711 92.16587219 -75.68805104 90.87311976 -74 89 C-74.38671875 88.5153125 -74.7734375 88.030625 -75.171875 87.53125 C-84.22886595 75.8737369 -86.16972043 65.61170325 -85 51 C-83.0256307 40.91406524 -77.28566137 33.18213686 -69.125 27.125 C-58.28881717 20.15426149 -46.28673148 19.14926348 -33.70703125 21.65625 C-22.0519326 25.47004815 -14.66575806 33.46548169 -8.90234375 44.0078125 C-5.22795073 52.72381455 -5.32902319 65.76403471 -8.625 74.5625 C-10.60205669 78.6730711 -13.13443317 82.41602147 -15.828125 86.08984375 C-17.26146494 88.05269131 -17.26146494 88.05269131 -17 91 C-15.07095964 92.42478716 -15.07095964 92.42478716 -12.5625 93.6875 C-3.97899119 98.6218052 2.1009092 104.50550521 7.4921875 112.80078125 C8.85428865 114.78747282 10.23764938 116.36956185 12 118 C23.26507212 100.5023622 28.04651481 82.25778456 24.58105469 61.48925781 C23.490306 56.80045503 21.87291627 52.42877439 20 48 C19.61585938 47.0615625 19.23171875 46.123125 18.8359375 45.15625 C15.88990288 38.6629492 11.69507022 33.32562411 7 28 C6.32066406 27.22527344 5.64132813 26.45054688 4.94140625 25.65234375 C-8.44871654 11.32859772 -25.95757839 5.68985728 -45 4 C-65.35312953 4 -82.50864088 11.87598046 -97.25 25.6875 Z M-65.7734375 47.15625 C-69.70554427 53.06693278 -69.69863277 59.12115424 -69 66 C-67.22657567 72.64472914 -62.5533353 77.17367959 -57 81 C-51.00112996 83.94062257 -44.1171647 84.09883788 -37.6875 82.3828125 C-31.55867139 79.67750925 -26.76047208 74.59136305 -23.828125 68.609375 C-21.92194143 62.60309848 -21.93561313 55.49708442 -24.5 49.6875 C-27.98037258 43.75476525 -33.4356193 39.06836256 -40 37 C-51.72394962 35.57391138 -58.30742361 38.31382015 -65.7734375 47.15625 Z M-82.38671875 116.97265625 C-85.51790991 120.90749454 -88.37014071 125.22736272 -90 130 C-89.0115496 133.69828381 -86.83357849 135.06323328 -83.625 136.9375 C-66.52260241 146.69970672 -46.64778038 150.83781164 -27.2644043 145.56225586 C-18.84465031 142.86730271 -8.00360172 138.76173573 -2 132 C-4.75616281 121.25096503 -12.63335567 112.59649725 -21.8125 106.75 C-42.41156653 95.23422887 -66.30039689 100.04170651 -82.38671875 116.97265625 Z " fill="#000000" transform="translate(142,20)"></path><path d="M0 0 C3.48972003 1.49530324 5.73465395 3.49191662 8.40136719 6.17431641 C9.2619574 7.03505768 10.12254761 7.89579895 11.00921631 8.78262329 C11.92914368 9.71287323 12.84907104 10.64312317 13.796875 11.6015625 C14.75479097 12.56321086 15.71315114 13.52441694 16.67193604 14.48519897 C19.18835125 17.00923282 21.69870107 19.53921591 24.20782471 22.07049561 C26.77162441 24.6547919 29.34112918 27.23340199 31.91015625 29.8125 C36.94569457 34.86945697 41.9748456 39.93272256 47 45 C45.50469676 48.48972003 43.50808338 50.73465395 40.82568359 53.40136719 C39.96494232 54.2619574 39.10420105 55.12254761 38.21737671 56.00921631 C37.28712677 56.92914368 36.35687683 57.84907104 35.3984375 58.796875 C34.43678914 59.75479097 33.47558306 60.71315114 32.51480103 61.67193604 C29.99076718 64.18835125 27.46078409 66.69870107 24.92950439 69.20782471 C22.3452081 71.77162441 19.76659801 74.34112918 17.1875 76.91015625 C12.13054303 81.94569457 7.06727744 86.9748456 2 92 C-1.63303084 90.30413874 -3.94549046 88.26199512 -6.75 85.375 C-7.54921875 84.55773437 -8.3484375 83.74046875 -9.171875 82.8984375 C-9.77515625 82.27195312 -10.3784375 81.64546875 -11 81 C-5.72532255 70.4506451 4.66000266 63.33999734 13 55 C-23.63 54.505 -23.63 54.505 -61 54 C-61 48.72 -61 43.44 -61 38 C-36.58 37.67 -12.16 37.34 13 37 C5.08 29.08 -2.84 21.16 -11 13 C-9.07859132 9.15718264 -7.4073184 7.19568073 -4.375 4.25 C-3.55773437 3.45078125 -2.74046875 2.6515625 -1.8984375 1.828125 C-1.27195312 1.22484375 -0.64546875 0.6215625 0 0 Z " fill="#000000" transform="translate(445,194)"></path><path d="M0 0 C3.48972003 1.49530324 5.73465395 3.49191662 8.40136719 6.17431641 C9.2619574 7.03505768 10.12254761 7.89579895 11.00921631 8.78262329 C11.92914368 9.71287323 12.84907104 10.64312317 13.796875 11.6015625 C14.75479097 12.56321086 15.71315114 13.52441694 16.67193604 14.48519897 C19.18835125 17.00923282 21.69870107 19.53921591 24.20782471 22.07049561 C26.77162441 24.6547919 29.34112918 27.23340199 31.91015625 29.8125 C36.94569457 34.86945697 41.9748456 39.93272256 47 45 C45.30413874 48.63303084 43.26199512 50.94549046 40.375 53.75 C39.55773437 54.54921875 38.74046875 55.3484375 37.8984375 56.171875 C37.27195312 56.77515625 36.64546875 57.3784375 36 58 C25.4506451 52.72532255 18.33999734 42.33999734 10 34 C9.67 55.78 9.34 77.56 9 100 C3.72 100 -1.56 100 -7 100 C-7.33 78.22 -7.66 56.44 -8 34 C-15.92 41.92 -23.84 49.84 -32 58 C-35.84281736 56.07859132 -37.80431927 54.4073184 -40.75 51.375 C-41.54921875 50.55773437 -42.3484375 49.74046875 -43.171875 48.8984375 C-43.77515625 48.27195313 -44.3784375 47.64546875 -45 47 C-43.50469676 43.51027997 -41.50808338 41.26534605 -38.82568359 38.59863281 C-37.96494232 37.7380426 -37.10420105 36.87745239 -36.21737671 35.99078369 C-35.28712677 35.07085632 -34.35687683 34.15092896 -33.3984375 33.203125 C-32.43678914 32.24520903 -31.47558306 31.28684886 -30.51480103 30.32806396 C-27.99076718 27.81164875 -25.46078409 25.30129893 -22.92950439 22.79217529 C-20.3452081 20.22837559 -17.76659801 17.65887082 -15.1875 15.08984375 C-10.13054303 10.05430543 -5.06727744 5.0251544 0 0 Z " fill="#000000" transform="translate(255,20)"></path><path d="M0 0 C3.63303084 1.69586126 5.94549046 3.73800488 8.75 6.625 C9.54921875 7.44226563 10.3484375 8.25953125 11.171875 9.1015625 C11.77515625 9.72804687 12.3784375 10.35453125 13 11 C11.4152642 14.86328627 8.94043113 17.28876923 5.9921875 20.203125 C5.1038623 21.08645508 4.21553711 21.96978516 3.30029297 22.87988281 C2.16994629 23.99202148 1.03959961 25.10416016 -0.125 26.25 C-3.71375 29.7975 -7.3025 33.345 -11 37 C8.14 37.33 27.28 37.66 47 38 C47 43.28 47 48.56 47 54 C18.29 54.495 18.29 54.495 -11 55 C-3.08 62.92 4.84 70.84 13 79 C11.07859132 82.84281736 9.4073184 84.80431927 6.375 87.75 C5.55773437 88.54921875 4.74046875 89.3484375 3.8984375 90.171875 C3.27195313 90.77515625 2.64546875 91.3784375 2 92 C-1.48972003 90.50469676 -3.73465395 88.50808338 -6.40136719 85.82568359 C-7.2619574 84.96494232 -8.12254761 84.10420105 -9.00921631 83.21737671 C-9.92914368 82.28712677 -10.84907104 81.35687683 -11.796875 80.3984375 C-12.75479097 79.43678914 -13.71315114 78.47558306 -14.67193604 77.51480103 C-17.18835125 74.99076718 -19.69870107 72.46078409 -22.20782471 69.92950439 C-24.77162441 67.3452081 -27.34112918 64.76659801 -29.91015625 62.1875 C-34.94569457 57.13054303 -39.9748456 52.06727744 -45 47 C-43.50469676 43.51027997 -41.50808338 41.26534605 -38.82568359 38.59863281 C-37.96494232 37.7380426 -37.10420105 36.87745239 -36.21737671 35.99078369 C-35.28712677 35.07085632 -34.35687683 34.15092896 -33.3984375 33.203125 C-32.43678914 32.24520903 -31.47558306 31.28684886 -30.51480103 30.32806396 C-27.99076718 27.81164875 -25.46078409 25.30129893 -22.92950439 22.79217529 C-20.3452081 20.22837559 -17.76659801 17.65887082 -15.1875 15.08984375 C-10.13054303 10.05430543 -5.06727744 5.0251544 0 0 Z " fill="#000000" transform="translate(65,194)"></path><path d="M0 0 C5.28 0 10.56 0 16 0 C16 5.28 16 10.56 16 16 C10.72 16 5.44 16 0 16 C0 10.72 0 5.44 0 0 Z " fill="#000000" transform="translate(352,328)"></path><path d="M0 0 C5.28 0 10.56 0 16 0 C16 5.28 16 10.56 16 16 C10.72 16 5.44 16 0 16 C0 10.72 0 5.44 0 0 Z " fill="#000000" transform="translate(320,328)"></path><path d="M0 0 C5.28 0 10.56 0 16 0 C16 5.28 16 10.56 16 16 C10.72 16 5.44 16 0 16 C0 10.72 0 5.44 0 0 Z " fill="#000000" transform="translate(256,328)"></path><path d="M0 0 C5.28 0 10.56 0 16 0 C16 5.28 16 10.56 16 16 C10.72 16 5.44 16 0 16 C0 10.72 0 5.44 0 0 Z " fill="#000000" transform="translate(192,328)"></path><path d="M0 0 C5.28 0 10.56 0 16 0 C16 5.28 16 10.56 16 16 C10.72 16 5.44 16 0 16 C0 10.72 0 5.44 0 0 Z " fill="#000000" transform="translate(160,328)"></path><path d="M0 0 C5.28 0 10.56 0 16 0 C16 5.28 16 10.56 16 16 C10.72 16 5.44 16 0 16 C0 10.72 0 5.44 0 0 Z " fill="#000000" transform="translate(352,296)"></path><path d="M0 0 C5.28 0 10.56 0 16 0 C16 5.28 16 10.56 16 16 C10.72 16 5.44 16 0 16 C0 10.72 0 5.44 0 0 Z " fill="#000000" transform="translate(320,296)"></path><path d="M0 0 C5.28 0 10.56 0 16 0 C16 5.28 16 10.56 16 16 C10.72 16 5.44 16 0 16 C0 10.72 0 5.44 0 0 Z " fill="#000000" transform="translate(256,296)"></path><path d="M0 0 C5.28 0 10.56 0 16 0 C16 5.28 16 10.56 16 16 C10.72 16 5.44 16 0 16 C0 10.72 0 5.44 0 0 Z " fill="#000000" transform="translate(192,296)"></path><path d="M0 0 C5.28 0 10.56 0 16 0 C16 5.28 16 10.56 16 16 C10.72 16 5.44 16 0 16 C0 10.72 0 5.44 0 0 Z " fill="#000000" transform="translate(160,296)"></path><path d="M0 0 C5.28 0 10.56 0 16 0 C16 5.28 16 10.56 16 16 C10.72 16 5.44 16 0 16 C0 10.72 0 5.44 0 0 Z " fill="#000000" transform="translate(256,264)"></path><path d="M0 0 C5.28 0 10.56 0 16 0 C16 5.28 16 10.56 16 16 C10.72 16 5.44 16 0 16 C0 10.72 0 5.44 0 0 Z " fill="#000000" transform="translate(192,264)"></path><path d="M0 0 C5.28 0 10.56 0 16 0 C16 5.28 16 10.56 16 16 C10.72 16 5.44 16 0 16 C0 10.72 0 5.44 0 0 Z " fill="#000000" transform="translate(160,264)"></path><path d="M0 0 C5.28 0 10.56 0 16 0 C16 5.28 16 10.56 16 16 C10.72 16 5.44 16 0 16 C0 10.72 0 5.44 0 0 Z " fill="#000000" transform="translate(288,232)"></path><path d="M0 0 C5.28 0 10.56 0 16 0 C16 5.28 16 10.56 16 16 C10.72 16 5.44 16 0 16 C0 10.72 0 5.44 0 0 Z " fill="#000000" transform="translate(256,232)"></path><path d="M0 0 C5.28 0 10.56 0 16 0 C16 5.28 16 10.56 16 16 C10.72 16 5.44 16 0 16 C0 10.72 0 5.44 0 0 Z " fill="#000000" transform="translate(288,200)"></path><path d="M0 0 C5.28 0 10.56 0 16 0 C16 5.28 16 10.56 16 16 C10.72 16 5.44 16 0 16 C0 10.72 0 5.44 0 0 Z " fill="#000000" transform="translate(256,200)"></path><path d="M0 0 C5.28 0 10.56 0 16 0 C16 5.28 16 10.56 16 16 C10.72 16 5.44 16 0 16 C0 10.72 0 5.44 0 0 Z " fill="#000000" transform="translate(224,200)"></path><path d="M0 0 C5.28 0 10.56 0 16 0 C16 5.28 16 10.56 16 16 C10.72 16 5.44 16 0 16 C0 10.72 0 5.44 0 0 Z " fill="#000000" transform="translate(248,136)"></path></svg>