<svg xmlns="http://www.w3.org/2000/svg" width="512" height="512"><path d="M0 0 C10.07826978 7.46034084 15.89275097 16.9263773 18.2265625 29.23828125 C18.88287718 37.02267184 18.26844808 43.74864496 16.2265625 51.23828125 C17.61101562 50.54605469 17.61101562 50.54605469 19.0234375 49.83984375 C19.6419458 49.53062988 20.2604541 49.22141602 20.89770508 48.90283203 C22.3117344 48.19573434 23.72562913 47.48836744 25.1394043 46.78076172 C29.11462638 44.79165478 33.09218308 42.80746616 37.07421875 40.83203125 C45.46639766 36.66251509 53.81893072 32.43442376 62.1015625 28.05078125 C73.40639772 22.07531846 73.40639772 22.07531846 79.1015625 19.17578125 C80.70644531 18.35400391 80.70644531 18.35400391 82.34375 17.515625 C89.95432704 14.14345875 97.44945069 14.49265575 105.125 17.328125 C112.99973847 20.73856006 117.8425745 26.45510884 121.2265625 34.23828125 C123.48202374 41.74597042 122.95596569 49.65772037 119.64372253 56.7416687 C115.32296568 64.35355128 108.37837149 68.74782383 100.70703125 72.48046875 C99.8089827 72.93374542 98.91093414 73.38702209 97.985672 73.85403442 C95.13566338 75.28871669 92.27551655 76.70158856 89.4140625 78.11328125 C87.53896473 79.05058681 85.66460955 79.98937949 83.79101562 80.9296875 C81.00244215 82.32895739 78.21344803 83.72726779 75.42158508 85.1199646 C66.28148051 89.68494961 57.24378114 94.43604357 48.2265625 99.23828125 C46.62760132 100.0893042 46.62760132 100.0893042 44.99633789 100.95751953 C43.65430298 101.67270752 43.65430298 101.67270752 42.28515625 102.40234375 C41.49818359 102.82128906 40.71121094 103.24023438 39.90039062 103.671875 C38.34156735 104.5023398 36.78439898 105.33591522 35.22851562 106.171875 C34.46345703 106.57792969 33.69839844 106.98398438 32.91015625 107.40234375 C32.24556396 107.7576416 31.58097168 108.11293945 30.89624023 108.47900391 C29.2265625 109.23828125 29.2265625 109.23828125 27.2265625 109.23828125 C27.2265625 166.65828125 27.2265625 224.07828125 27.2265625 283.23828125 C32.8365625 283.23828125 38.4465625 283.23828125 44.2265625 283.23828125 C56.07836137 286.35717569 65.78752781 292.63763127 72.2265625 303.23828125 C75.29373392 309.34872406 77.82899291 315.3470751 78.2265625 322.23828125 C78.3090625 323.43453125 78.3915625 324.63078125 78.4765625 325.86328125 C78.24254505 336.86210139 74.59037778 345.43628132 68.2265625 354.23828125 C67.5665625 355.22828125 66.9065625 356.21828125 66.2265625 357.23828125 C67.34224609 357.62886719 67.34224609 357.62886719 68.48046875 358.02734375 C77.29493374 361.91423443 81.71608027 370.73538311 85.2265625 379.23828125 C86.55348886 383.18602017 86.38909019 387.22297179 86.40356445 391.33984375 C86.41013565 392.15330261 86.41670685 392.96676147 86.42347717 393.80487061 C86.44315514 396.49100847 86.45485731 399.17709071 86.46484375 401.86328125 C86.46891928 402.78135559 86.4729948 403.69942993 86.47719383 404.64532471 C86.49802596 409.49987563 86.51234291 414.35439847 86.52172852 419.20898438 C86.53281793 424.22628326 86.56725493 429.24314169 86.60690022 434.26028442 C86.633009 438.11727741 86.64141497 441.9741642 86.64500999 445.83123779 C86.6498868 447.68124382 86.66153181 449.53124476 86.68004799 451.38116455 C86.7043293 453.9667089 86.7034955 456.55109592 86.6965332 459.13671875 C86.71574829 460.28391388 86.71574829 460.28391388 86.73535156 461.45428467 C86.70352279 464.69274102 86.42328478 466.90621704 84.76091003 469.71228027 C80.96399481 471.99850829 77.56367199 471.79695831 73.20703125 471.75585938 C71.8405394 471.76637329 71.8405394 471.76637329 70.44644165 471.77709961 C67.43533847 471.79470377 64.42517523 471.78304814 61.4140625 471.76953125 C59.32185689 471.77222546 57.22965249 471.77610729 55.13745117 471.78112793 C50.75264566 471.78702627 46.36816607 471.77844904 41.98339844 471.75976562 C36.36069292 471.7369761 30.7387511 471.75009735 25.11607361 471.77405548 C20.79579913 471.78850426 16.47570594 471.78391165 12.15542603 471.77354431 C10.08216258 471.77087449 8.00888271 471.77415573 5.93563843 471.78346252 C3.03867954 471.79361279 0.14296022 471.77814814 -2.75390625 471.75585938 C-3.61221039 471.7639563 -4.47051453 471.77205322 -5.35482788 471.78039551 C-11.17134422 471.69741778 -11.17134422 471.69741778 -14.2746582 469.33093262 C-17.0264064 465.4888395 -16.92749795 462.41403005 -16.93457031 457.82617188 C-16.93953522 457.0616571 -16.94450012 456.29714233 -16.94961548 455.50946045 C-16.96425975 452.97114162 -16.97104572 450.43288545 -16.9765625 447.89453125 C-16.98231568 446.12772622 -16.98807339 444.36092121 -16.99383545 442.59411621 C-17.00435432 438.8817516 -17.01019 435.16940868 -17.01367188 431.45703125 C-17.01913373 426.72058866 -17.04310819 421.98443687 -17.07164383 417.24808502 C-17.09036091 413.59329421 -17.09548079 409.93857185 -17.09700775 406.28373718 C-17.10001851 404.5391838 -17.10799322 402.79463117 -17.12119293 401.05012512 C-17.20030345 389.78276416 -16.96908202 379.62668624 -10.7734375 369.80078125 C-10.0309375 368.59615234 -10.0309375 368.59615234 -9.2734375 367.3671875 C-7.7734375 365.23828125 -7.7734375 365.23828125 -4.7734375 362.23828125 C-23.5834375 362.23828125 -42.3934375 362.23828125 -61.7734375 362.23828125 C-59.7934375 364.54828125 -57.8134375 366.85828125 -55.7734375 369.23828125 C-51.30404083 377.05972542 -49.46740171 384.40016296 -49.4987793 393.41088867 C-49.4911129 394.57102226 -49.4911129 394.57102226 -49.48329163 395.7545929 C-49.4695091 398.28439288 -49.47034282 400.81391719 -49.47265625 403.34375 C-49.46876496 405.11395874 -49.4644294 406.88416655 -49.45967102 408.65437317 C-49.45223465 412.35188842 -49.45248266 416.04930811 -49.45776367 419.74682617 C-49.46357518 424.48137107 -49.44657442 429.2155269 -49.423419 433.95000744 C-49.40868512 437.60030903 -49.40780913 441.25051661 -49.41092873 444.90084267 C-49.41041601 446.6467294 -49.40518755 448.39262147 -49.39511681 450.13847923 C-49.38276717 452.57719681 -49.38953323 455.01515188 -49.40112305 457.45385742 C-49.39347931 458.17137177 -49.38583557 458.88888611 -49.37796021 459.62814331 C-49.42377748 463.99440129 -50.09286333 466.76403792 -52.7734375 470.23828125 C-56.11867488 471.91089994 -59.88630397 471.40385144 -63.56591797 471.4152832 C-64.47662048 471.4218544 -65.387323 471.4284256 -66.32562256 471.43519592 C-69.34729081 471.45494975 -72.36890936 471.46659514 -75.390625 471.4765625 C-76.93597616 471.48267579 -76.93597616 471.48267579 -78.51254654 471.48891258 C-83.96360322 471.50978057 -89.41463465 471.52408007 -94.86572266 471.53344727 C-100.50409335 471.54452322 -106.14207064 471.57893484 -111.78030205 471.61861897 C-116.10910797 471.64472447 -120.43781921 471.65313362 -124.76669693 471.65672874 C-126.84556872 471.66160912 -128.92443588 471.6732641 -131.00323105 471.69176674 C-133.90986363 471.71603283 -136.81546578 471.71521628 -139.72216797 471.70825195 C-141.01433731 471.72746704 -141.01433731 471.72746704 -142.33261108 471.74707031 C-145.96020039 471.71532729 -148.15754714 471.60922715 -151.30580139 469.71305847 C-153.359325 466.25033811 -153.34041724 463.08516148 -153.30688477 459.171875 C-153.31550034 458.36151291 -153.32411591 457.55115082 -153.33299255 456.7162323 C-153.35569999 454.03575704 -153.34889969 451.35632441 -153.33984375 448.67578125 C-153.34508108 446.80452159 -153.35135796 444.93326458 -153.35862732 443.06201172 C-153.36904325 439.13447685 -153.36445876 435.2073039 -153.34985352 431.27978516 C-153.33275391 426.2742547 -153.35604466 421.26988167 -153.39134312 416.26448059 C-153.41344286 412.39508618 -153.4118439 408.52596262 -153.4035778 404.65652466 C-153.4027634 402.81314839 -153.409528 400.96975119 -153.42434883 399.12643433 C-153.51969454 385.10842289 -151.93806283 372.86939904 -141.7734375 362.23828125 C-135.92991672 357.23828125 -135.92991672 357.23828125 -132.7734375 357.23828125 C-133.69576172 355.94857422 -133.69576172 355.94857422 -134.63671875 354.6328125 C-142.51549864 343.25667839 -146.3179978 332.11977816 -144.33984375 318.18359375 C-142.0219935 305.94649617 -135.97599065 296.44393677 -125.7734375 289.23828125 C-116.34184603 283.52393217 -105.52192633 281.32753923 -94.5859375 282.80078125 C-88.7734375 284.23828125 -88.7734375 284.23828125 -77.7734375 289.23828125 C-77.7734375 252.27828125 -77.7734375 215.31828125 -77.7734375 177.23828125 C-80.0834375 184.49828125 -82.3934375 191.75828125 -84.7734375 199.23828125 C-91.54571473 209.39669709 -91.54571473 209.39669709 -95.3984375 211.73828125 C-96.13320312 212.20234375 -96.86796875 212.66640625 -97.625 213.14453125 C-104.39406152 216.59059893 -113.62136636 216.55665957 -120.73828125 214.296875 C-128.17751584 210.72827976 -134.58400293 205.29942779 -137.46484375 197.32421875 C-139.88449312 188.55933502 -138.31066784 181.6113496 -135.80859375 173.05078125 C-135.49989853 171.96728897 -135.19120331 170.88379669 -134.87315369 169.76747131 C-133.86995805 166.25502489 -132.85354249 162.7465777 -131.8359375 159.23828125 C-131.14197489 156.82626397 -130.44861736 154.41407252 -129.75585938 152.00170898 C-128.38860043 147.24450849 -127.0161949 142.48883116 -125.64111328 137.73388672 C-124.06665758 132.27699683 -122.53193777 126.81028781 -121.01953125 121.3359375 C-120.62741176 119.93148974 -120.23477778 118.5271855 -119.84155273 117.12304688 C-119.16045402 114.68572539 -118.48842342 112.24583892 -117.82836914 109.80273438 C-112.78676549 92.02409952 -103.80966759 78.01274531 -87.7734375 68.23828125 C-79.16062416 63.68900983 -70.29024134 61.83741632 -60.7734375 60.23828125 C-61.11117187 59.68140625 -61.44890625 59.12453125 -61.796875 58.55078125 C-67.93640923 48.04614464 -69.3398527 37.88330689 -67.15625 25.83203125 C-63.6879902 12.9411541 -56.21490133 3.95461016 -44.7734375 -2.76171875 C-30.7651538 -10.44017239 -13.1355547 -8.34385235 0 0 Z M-45.58984375 21.36328125 C-49.49974471 27.55718375 -50.94914587 33.95328455 -49.7734375 41.23828125 C-46.54044568 50.37846801 -41.30949292 55.89265304 -32.7734375 60.23828125 C-26.00248107 62.85929664 -19.40624893 61.22727877 -13.03125 58.4296875 C-6.55368853 55.0115971 -2.0577367 48.09117885 0.2265625 41.23828125 C0.99489393 32.91961595 -0.23909871 26.25030872 -5.3359375 19.55078125 C-10.6620499 13.84516698 -16.99681802 10.98312048 -24.7734375 10.61328125 C-33.31923407 11.01970088 -40.38610677 14.52324171 -45.58984375 21.36328125 Z M69.92578125 44.2109375 C63.39004994 47.69596223 56.80874085 51.09215095 50.2265625 54.48828125 C47.74726755 55.7679808 45.26811077 57.04794765 42.7890625 58.328125 C42.16896805 58.64828583 41.5488736 58.96844666 40.9099884 59.29830933 C36.44805197 61.6034585 31.99238771 63.9204531 27.5390625 66.2421875 C25.69389636 67.20309649 23.84865998 68.16387049 22.00341797 69.12463379 C20.26575209 70.03035453 18.52934529 70.93848957 16.79296875 71.84667969 C15.73980469 72.39485352 14.68664062 72.94302734 13.6015625 73.5078125 C12.68117187 73.98839111 11.76078125 74.46896973 10.8125 74.96411133 C5.83982047 77.41430151 2.18083848 78.48898286 -3.42456055 78.50952148 C-4.39642555 78.5173616 -4.39642555 78.5173616 -5.38792419 78.52536011 C-6.78851096 78.53556318 -8.18913524 78.54137405 -9.58975792 78.5432415 C-11.8152087 78.54692474 -14.04022154 78.56370681 -16.26557922 78.58399963 C-22.59062502 78.63920613 -28.9157358 78.66997521 -35.2409668 78.69458008 C-39.11779497 78.71056506 -42.99431427 78.74090104 -46.87098122 78.77934456 C-48.3391673 78.79090347 -49.8074089 78.7969241 -51.27564049 78.79702568 C-65.78625903 78.79839298 -77.482553 81.41435236 -88.5234375 91.36328125 C-96.66358894 100.32212609 -99.65512413 112.48123459 -102.8828125 123.84375 C-103.33933861 125.41956668 -103.79681601 126.99510804 -104.25518799 128.57038879 C-105.20658978 131.84858274 -106.15057551 135.12877913 -107.08837891 138.41088867 C-108.28427068 142.59615273 -109.49266476 146.77766686 -110.70586777 150.95794201 C-111.8730622 154.9812115 -113.03460784 159.00610423 -114.1953125 163.03125 C-114.52247883 164.16387803 -114.52247883 164.16387803 -114.85625458 165.31938744 C-119.4840734 178.09984921 -119.4840734 178.09984921 -120.1484375 191.05078125 C-118.49089343 193.68778319 -117.33727026 195.41661061 -114.7734375 197.23828125 C-110.66151952 197.92413762 -110.66151952 197.92413762 -106.7734375 197.23828125 C-101.43163408 193.03271929 -99.99988901 188.17550611 -98.0390625 181.8125 C-97.70336243 180.76543381 -97.36766235 179.71836761 -97.02178955 178.63957214 C-95.91950337 175.17827138 -94.84345467 171.70968617 -93.7734375 168.23828125 C-93.40259033 167.0406012 -93.03174316 165.84292114 -92.6496582 164.60894775 C-89.50778646 154.44227741 -86.39403703 144.26666383 -83.32617188 134.07739258 C-82.54241887 131.47550505 -81.7527318 128.87556455 -80.95635986 126.2775116 C-80.21711044 123.86516078 -79.48646011 121.45015243 -78.76580811 119.03218079 C-78.43155823 117.94881943 -78.09730835 116.86545807 -77.75292969 115.74926758 C-77.46617371 114.80239578 -77.17941772 113.85552399 -76.88397217 112.87995911 C-75.60157475 109.82946373 -73.99754197 107.6775281 -71.7734375 105.23828125 C-69.7734375 104.609375 -69.7734375 104.609375 -67.7734375 104.67578125 C-67.1134375 104.67449219 -66.4534375 104.67320312 -65.7734375 104.671875 C-62.74029394 105.53087074 -61.68061596 106.711849 -59.7734375 109.23828125 C-59.17542595 112.22163034 -59.24257011 115.16655939 -59.27896118 118.2006073 C-59.27413235 119.11647419 -59.26930352 120.03234108 -59.26432836 120.97596151 C-59.25303552 124.05221489 -59.27039366 127.12764105 -59.28759766 130.20385742 C-59.28545226 132.40656764 -59.28157527 134.60927676 -59.27609253 136.8119812 C-59.26638259 142.80193807 -59.28172552 148.79159776 -59.30199862 154.7815187 C-59.31955031 161.0487038 -59.31604483 167.31587944 -59.3152771 173.58308411 C-59.31715157 184.11411296 -59.3344232 194.64503922 -59.36181641 205.17602539 C-59.38995773 216.00026538 -59.40415938 226.82440456 -59.40283203 237.64868164 C-59.40271216 238.64758336 -59.40271216 238.64758336 -59.40258987 239.66666492 C-59.40246881 240.66386933 -59.40246881 240.66386933 -59.4023453 241.68121928 C-59.40089307 254.63685689 -59.41488932 267.5924481 -59.43323851 280.54807115 C-59.43749707 284.27867903 -59.43892034 288.00927905 -59.43971634 291.73988914 C-59.44172988 297.61102648 -59.45397766 303.48205836 -59.47404861 309.35316086 C-59.4798764 311.50536643 -59.48235386 313.65758414 -59.48119354 315.80979729 C-59.48020729 318.75365491 -59.49157086 321.69722023 -59.50601196 324.64103699 C-59.50291476 325.4875563 -59.49981755 326.33407562 -59.4966265 327.20624703 C-59.50307539 328.00546368 -59.50952428 328.80468032 -59.51616859 329.62811565 C-59.51757744 330.30602647 -59.51898629 330.9839373 -59.52043784 331.68239087 C-59.90702162 335.58779435 -60.92209604 339.4072447 -61.7734375 343.23828125 C-52.5334375 343.23828125 -43.2934375 343.23828125 -33.7734375 343.23828125 C-33.7734375 295.05828125 -33.7734375 246.87828125 -33.7734375 197.23828125 C-27.8334375 197.23828125 -21.8934375 197.23828125 -15.7734375 197.23828125 C-15.7734375 245.41828125 -15.7734375 293.59828125 -15.7734375 343.23828125 C-12.1434375 343.23828125 -8.5134375 343.23828125 -4.7734375 343.23828125 C-5.1034375 342.10390625 -5.4334375 340.96953125 -5.7734375 339.80078125 C-8.7507758 326.14385993 -7.39562204 313.32262934 0.1015625 301.42578125 C1.48207132 299.3865725 2.80702485 297.59639235 4.68496931 295.99340689 C7.88308116 293.21685862 9.11278665 291.80660537 9.96929359 287.52824974 C9.99641077 286.11661354 9.99098998 284.7041093 9.95913696 283.29257202 C9.9655248 282.51030923 9.97191264 281.72804645 9.97849405 280.92207873 C9.99268346 278.3097293 9.96427228 275.69961141 9.93603516 273.08740234 C9.93765736 271.21125383 9.94197244 269.335106 9.94877625 267.45896912 C9.95778973 263.42366057 9.9480758 259.38898551 9.92387772 255.35374069 C9.88604119 248.97548571 9.89163554 242.59772002 9.90341187 236.21939087 C9.92025626 223.8354498 9.89216036 211.45180325 9.85999298 199.06790924 C9.82150712 183.29723836 9.80536797 167.52661498 9.82519758 151.75590765 C9.83173884 145.41274122 9.81739522 139.07006196 9.78674722 132.72697043 C9.77141586 128.78582219 9.77231894 124.84479687 9.77749062 120.9036274 C9.77642697 119.07341965 9.76844667 117.24320117 9.7531147 115.41305733 C9.73309721 112.91832477 9.73749186 110.4247865 9.74795532 107.93002319 C9.73017562 106.83888263 9.73017562 106.83888263 9.71203673 105.72569883 C9.75154999 102.31064383 9.97517766 100.55668835 12.120718 97.83912086 C14.27284491 96.20309788 16.32760086 94.96740108 18.76171875 93.79296875 C19.64255127 93.36161621 20.52338379 92.93026367 21.4309082 92.48583984 C22.37409912 92.03289551 23.31729004 91.57995117 24.2890625 91.11328125 C26.30548779 90.12532965 28.32110153 89.13572009 30.3359375 88.14453125 C31.84124023 87.40589844 31.84124023 87.40589844 33.37695312 86.65234375 C37.30030739 84.7054565 41.17327714 82.67155549 45.0390625 80.61328125 C51.11068925 77.38576052 57.20809125 74.21265945 63.328125 71.078125 C64.05092148 70.70753967 64.77371796 70.33695435 65.51841736 69.95513916 C68.44595989 68.45439434 71.37349211 66.95368011 74.30459595 65.4598999 C90.06723174 58.5244352 90.06723174 58.5244352 103.2265625 48.23828125 C104.20600717 44.46042323 104.58249597 42.15952083 103.1640625 38.48828125 C100.79934911 35.74216248 98.56727593 34.58878242 95.2265625 33.23828125 C86.75517534 33.23828125 77.22797916 40.31486113 69.92578125 44.2109375 Z M-121.2109375 309.48828125 C-125.60430507 315.21334947 -127.63855951 322.07012745 -126.7734375 329.23828125 C-124.83507784 337.83167572 -121.23765157 343.45322866 -113.7734375 348.23828125 C-107.52089745 351.2273482 -101.49076849 352.02067774 -94.7734375 350.23828125 C-86.92258816 347.36152599 -82.04188446 342.40317435 -77.7734375 335.23828125 C-75.65450027 328.50006085 -75.84560414 321.41379474 -78.7734375 314.98828125 C-82.41668887 308.48838961 -87.60734881 303.5208132 -94.7734375 301.23828125 C-105.14618883 299.94678534 -113.8608278 301.75985708 -121.2109375 309.48828125 Z M15.8515625 309.61328125 C10.61544153 315.94796094 9.7593243 321.15086609 9.91015625 329.265625 C10.63994251 336.12201201 14.05444876 340.8050409 19.2265625 345.23828125 C24.98644703 349.71819144 30.45686871 351.6262889 37.7265625 351.11328125 C45.4927094 349.92567459 50.82909361 346.53202413 55.74609375 340.43359375 C59.92041194 334.24370768 60.83265164 328.2998995 59.85546875 320.9453125 C58.13437553 313.53712864 54.42745249 308.77358848 48.2890625 304.4296875 C36.71382102 297.74323172 24.67924675 300.24867166 15.8515625 309.61328125 Z M-129.7734375 376.23828125 C-135.75774056 383.80512416 -135.43128587 391.80635409 -135.26171875 400.9921875 C-135.25435149 402.33328205 -135.24926037 403.67439107 -135.24645996 405.01550293 C-135.22042862 409.94415075 -135.15062226 414.87248917 -135.0859375 419.80078125 C-134.9828125 430.83515625 -134.8796875 441.86953125 -134.7734375 453.23828125 C-112.6634375 453.23828125 -90.5534375 453.23828125 -67.7734375 453.23828125 C-67.6909375 442.71953125 -67.6084375 432.20078125 -67.5234375 421.36328125 C-67.48702148 418.06086426 -67.45060547 414.75844727 -67.41308594 411.35595703 C-67.40139477 408.71517587 -67.39120396 406.07438746 -67.3828125 403.43359375 C-67.36713226 402.42412186 -67.36713226 402.42412186 -67.35113525 401.39425659 C-67.2190953 392.43373838 -67.19471751 383.38994002 -73.465271 376.33474731 C-79.11496063 370.98729789 -85.2646783 368.86133506 -92.95703125 368.83984375 C-93.61623062 368.83697357 -94.27542999 368.83410339 -94.9546051 368.83114624 C-96.33864204 368.82911931 -97.72270853 368.83455251 -99.10668945 368.84716797 C-101.20265062 368.86321779 -103.29667654 368.84728809 -105.39257812 368.828125 C-114.65117535 368.81393896 -122.95040931 369.2308469 -129.7734375 376.23828125 Z M7.88671875 375.16796875 C7.35949219 375.80992187 6.83226562 376.451875 6.2890625 377.11328125 C5.74378906 377.75007813 5.19851562 378.386875 4.63671875 379.04296875 C1.57647148 383.80712101 0.97815307 388.40342003 0.99951172 393.97802734 C0.99927065 394.63295481 0.99902958 395.28788227 0.9987812 395.96265602 C1.00026256 398.06248648 1.0154403 400.16195261 1.03125 402.26171875 C1.03326416 403.55311768 1.03527832 404.8445166 1.03735352 406.17504883 C1.04779829 410.98782923 1.07572085 415.8005589 1.1015625 420.61328125 C1.1428125 431.37953125 1.1840625 442.14578125 1.2265625 453.23828125 C23.3365625 453.23828125 45.4465625 453.23828125 68.2265625 453.23828125 C68.319375 436.87234375 68.319375 436.87234375 68.4140625 420.17578125 C68.44137451 416.74163818 68.46868652 413.30749512 68.49682617 409.76928711 C68.50559031 407.03890332 68.51323442 404.3085156 68.51953125 401.578125 C68.52737137 400.87579239 68.53521149 400.17345978 68.54328918 399.44984436 C68.56542601 397.36080222 68.56827475 395.27249242 68.56713867 393.18334961 C68.57380051 392.00864609 68.58046234 390.83394257 68.58732605 389.62364197 C67.9459558 383.60510254 65.46991091 378.59950044 61.2265625 374.23828125 C53.4690888 368.8551745 46.29247757 368.99455771 37.17456055 368.94311523 C35.75974498 368.93163108 34.34497152 368.91123564 32.93041992 368.8815918 C23.40319564 368.68224952 15.49264702 368.89530003 7.88671875 375.16796875 Z " fill="#000000" transform="translate(152.7734375,40.76171875)"></path><path d="M0 0 C0.85435733 -0.00581376 1.70871466 -0.01162753 2.5889616 -0.01761746 C5.4714958 -0.03229516 8.35318882 -0.0182961 11.23571777 -0.00457001 C13.31522306 -0.00917585 15.3947251 -0.01552662 17.47422028 -0.02347898 C23.20394158 -0.04023891 28.93339777 -0.03189569 34.66312027 -0.01953411 C40.83634525 -0.01051315 47.00952346 -0.02443864 53.18273926 -0.0354538 C64.582214 -0.0522443 75.98158018 -0.05074445 87.38105226 -0.03980792 C97.91114844 -0.02975478 108.44121348 -0.02711464 118.97131348 -0.0318985 C119.6691768 -0.03220404 120.36704012 -0.03250958 121.08605081 -0.03282438 C123.91874205 -0.03406969 126.75143327 -0.03534328 129.58412448 -0.03666343 C156.16940655 -0.04890576 182.75463452 -0.03779558 209.33990824 -0.01627585 C232.9712227 0.00270729 256.60245094 0.00100881 280.23376465 -0.01811981 C306.76970493 -0.0395277 333.30559739 -0.04803762 359.8415451 -0.03567076 C362.66914367 -0.03438784 365.49674224 -0.03313649 368.32434082 -0.0318985 C369.02059297 -0.03158219 369.71684512 -0.03126588 370.43419582 -0.03093999 C380.95895126 -0.02638569 391.48367219 -0.03171938 402.00842285 -0.04181671 C413.97280025 -0.05323781 425.93707578 -0.05004233 437.9014492 -0.02869374 C444.01023517 -0.01815415 450.1188458 -0.01411096 456.22763062 -0.02729034 C461.81361349 -0.03915988 467.39925757 -0.03274183 472.98520947 -0.01138014 C475.01206214 -0.00689092 477.03894311 -0.00923186 479.06577778 -0.01888329 C481.80948366 -0.03095183 484.5520112 -0.01867005 487.2956543 0 C488.49106228 -0.014047 488.49106228 -0.014047 489.71061993 -0.02837777 C493.20552414 0.01953832 495.26585821 0.22843226 498.13820308 2.29587889 C500.45769642 5.68761623 500.20241966 9.11692419 500.16249084 13.0817337 C500.16943637 13.95620934 500.1763819 14.83068499 500.1835379 15.73165989 C500.20186251 18.66753817 500.19152845 21.60261338 500.18127441 24.53852081 C500.18833008 26.64097449 500.1970736 28.74342309 500.2073822 30.84586334 C500.22992424 36.56067174 500.22692535 42.27520384 500.21806073 47.99003983 C500.21295876 52.75674231 500.22023689 57.52339251 500.2275328 62.29008961 C500.24454679 73.53212599 500.24095042 84.77402667 500.22424316 96.01605988 C500.20731463 107.62461157 500.22316328 119.23278745 500.25546604 130.8412981 C500.28213027 140.79977361 500.28944667 150.75813189 500.28095096 160.71663952 C500.27601321 166.66810381 500.27828344 172.61934184 500.29873848 178.57077789 C500.31704611 184.16544201 500.31119693 189.75956378 500.28653908 195.35419846 C500.28151582 197.41014203 500.28505996 199.46612658 500.29768753 201.52203751 C500.31353705 204.32365353 500.2987443 207.12346581 500.27601624 209.92499542 C500.29376983 211.15242006 500.29376983 211.15242006 500.31188208 212.40464115 C500.25385368 215.91260684 499.91994105 218.11672434 497.88406754 221.00944901 C492.76644636 223.37184888 487.80928301 223.03866206 482.23979187 222.98438263 C480.96553496 222.98780033 479.69127805 222.99121803 478.3784073 222.99473929 C474.84363243 223.00368352 471.30934234 222.98768378 467.77462924 222.96762705 C463.9621391 222.95035822 460.14967645 222.95619834 456.3371582 222.95923615 C449.7324545 222.96133387 443.12790882 222.94878057 436.52324486 222.92628479 C426.97402886 222.8937809 417.4248893 222.88335943 407.87562398 222.87833282 C392.38273757 222.86957764 376.8899354 222.842956 361.39709473 222.80512238 C346.34696881 222.76840807 331.29686576 222.74009347 316.2467041 222.72309113 C315.31906209 222.72204023 314.39142009 222.72098934 313.43566772 222.7199066 C308.78197487 222.71468646 304.12828187 222.70963163 299.47458875 222.70465899 C260.86560867 222.66319 222.25672481 222.5924382 183.64782715 222.50336456 C183.64782715 216.56336456 183.64782715 210.62336456 183.64782715 204.50336456 C281.98782715 204.50336456 380.32782715 204.50336456 481.64782715 204.50336456 C481.64782715 143.12336456 481.64782715 81.74336456 481.64782715 18.50336456 C324.56782715 18.50336456 167.48782715 18.50336456 5.64782715 18.50336456 C5.64782715 71.96336456 5.64782715 125.42336456 5.64782715 180.50336456 C-0.29217285 180.50336456 -6.23217285 180.50336456 -12.35217285 180.50336456 C-12.44470973 157.6249318 -12.516121 134.74654401 -12.55942154 111.86796188 C-12.58005979 101.24538814 -12.60820454 90.6229327 -12.65393066 80.00043488 C-12.69375974 70.74346201 -12.71959647 61.48657482 -12.72852683 52.22951865 C-12.73374824 47.32649366 -12.74604665 42.42371376 -12.77509308 37.52076721 C-12.80220012 32.90790309 -12.81062741 28.29538554 -12.80460358 23.68244934 C-12.80570593 21.98770007 -12.81368791 20.29293947 -12.82899475 18.59825897 C-12.84884967 16.28708538 -12.84412949 13.97722623 -12.83319092 11.66602325 C-12.83687809 10.3718259 -12.84056526 9.07762856 -12.84436417 7.7442131 C-12.35217285 4.50336456 -12.35217285 4.50336456 -10.8434217 2.33227181 C-7.35070519 -0.2318456 -4.16855165 -0.04898381 0 0 Z " fill="#000000" transform="translate(12.3521728515625,-0.5033645629882813)"></path><path d="M0 0 C9.14603747 8.76419495 13.86128362 19.60497129 14.27734375 32.1953125 C13.99404851 43.47990633 10.45131213 51.77049668 3.96484375 60.8828125 C3.30484375 61.8728125 2.64484375 62.8628125 1.96484375 63.8828125 C2.68671875 64.1096875 3.40859375 64.3365625 4.15234375 64.5703125 C7.57345681 66.16683193 9.42878048 68.09314291 11.96484375 70.8828125 C12.78984375 71.7284375 13.61484375 72.5740625 14.46484375 73.4453125 C22.85409943 84.02487458 22.69664944 95.70985823 22.59375 108.5078125 C22.59458014 110.38680153 22.59704497 112.26579047 22.60105896 114.14477539 C22.6039007 118.05816835 22.58936441 121.97098373 22.56176758 125.88427734 C22.52749778 130.89922818 22.53378089 135.91316027 22.55243015 140.92816162 C22.56298906 144.7972261 22.55407562 148.66605287 22.53904533 152.53509521 C22.5338676 154.38506363 22.53434037 156.23505687 22.54059029 158.08502197 C22.54603664 160.66269648 22.52569443 163.23889952 22.49829102 165.81640625 C22.50481689 166.57798538 22.51134277 167.33956451 22.51806641 168.1242218 C22.45972408 171.34916496 22.15466877 173.56353956 20.495224 176.35461426 C16.70163246 178.64571652 13.30118735 178.44148234 8.9453125 178.40039062 C8.03431793 178.4073999 7.12332336 178.41440918 6.1847229 178.42163086 C3.17361972 178.43923502 0.16345648 178.42757939 -2.84765625 178.4140625 C-4.93986186 178.41675671 -7.03206626 178.42063854 -9.12426758 178.42565918 C-13.50907309 178.43155752 -17.89355268 178.42298029 -22.27832031 178.40429688 C-27.90102583 178.38150735 -33.52296765 178.3946286 -39.14564514 178.41858673 C-43.46591962 178.43303551 -47.78601281 178.4284429 -52.10629272 178.41807556 C-54.17955617 178.41540574 -56.25283604 178.41868698 -58.32608032 178.42799377 C-61.22303921 178.43814404 -64.11875853 178.42267939 -67.015625 178.40039062 C-67.87392914 178.40848755 -68.73223328 178.41658447 -69.61654663 178.42492676 C-75.43306297 178.34194903 -75.43306297 178.34194903 -78.53637695 175.97546387 C-81.28812515 172.13337075 -81.1892167 169.0585613 -81.19628906 164.47070312 C-81.20125397 163.70618835 -81.20621887 162.94167358 -81.21133423 162.1539917 C-81.2259785 159.61567287 -81.23276447 157.0774167 -81.23828125 154.5390625 C-81.24403443 152.77225747 -81.24979214 151.00545246 -81.2555542 149.23864746 C-81.26607307 145.52628285 -81.27190875 141.81393993 -81.27539062 138.1015625 C-81.28085248 133.36511991 -81.30482694 128.62896812 -81.33336258 123.89261627 C-81.35207966 120.23782546 -81.35719954 116.5831031 -81.3587265 112.92826843 C-81.36173726 111.18371505 -81.36971197 109.43916242 -81.38291168 107.69465637 C-81.47738879 94.23870101 -80.42810814 82.94133709 -72.03515625 71.8828125 C-69.18502296 69.01348639 -66.1660037 66.43758402 -63.03515625 63.8828125 C-62.04515625 62.8928125 -62.04515625 62.8928125 -61.03515625 61.8828125 C-61.61523438 61.17318359 -61.61523438 61.17318359 -62.20703125 60.44921875 C-71.12400233 49.12643121 -73.25276832 38.05289735 -72.03515625 23.8828125 C-69.39639276 11.35245559 -61.47430429 1.77099653 -51.1484375 -5.43359375 C-34.88122671 -15.34014234 -14.14508503 -11.81741281 0 0 Z M-49.55859375 17.8203125 C-54.15267771 24.23744565 -54.85244273 30.2069462 -54.03515625 37.8828125 C-52.43305047 44.74400463 -49.15550123 49.618456 -43.28515625 53.5703125 C-36.35963772 57.62833352 -29.88972822 58.74310586 -22.03515625 56.8828125 C-15.40821721 54.72720965 -10.87913135 50.6386059 -7.03515625 44.8828125 C-3.73953693 38.08121517 -3.08778538 31.68545269 -5.16015625 24.3828125 C-7.62121972 17.71412439 -11.46187039 13.50127931 -17.59765625 9.9453125 C-29.92516097 4.33006902 -41.36580634 7.64479572 -49.55859375 17.8203125 Z M-57.97265625 83.6953125 C-63.51612517 92.26249174 -63.44326998 99.92221672 -63.328125 109.8828125 C-63.32510376 111.15253906 -63.32208252 112.42226563 -63.31896973 113.73046875 C-63.30334037 118.44800002 -63.26145666 123.1654149 -63.22265625 127.8828125 C-63.16078125 138.4428125 -63.09890625 149.0028125 -63.03515625 159.8828125 C-40.92515625 159.8828125 -18.81515625 159.8828125 3.96484375 159.8828125 C4.06796875 148.8484375 4.17109375 137.8140625 4.27734375 126.4453125 C4.34562378 121.24309937 4.34562378 121.24309937 4.4152832 115.93579102 C4.43201811 112.79315655 4.43201811 112.79315655 4.44206238 109.65049744 C4.44967826 108.26414435 4.46713396 106.87782181 4.49272156 105.49168396 C4.64204147 96.96734952 4.51568744 89.80849446 -1.03515625 82.8828125 C-3.21823497 80.7001282 -3.21823497 80.7001282 -5.59765625 79.3828125 C-6.34144531 78.91875 -7.08523438 78.4546875 -7.8515625 77.9765625 C-13.82962965 74.98218182 -20.4999029 75.58853378 -27.03222656 75.53271484 C-28.44027326 75.51623701 -29.84823917 75.48905535 -31.25585938 75.45068359 C-41.422404 75.17571825 -50.65762311 75.81069352 -57.97265625 83.6953125 Z " fill="#000000" transform="translate(490.03515625,334.1171875)"></path><path d="M0 0 C9.99507247 10.44261303 12.40552303 21.50995475 12.1875 35.5 C11.82640313 44.22410032 7.70499242 50.93246439 2.90625 58 C2.24625 58.99 1.58625 59.98 0.90625 61 C1.48632812 61.4125 2.06640625 61.825 2.6640625 62.25 C12.22445131 69.31774618 18.96497181 78.02182419 20.90625 90 C21.00830431 92.61943824 21.0633286 95.21268365 21.06738281 97.83203125 C21.07483017 98.99150772 21.07483017 98.99150772 21.08242798 100.17440796 C21.09698219 102.72044782 21.10383877 105.26642546 21.109375 107.8125 C21.11513009 109.58699545 21.12088778 111.36149089 21.12664795 113.13598633 C21.1371374 116.85140268 21.14299414 120.5667975 21.14648438 124.28222656 C21.15197806 129.04037238 21.17603332 133.79823334 21.20445633 138.55628967 C21.22308383 142.21945021 21.22828827 145.88254195 21.22982025 149.54574585 C21.23284485 151.30001388 21.2408669 153.05428076 21.25400543 154.8085022 C21.27107552 157.26187884 21.26918404 159.71455669 21.26269531 162.16796875 C21.2719101 162.89019623 21.28112488 163.61242371 21.2906189 164.35653687 C21.25435176 168.73777688 20.60033547 171.51540733 17.90625 175 C14.56101262 176.67261869 10.79338353 176.16557019 7.11376953 176.17700195 C5.74771576 176.18685875 5.74771576 176.18685875 4.35406494 176.19691467 C1.33239669 176.2166685 -1.68922186 176.22831389 -4.7109375 176.23828125 C-6.25628866 176.24439454 -6.25628866 176.24439454 -7.83285904 176.25063133 C-13.28391572 176.27149932 -18.73494715 176.28579882 -24.18603516 176.29516602 C-29.82440585 176.30624197 -35.46238314 176.34065359 -41.10061455 176.38033772 C-45.42942047 176.40644322 -49.75813171 176.41485237 -54.08700943 176.41844749 C-56.16588122 176.42332787 -58.24474838 176.43498285 -60.32354355 176.45348549 C-63.23017613 176.47775158 -66.13577828 176.47693503 -69.04248047 176.4699707 C-70.33464981 176.48918579 -70.33464981 176.48918579 -71.65292358 176.50878906 C-75.28397134 176.47701578 -77.47779417 176.3719939 -80.62710571 174.47003174 C-82.67086153 171.0280644 -82.65311484 167.89973995 -82.61132812 164.00952148 C-82.6183374 163.20730667 -82.62534668 162.40509186 -82.63256836 161.5785675 C-82.65017398 158.92572401 -82.63850916 156.27394822 -82.625 153.62109375 C-82.62769604 151.76985978 -82.63157939 149.9186272 -82.63659668 148.06739807 C-82.64249674 144.18273469 -82.63391936 140.29843899 -82.61523438 136.41381836 C-82.59255588 131.45988278 -82.60549373 126.50681939 -82.62952423 121.55291653 C-82.64406401 117.72560713 -82.63933707 113.89850007 -82.62901306 110.07118416 C-82.62636249 108.24653073 -82.62955614 106.42185836 -82.63893127 104.5972271 C-82.69340082 91.00438245 -81.76536976 79.46293411 -72.09375 69 C-64.93344466 62 -64.93344466 62 -62.09375 62 C-62.55265625 61.32195312 -63.0115625 60.64390625 -63.484375 59.9453125 C-72.11500112 46.85432078 -76.06138968 35.09054237 -72.96875 19.5 C-71.44714421 13.34898038 -69.00817959 8.9255738 -65.09375 4 C-64.330625 2.948125 -63.5675 1.89625 -62.78125 0.8125 C-55.36299026 -6.95079507 -44.95257967 -12.09080308 -34.17578125 -12.96875 C-20.607139 -13.17240692 -9.81026374 -9.3709982 0 0 Z M-51.09375 15.3125 C-55.69424745 21.88773928 -56.69992179 27.63533505 -55.62109375 35.55078125 C-53.94940996 43.31482376 -49.72013222 48.67745463 -43.09375 53 C-36.81960725 55.94005723 -30.81512398 56.78346927 -24.09375 55 C-16.20458023 52.10920314 -11.4436347 47.14623915 -7.09375 40 C-5.08725467 33.980514 -5.44132419 27.30267933 -7.15625 21.25 C-11.23730806 14.40435421 -16.109093 8.12836056 -24.09375 6 C-35.0899498 4.51974233 -43.83512546 6.67981484 -51.09375 15.3125 Z M-59.09375 81 C-63.42677213 86.77736284 -64.22065798 90.48495618 -64.20727539 97.60449219 C-64.20739593 98.26909077 -64.20751646 98.93368935 -64.20764065 99.61842728 C-64.20689662 101.7612777 -64.19929169 103.90404022 -64.19140625 106.046875 C-64.19039917 107.35994629 -64.18939209 108.67301758 -64.18835449 110.02587891 C-64.18311992 114.93392815 -64.16915867 119.84196494 -64.15625 124.75 C-64.135625 135.7225 -64.115 146.695 -64.09375 158 C-41.98375 158 -19.87375 158 2.90625 158 C2.98875 147.295625 3.07125 136.59125 3.15625 125.5625 C3.19266602 122.19877197 3.22908203 118.83504395 3.26660156 115.36938477 C3.27829072 112.68506508 3.288482 110.00073827 3.296875 107.31640625 C3.31255524 106.28688087 3.31255524 106.28688087 3.32855225 105.23655701 C3.46301715 95.9323026 3.10871548 88.09570207 -3.0234375 80.66015625 C-3.66539062 80.13292969 -4.30734375 79.60570312 -4.96875 79.0625 C-5.60554688 78.51722656 -6.24234375 77.97195313 -6.8984375 77.41015625 C-13.51749396 73.15841358 -20.79471782 73.66062324 -28.3515625 73.68432617 C-30.45625874 73.68748127 -32.55954001 73.66400682 -34.6640625 73.63867188 C-44.14118335 73.594052 -51.96518413 74.06944985 -59.09375 81 Z " fill="#000000" transform="translate(355.09375,336)"></path><path d="M0 0 C56.76 0 113.52 0 172 0 C172 5.94 172 11.88 172 18 C115.24 18 58.48 18 0 18 C0 12.06 0 6.12 0 0 Z " fill="#000000" transform="translate(281,42)"></path><path d="M0 0 C56.43 0 112.86 0 171 0 C171 5.94 171 11.88 171 18 C114.57 18 58.14 18 0 18 C0 12.06 0 6.12 0 0 Z " fill="#000000" transform="translate(273,145)"></path><path d="M0 0 C56.43 0 112.86 0 171 0 C171 5.94 171 11.88 171 18 C114.57 18 58.14 18 0 18 C0 12.06 0 6.12 0 0 Z " fill="#000000" transform="translate(307,93)"></path></svg>