<svg xmlns="http://www.w3.org/2000/svg" xmlns:xlink="http://www.w3.org/1999/xlink" height="800px" width="800px" id="Layer_1" viewBox="0 0 511.995 511.995" xml:space="preserve"><path style="fill:#FED9A8;" d="M358.604,58.952h-1.942l-0.022-19.208c-0.02-17.489-14.217-31.648-31.704-31.622l0,0 c-17.479,0.026-31.629,14.213-31.61,31.693l0.022,19.139h-0.022l-0.02-17.205c-0.02-17.489-14.217-31.648-31.704-31.622l0,0 c-16.705,0.025-30.36,12.988-31.52,29.394c-0.998-16.607-14.787-29.758-31.641-29.732l0,0c-17.479,0.026-31.629,14.213-31.61,31.693 l0.008,7.049c-2.052-13.207-13.483-23.307-27.263-23.286l0,0c-15.213,0.023-27.528,12.371-27.511,27.583l0.053,47.077 c0.003,3.291,0.587,6.448,1.65,9.373l0.047,91.922c0.087,14.297,4.192,28.261,11.821,40.212l39.031,55.649l-1.51,30.241 l170.413,0.912l-0.423-40.87l0,0l0,0l59.46-109.64c4.583-8.45,7.013-17.953,7.065-27.625l0.259-48.43 C400.054,78.104,381.517,58.951,358.604,58.952z"></path><g>	<path style="fill:#F4C08E;" d="M293.326,58.822l-0.02-17.072c-0.02-17.489-14.217-31.648-31.704-31.622l0,0  c-4.631,0.006-9.023,1.016-12.986,2.808c10.8,5.03,18.297,15.97,18.311,28.671l0.027,23.858c4.707-4.14,10.815-6.645,17.495-6.645  L293.326,58.822z"></path>	<path style="fill:#F4C08E;" d="M356.641,39.745c-0.02-17.489-14.217-31.648-31.704-31.622l0,0  c-4.567,0.006-8.903,0.988-12.823,2.735c10.89,4.995,18.464,15.98,18.478,28.747l0.022,19.216l26.048-0.001L356.641,39.745z"></path></g><path style="fill:#FB0125;" d="M376.116,339.977c0.035-6.371-5.102-11.562-11.473-11.597l-230.5-1.234 c-6.371-0.034-11.562,5.102-11.597,11.473l-0.144,26.845c-0.034,6.371,5.102,11.562,11.473,11.597l156.873,0.839l30.012,0.16 l43.616,0.233c6.371,0.034,11.562-5.102,11.597-11.473L376.116,339.977z"></path><path style="fill:#CC111E;" d="M364.644,328.382l-26.048-0.14c6.371,0.034,11.507,5.226,11.473,11.597l-0.144,26.845 c-0.034,6.371-5.226,11.507-11.597,11.473l26.048,0.14c6.371,0.034,11.562-5.102,11.597-11.473l0.144-26.845 C376.15,333.608,371.013,328.415,364.644,328.382z"></path><path style="fill:#FB0125;" d="M141.062,377.101l-9.581,108.621c-0.806,9.136,6.366,17.011,15.538,17.06l204.594,1.095 c9.017,0.049,16.217-7.499,15.745-16.504l-5.728-109.091L141.062,377.101z"></path><polygon style="fill:#BA041F;" points="361.627,378.28 141.062,377.101 139.534,394.421 290.384,395.227 320.396,395.388  362.538,395.613 "></polygon><path style="fill:#CC111E;" d="M361.627,378.28l-26.048-0.14l6.599,125.684l9.433,0.051c9.017,0.049,16.217-7.499,15.745-16.504 L361.627,378.28z"></path><polygon style="fill:#9A0314;" points="335.579,378.142 336.489,395.474 362.537,395.613 361.627,378.28 "></polygon><g>	<path style="fill:#F4C08E;" d="M167.169,52.768c-0.017-15.221-12.373-27.544-27.593-27.521l0,0c-4.58,0.006-8.893,1.137-12.69,3.12  c8.649,4.639,14.537,13.761,14.549,24.263l0.053,47.077c0.012,10.633-6.005,19.859-14.82,24.462  c3.885,2.084,8.327,3.265,13.045,3.258l0,0c15.213-0.023,27.528-12.37,27.511-27.583L167.169,52.768z"></path>	<path style="fill:#F4C08E;" d="M230.144,41.565c-0.02-17.489-14.217-31.648-31.704-31.622l0,0  c-4.886,0.008-9.511,1.123-13.639,3.105c11.118,4.901,18.89,16.006,18.904,28.939l0.06,52.345  c0.014,12.593-7.328,23.477-17.97,28.587c3.916,1.726,8.244,2.689,12.8,2.683l0,0c17.479-0.026,31.629-14.213,31.61-31.693  L230.144,41.565z"></path>	<path style="fill:#F4C08E;" d="M292.087,105.198l-26.298,0.019c-2.511,0.002-4.938-0.357-7.244-1.016  c3.299,11.454,13.612,19.807,25.826,19.799l26.298-0.019c1.432-0.001,2.832,0.139,4.193,0.392L292.087,105.198z"></path>	<path style="fill:#F4C08E;" d="M376.804,63.287c2.93,5.869,4.577,12.525,4.539,19.58l-0.259,48.43  c-0.023,4.212-0.523,8.385-1.429,12.46L315.96,265.981l-8.449,21.226l0.423,40.87l25.632,0.138l-0.423-40.87l0,0l0,0l59.46-109.64  c4.583-8.45,7.013-17.953,7.065-27.625l0.259-48.43C400.017,84.818,390.569,70.237,376.804,63.287z"></path>	<path style="fill:#F4C08E;" d="M313.285,177.083l20.495-28.685l0,0c0.07-13.228-10.348-23.985-23.22-23.975l-26.298,0.019  c-3.035,0.002-5.949-0.519-8.671-1.469c-4.206,2.076-8.938,3.25-13.945,3.258l0,0c-15.15,0.023-27.822-10.603-30.954-24.813  l-1.423-0.008c-3.247,14.009-15.785,24.461-30.783,24.483c-15.15,0.023-27.822-10.603-30.954-24.813l-0.438-0.002  c-0.402,14.847-12.544,26.772-27.492,26.793l0,0c-0.115,0-0.227-0.007-0.341-0.008l-0.396,74.083  c-0.147,27.611,22.115,50.113,49.725,50.26l78.853,0.422c18.764,0.101,34.339-14.897,34.468-33.661  C302.009,204.309,305.814,189.744,313.285,177.083z"></path></g><path style="fill:#F7AD6B;" d="M331.177,142.062c0.125-4.057-1.313-8.093-4.275-11.102c-0.03-0.031-0.062-0.062-0.092-0.093 c-4.305-4.325-9.982-6.719-15.999-6.752c-0.048,0-0.094,0-0.141,0l-26.298,0.021c-0.054,0-0.109,0-0.162,0 c-2.969-0.015-5.824-0.533-8.496-1.461c-4.37,2.149-9.065,3.243-13.958,3.25l-0.222-0.001c-16.264-0.089-29.706-12.52-31.428-28.35 c-1.875,15.733-15.28,27.987-31.511,28.012l-0.223-0.001c-15.334-0.081-28.158-11.14-31.017-25.671 c-0.021,15.229-12.407,27.625-27.645,27.649h-0.194c-11.75-0.063-21.807-7.526-25.75-17.939l0.014,27.516 c7.296,5.089,16.137,8.107,25.663,8.158l0.294,0.001c11.106-0.017,21.717-4.131,29.91-11.337c8.294,5.974,18.305,9.304,28.646,9.359 l0.327,0.001c11.607-0.017,22.568-4.018,31.312-11.226c8.756,7.379,19.79,11.499,31.521,11.563l0.328,0.001 c5.19-0.009,10.286-0.82,15.191-2.417c2.369,0.404,4.759,0.614,7.141,0.627L331.177,142.062z"></path><path style="fill:#1A1A1A;" d="M393.26,65.329c-7.82-7.861-17.761-12.752-28.483-14.113l-0.013-11.483 c-0.013-10.628-4.163-20.615-11.689-28.12C345.565,4.123,335.591,0,324.986,0c-0.021,0-0.04,0-0.061,0 c-13.336,0.019-25.15,6.635-32.357,16.748c-0.881-1.083-1.824-2.127-2.826-3.128c-7.525-7.506-17.493-11.611-28.15-11.614 c-12.654,0.019-24.062,6.062-31.369,15.464c-7.288-9.623-18.835-15.802-31.732-15.802c-0.02,0-0.041,0-0.061,0 c-16.091,0.024-29.971,9.651-36.209,23.441c-6.167-5.029-14.046-7.987-22.602-7.987c-0.018,0-0.037,0-0.055,0 c-19.663,0.029-35.643,16.051-35.621,35.716l0.053,47.077c0.004,3.653,0.559,7.245,1.65,10.701l0.036,69.989 c0.002,4.485,3.638,8.119,8.123,8.119c0.001,0,0.002,0,0.004,0c4.486-0.002,8.121-3.641,8.119-8.127l-0.025-49.71 c5.268,3.035,11.306,4.766,17.595,4.799h0.227c12.043-0.018,22.72-6.026,29.202-15.196c7.337,8.119,17.91,13.156,29.427,13.218 h0.253c12.644-0.02,24.047-5.969,31.382-15.338c7.286,9.525,18.741,15.605,31.525,15.674h0.252 c3.551-0.005,7.065-0.475,10.445-1.398c0.378-0.103,0.736-0.239,1.085-0.39c2.52,0.559,5.088,0.857,7.675,0.852l26.28-0.16 c0.03,0,0.061,0,0.09,0c3.889,0,7.577,1.539,10.395,4.339c2.462,2.448,4.02,5.591,4.508,9.025l-18.673,26.435 c-0.136,0.193-0.263,0.392-0.383,0.596c-14.527,24.922-16.308,55.955-4.761,83.015c1.317,3.087,4.318,4.938,7.475,4.938 c1.063,0,2.143-0.21,3.183-0.654c4.127-1.76,6.044-6.533,4.284-10.66c-9.352-21.917-7.935-48,3.681-68.161l20.117-28.476 c0.968-1.371,1.488-3.009,1.488-4.688c0-8.696-3.362-16.828-9.467-22.895c-5.885-5.849-13.636-9.062-21.845-9.062 c-0.064,0-0.128,0-0.193,0l-26.28,0.16c-2.041,0.039-4.052-0.317-5.989-0.982c-0.568-0.195-1.124-0.417-1.669-0.666 c-0.003-0.001-0.007-0.003-0.01-0.005c-1.618-0.741-3.133-1.725-4.539-2.949c-0.029-0.026-0.058-0.053-0.089-0.079 c-0.63-0.56-1.23-1.174-1.808-1.844c-0.029-0.037-0.061-0.07-0.091-0.106c-0.077-0.091-0.151-0.184-0.232-0.272 c-0.026-0.03-0.051-0.062-0.078-0.091c-0.036-0.044-0.072-0.088-0.106-0.132c-0.183-0.231-0.363-0.465-0.535-0.704 c-0.02-0.028-0.04-0.056-0.053-0.076c-0.002-0.003-0.008-0.01-0.009-0.013c-0.269-0.376-0.525-0.761-0.768-1.157 c-0.02-0.031-0.039-0.063-0.059-0.094c-0.214-0.354-0.414-0.723-0.615-1.111c-0.06-0.128-0.122-0.255-0.188-0.379 c-0.095-0.195-0.183-0.395-0.273-0.595c-0.135-0.3-0.263-0.602-0.383-0.909c-0.116-0.295-0.234-0.589-0.335-0.889l-0.067-0.194 c-0.007-0.019-0.013-0.04-0.021-0.061c-0.138-0.426-0.262-0.857-0.368-1.283c-0.022-0.106-0.045-0.212-0.071-0.317 c-0.083-0.362-0.158-0.727-0.223-1.095c-0.001-0.008-0.003-0.014-0.004-0.021c0-0.001,0-0.002,0-0.003s0-0.002-0.001-0.003 c-0.012-0.065-0.024-0.133-0.038-0.2c-0.001-0.003-0.002-0.006-0.002-0.01l-0.004-0.021v-0.001c-0.073-0.453-0.128-0.911-0.17-1.373 c0-0.003-0.001-0.005-0.001-0.008l-0.023-0.29c0-0.003,0-0.006,0-0.01c-0.037-0.479-0.066-0.96-0.068-1.449l-0.063-9.701 l-0.001-0.129c-0.001-5.213,1.952-10.116,5.5-13.806l0.001-0.001c0.001-0.001,0.001-0.001,0.002-0.002 c0.417-0.433,0.864-0.857,1.332-1.26h0.001c1.144-0.982,2.394-1.808,3.716-2.48c6.022-0.81,35.826-4.397,82.536-3.186 c0.535,0.11,1.089,0.17,1.656,0.17h1.942c8.69,0,16.907,3.449,23.137,9.712c6.54,6.574,10.114,15.388,10.063,24.819l-0.259,48.43 c-0.044,8.314-2.147,16.542-6.081,23.795l-59.46,109.64c-0.659,1.214-0.996,2.576-0.982,3.957l0.339,32.619l-153.668-0.822 l1.086-21.757c0.09-1.806-0.425-3.589-1.463-5.07l-38.926-55.5c-5.161-8.133-8.568-17.515-9.854-27.143 c-0.595-4.447-4.683-7.572-9.127-6.976c-4.447,0.595-7.57,4.681-6.976,9.127c1.605,12.016,5.878,23.73,12.356,33.878 c0.064,0.1,0.129,0.197,0.197,0.294l37.429,53.365l-0.983,19.695l-21.349-0.114c-10.782,0-19.599,8.772-19.657,19.553l-0.144,26.845 c-0.028,5.251,1.991,10.198,5.683,13.931c3.308,3.343,7.606,5.341,12.239,5.744l-8.813,99.911c-0.583,6.61,1.645,13.215,6.114,18.12 c4.468,4.906,10.836,7.741,17.472,7.777l204.594,1.095c0.015,0,0.121,0.002,0.131,0c6.497,0,12.79-2.703,17.263-7.418 c4.474-4.716,6.845-11.144,6.504-17.636l-5.323-101.381c8.02-2.446,13.904-9.9,13.952-18.7l0.143-26.844 c0.028-5.251-1.99-10.199-5.683-13.932c-3.693-3.732-8.619-5.803-13.87-5.831l-23.078-0.123l-0.32-30.768l58.456-107.789 c5.205-9.597,7.988-20.475,8.047-31.455l0.259-48.43C408.125,87.906,402.871,74.993,393.26,65.329z M139.733,119.441h-0.172 c-7.748-0.041-14.821-4.806-17.874-11.929c-0.076-0.339-0.166-0.676-0.285-1.004c-0.768-2.115-1.159-4.339-1.161-6.61l-0.053-47.077 c-0.012-10.71,8.691-19.435,19.4-19.451c0.01,0,0.018,0,0.028,0c9.343,0,17.468,6.837,19.109,15.979l0.543,49.834 c-0.022,0.238-0.035,0.479-0.035,0.722C159.218,110.661,150.454,119.425,139.733,119.441z M198.615,117.464h-0.199 c-10.945-0.057-20.438-7.729-22.902-18.342l-0.551-50.632l-0.008-7.015c-0.015-12.972,10.526-23.541,23.499-23.559 c0.012,0,0.024,0,0.036,0c12.383,0,22.658,9.63,23.47,21.961l0.025,57.082C220.415,108.653,210.425,117.445,198.615,117.464z  M238.23,97l-0.025-57.072c0.949-12.149,11.194-21.657,23.411-21.675c0.012,0,0.024,0,0.036,0c6.274,0,12.174,2.439,16.618,6.871 c4.451,4.441,6.908,10.349,6.914,16.636l0.012,10.63c-10.176,0.873-15.802,1.721-16.346,1.804c-0.065,0.01-0.127,0.028-0.192,0.039 c-0.157,0.028-0.313,0.06-0.469,0.096c-0.128,0.03-0.253,0.066-0.379,0.103c-0.123,0.037-0.247,0.074-0.369,0.116 c-0.154,0.053-0.304,0.112-0.454,0.173c-0.06,0.025-0.119,0.042-0.179,0.068c-0.048,0.021-0.093,0.048-0.141,0.068 c-0.094,0.043-0.187,0.089-0.279,0.136c-2.959,1.354-5.723,3.11-8.214,5.246c-0.002,0.002-0.003,0.003-0.005,0.005 c-0.859,0.738-1.686,1.521-2.461,2.326l0,0l0,0c-0.001,0.001-0.002,0.002-0.003,0.003c-0.002,0.002-0.003,0.004-0.005,0.005 c-6.468,6.731-10.029,15.632-10.027,25.064c0,0.017,0,0.035,0,0.051v0.178l0.063,9.699c0.005,0.798,0.042,1.618,0.115,2.58 c0.001,0.012,0.003,0.023,0.004,0.035c0.001,0.013,0,0.025,0.001,0.038l0.04,0.487c0,0.002,0.001,0.004,0.001,0.006 c0.078,0.848,0.181,1.677,0.308,2.462c0,0.002,0.001,0.003,0.001,0.005c0,0.001,0,0.003,0,0.004l0.068,0.384 c0,0.001,0.001,0.003,0.001,0.004c0.003,0.021,0.009,0.048,0.013,0.07c0.001,0.004,0.001,0.009,0.001,0.013 c0.003,0.019,0.009,0.037,0.012,0.056c0.018,0.096,0.037,0.188,0.057,0.279c0.104,0.563,0.213,1.125,0.342,1.679 c0,0.001,0,0.002,0.001,0.003c0.001,0.004,0.002,0.009,0.003,0.013c0.004,0.019,0.012,0.051,0.017,0.074 c0.001,0.003,0.001,0.005,0.001,0.009c0.004,0.018,0.009,0.037,0.013,0.055l0.057,0.245l0.026,0.109 c0,0.001,0.001,0.003,0.001,0.004l0.002,0.011c0.001,0.003,0.002,0.006,0.003,0.01c0.192,0.768,0.417,1.553,0.666,2.324 c0.001,0.002,0.001,0.005,0.002,0.008l0.004,0.012c0,0.001,0.001,0.002,0.001,0.003s0,0.001,0.001,0.002l0.062,0.187 c0.009,0.028,0.018,0.056,0.028,0.084l0.005,0.016c0.001,0.004,0.002,0.008,0.004,0.012l0.033,0.096l0.013,0.039 c0.002,0.005,0.004,0.011,0.005,0.015c0.001,0.003,0.002,0.006,0.003,0.011h-0.001c0.001,0.003,0.003,0.005,0.004,0.009 c0.109,0.326,0.224,0.649,0.343,0.97c0.005,0.014,0.011,0.028,0.016,0.042c0.115,0.309,0.247,0.612,0.37,0.917 c0.079,0.196,0.155,0.393,0.237,0.589c0.299,0.705,0.614,1.404,0.954,2.082c0,0.001,0.001,0.001,0.001,0.002 c0,0.001,0.001,0.002,0.001,0.004c0.005,0.011,0.012,0.019,0.017,0.029c0.008,0.014,0.013,0.028,0.02,0.042 c0.001,0.003,0.002,0.005,0.003,0.009l0.066,0.129l0.073,0.144c0.002,0.004,0.004,0.008,0.005,0.011l0.006,0.012 c0.001,0.001,0.002,0.003,0.002,0.004v0.001c0.023,0.043,0.044,0.087,0.067,0.13c0.001,0.002,0.002,0.005,0.004,0.008v0.001 c0.114,0.218,0.226,0.419,0.339,0.626C243.775,111.207,239.171,104.731,238.23,97z M301.463,51.275l-0.013-11.469 c-0.014-12.972,10.528-23.542,23.499-23.56c0.013,0,0.024,0,0.036,0c6.274,0,12.175,2.439,16.619,6.871 c4.451,4.441,6.908,10.349,6.915,16.636l0.012,10.763C329.73,50.197,313.916,50.616,301.463,51.275z M357.179,493.398 c-1.442,1.518-3.387,2.355-5.479,2.355c-0.001,0-0.001,0-0.001,0l-0.001,8.123l-0.042-8.123l-204.594-1.095 c-2.138-0.011-4.108-0.888-5.549-2.469c-1.441-1.581-2.129-3.624-1.941-5.753l8.925-101.172l101.392,0.543l104.03,0.557 l5.327,101.435C359.353,489.891,358.621,491.88,357.179,493.398z M367.007,337.517c0.371,0.376,0.993,1.188,0.986,2.417 l-0.143,26.844c-0.011,1.872-1.54,3.394-3.408,3.394v0.496c-0.007-0.002-0.013-0.004-0.02-0.008l-0.001-0.488l-230.5-1.234 c-1.229-0.007-2.035-0.637-2.407-1.012c-0.372-0.376-0.993-1.188-0.987-2.417l0.144-26.845c0.01-1.872,1.54-3.393,3.43-3.393 l29.008,0.155c0.001,0,0.002,0,0.003,0l72.973,0.39l128.515,0.688C365.83,336.511,366.635,337.142,367.007,337.517z"></path></svg>