<svg xmlns="http://www.w3.org/2000/svg" width="800px" height="800px" viewBox="0 0 64 64" data-name="Layer 1" id="Layer_1"><defs><style>      .cls-1 {        fill: #f76c5e;      }      .cls-2 {        fill: #ffbc0a;      }      .cls-3 {        fill: #a3cef1;      }      .cls-4 {        fill: #6096ba;      }      .cls-5 {        fill: #274c77;      }    </style></defs><path class="cls-2" d="M36,22v-2.81c1.09-.55,2.06-1.32,2.85-2.26-.26-.58-.25-1.27,.08-1.87,.34-.59,.92-.94,1.54-1,.34-.96,.53-1.99,.53-3.07s-.19-2.11-.53-3.07c-.62-.06-1.21-.41-1.54-1-.34-.59-.34-1.29-.08-1.87-1.32-1.57-3.14-2.68-5.22-3.06-.36,.52-.96,.86-1.63,.86s-1.27-.34-1.63-.86c-2.08,.39-3.9,1.5-5.22,3.06,.26,.58,.25,1.27-.08,1.87-.34,.59-.92,.94-1.54,1-.34,.96-.53,1.99-.53,3.07s.19,2.11,.53,3.07c.62,.06,1.21,.41,1.54,1,.34,.59,.34,1.29,.08,1.87,.78,.94,1.75,1.7,2.85,2.26v2.81"></path><path class="cls-5" d="M32,62h-3l-2-2H10v-24h4v18s12.15-3,18,8Z"></path><path class="cls-5" d="M50,54v-18h4v24h-17s-2,2-2,2h-3c5.85-11,18-8,18-8Z"></path><path class="cls-4" d="M32,62c-5.85-11-18-8-18-8v-21l6-2v19c6.63,0,12,5.37,12,12Z"></path><path class="cls-4" d="M44,31l6,2v21s-12.15-3-18,8c0-6.63,5.37-12,12-12V31Z"></path><path class="cls-3" d="M32,42c0-6.63-5.37-12-12-12v20c6.63,0,12,5.37,12,12,0-6.63,5.37-12,12-12V30c-6.63,0-12,5.37-12,12Z"></path><circle class="cls-3" cx="32" cy="11" r="5"></circle><rect class="cls-5" height="4" rx="1" ry="1" width="10" x="27" y="22"></rect><rect class="cls-1" height="2" width="2" x="21" y="17"></rect><rect class="cls-1" height="2" width="2" x="18" y="10"></rect><rect class="cls-1" height="2" width="2" x="14" y="13"></rect><rect class="cls-1" height="2" width="2" x="11" y="17"></rect><rect class="cls-1" height="2" width="2" x="11" y="22"></rect><rect class="cls-1" height="2" width="2" x="11" y="28"></rect><rect class="cls-1" height="2" width="2" x="44" y="10"></rect><rect class="cls-1" height="2" width="2" x="48" y="13"></rect><rect class="cls-1" height="2" width="2" x="51" y="17"></rect><rect class="cls-1" height="2" width="2" x="51" y="22"></rect><rect class="cls-1" height="2" width="2" x="51" y="28"></rect><rect class="cls-1" height="2" width="2" x="21" y="21"></rect><rect class="cls-1" height="2" width="2" x="21" y="25"></rect><rect class="cls-1" height="2" width="2" x="41" y="17"></rect><rect class="cls-1" height="2" width="2" x="41" y="21"></rect><rect class="cls-1" height="2" width="2" x="41" y="25"></rect><rect class="cls-1" height="2" width="2" x="31" y="28"></rect><rect class="cls-1" height="2" width="2" x="31" y="32"></rect></svg>