<svg xmlns="http://www.w3.org/2000/svg" xmlns:xlink="http://www.w3.org/1999/xlink" id="Layer_1" viewBox="0 0 511.999 511.999" xml:space="preserve"><path style="fill:#FF6E7A;" d="M281.522,15.666h-18.857L241.777,256l20.888,240.334h18.857c98.644,0,178.61-79.966,178.61-178.61 V194.276C460.133,95.632,380.166,15.666,281.522,15.666z"></path><path style="fill:#FFABB2;" d="M243.808,15.666c-98.644,0-178.61,79.966-178.61,178.61v123.448 c0,98.644,79.967,178.61,178.61,178.61h18.857V15.666H243.808z"></path><g>	<polygon style="fill:#FF0F4D;" points="300.432,144.2 262.665,144.2 252.221,159.867 262.665,175.533 300.432,175.533  "></polygon>	<polygon style="fill:#FF0F4D;" points="300.432,336.467 262.665,336.467 252.221,352.133 262.665,367.799 300.432,367.799  "></polygon>	<path style="fill:#FF0F4D;" d="M283.084,0.02V0c-0.174,0-0.347,0.011-0.521,0.014C282.215,0.011,281.871,0,281.522,0h-18.857  l-10.444,15.666l10.444,22.945c5.452-4.437,12.365-7.145,19.898-7.265c25.396,0.16,49.429,6.159,70.828,16.721h-67.774V79.4h111.35  c5.213,5.239,10.07,10.832,14.538,16.734H302.965h-19.88c-7.735,0-14.842-2.728-20.419-7.267l-10.444,19.379l10.444,19.22h20.419  h19.88c17.866,0,32.4,14.535,32.4,32.401s-14.535,32.4-32.4,32.4h-2.533h-37.767l-10.444,15.665l10.444,15.667h37.767h2.533  h141.501V288.4H302.965h-2.533h-37.767l-10.444,15.667l10.444,15.665h37.767h2.533c17.866,0,32.4,14.535,32.4,32.4  s-14.535,32.401-32.4,32.401h-19.88h-20.419l-10.444,15.595l10.444,23.004c5.577-4.539,12.684-7.267,20.419-7.267h19.88h108.541  c-4.468,5.903-9.325,11.495-14.538,16.734h-111.35v31.332h67.774c-21.399,10.561-45.432,16.56-70.828,16.721  c-7.533-0.12-14.446-2.828-19.898-7.265l-10.444,22.945l10.444,15.666h18.857c0.348,0,0.693-0.011,1.041-0.014  c0.174,0.001,0.347,0.014,0.521,0.014v-0.02c106.406-0.844,192.715-87.655,192.715-194.256V194.276  C475.798,87.675,389.491,0.864,283.084,0.02z M357.816,192.267c5.634-9.501,8.882-20.576,8.882-32.4  c0-11.824-3.248-22.9-8.882-32.401h72.314c2.449,5.427,4.601,11.013,6.452,16.735H391.51v31.332h51.871  c0.633,5.501,0.99,11.083,1.059,16.734H357.816z M443.381,336.467H391.51v31.332h45.073c-1.852,5.721-4.003,11.308-6.452,16.735  h-72.314c5.634-9.501,8.882-20.577,8.882-32.401s-3.248-22.899-8.882-32.4h86.624C444.371,325.384,444.014,330.966,443.381,336.467  z"></path></g><path style="fill:#FF4F67;" d="M250.683,448.267c0-10.131,4.677-19.187,11.982-25.133v-38.6H95.199 c-2.449-5.427-4.601-11.013-6.452-16.735h173.918v-31.332H81.949c-0.633-5.501-0.99-11.083-1.059-16.734h181.775v-31.332h-181.8 v-64.802h181.8v-31.332H80.89c0.069-5.651,0.426-11.234,1.059-16.734h180.716V144.2H88.747c1.852-5.721,4.003-11.308,6.452-16.735 h167.466v-38.6c-7.305-5.946-11.982-15.002-11.982-25.133c0-10.129,4.678-19.179,11.982-25.122V0h-18.857 C136.684,0,49.532,87.152,49.532,194.276v123.447c0,107.124,87.152,194.276,194.276,194.276h18.857v-38.611 C255.362,467.445,250.683,458.396,250.683,448.267z M128.362,79.399h66.175V48.066h-22.599c17.141-8.46,35.971-13.996,55.84-15.945 c-5.351,9.325-8.427,20.112-8.427,31.611c0,11.824,3.248,22.899,8.882,32.4H113.825C118.293,90.23,123.15,84.637,128.362,79.399z  M227.779,479.878c-19.869-1.949-38.699-7.485-55.84-15.945h22.599V432.6h-66.175c-5.213-5.239-10.07-10.832-14.538-16.734h114.408 c-5.634,9.501-8.882,20.576-8.882,32.4C219.351,459.767,222.429,470.554,227.779,479.878z"></path><polygon style="fill:#424242;" points="465.354,245.556 475.798,268.531 495.483,256 "></polygon><polygon style="fill:#707070;" points="475.798,243.469 465.354,256 495.483,256 "></polygon><polygon style="fill:#FFBA00;" points="399.09,245.556 419.978,304.066 475.798,268.531 475.798,256 "></polygon><polygon style="fill:#FDE09C;" points="419.978,207.933 399.09,256 475.798,256 475.798,243.469 "></polygon><polygon style="fill:#FF8E00;" points="66.466,245.556 87.354,304.066 419.978,304.066 419.978,256 "></polygon><polygon style="fill:#FFBA00;" points="419.978,207.933 87.354,207.933 66.466,256 419.978,256 "></polygon><polygon style="fill:#FF0F4D;" points="16.516,256 16.516,304.066 87.354,304.066 87.354,256 51.935,235.112 "></polygon><rect x="16.516" y="207.933" style="fill:#FF6E7A;" width="70.839" height="48.064"></rect></svg>