<svg xmlns="http://www.w3.org/2000/svg" xmlns:xlink="http://www.w3.org/1999/xlink" fill="#000000" id="Layer_1" width="800px" height="800px" viewBox="0 0 256 213" xml:space="preserve"><path d="M86.716,84.054l16.57,54.876H70.483L86.716,84.054z M152.714,138.93h32.803l-16.233-54.876L152.714,138.93z M254,65.97 c0,0.499,0,118.961,0,118.961c0,16.481-12.281,26.07-25.053,26.07H27c-12.829,0-25-10.477-25-26.765c0,0,0-117.175,0-117.569 C2,52.056,14.138,41,27.164,41H92V16.275C92,7.513,99.978,2,109.351,2c-0.199,0,36.298,0,36.298,0C155.222,2,163,7.513,163,16.275 V40h65.849C241.818,40,253.902,51.187,254,65.97z M105,41h45V16h-45V41z M193.886,138.93h-2.022h-0.393l-18.086-60.336H132.1v-7.486 c0-2.026-2.022-4.109-4.1-4.109c-2.022,0-4.1,2.026-4.1,4.109v7.542H82.616L64.529,138.93h-0.393h-2.022 c0,13.677,11.065,24.821,24.77,24.821s24.77-11.088,24.77-24.821h-2.359h-0.393L91.827,82.365h32.409v88.027H92.164V183h4.1H128 h31.735h4.1v-12.607h-32.072V82.365h32.409l-17.075,56.565h-0.393h-2.359c0,13.677,11.065,24.821,24.77,24.821 S193.886,152.663,193.886,138.93z"></path></svg>