<svg xmlns="http://www.w3.org/2000/svg" xmlns:xlink="http://www.w3.org/1999/xlink" fill="#000000" height="800px" width="800px" id="Layer_1" viewBox="0 0 512 512" xml:space="preserve"><g>	<g>		<path d="M87.149,285.413H39.217c-3.008,0-5.447,2.439-5.447,5.447v204.8c0,9.024,7.316,16.34,16.34,16.34h37.038   c3.008,0,5.447-2.439,5.447-5.447V290.86C92.596,287.852,90.157,285.413,87.149,285.413z"></path>	</g></g><g>	<g>		<path d="M87.149,206.979H50.111c-9.024,0-16.34,7.316-16.34,16.34v23.966c0,3.008,2.439,5.447,5.447,5.447h47.932   c3.008,0,5.447-2.439,5.447-5.447v-34.86C92.596,209.418,90.157,206.979,87.149,206.979z"></path>	</g></g><g>	<g>		<path d="M370.383,68.63H141.617c-9.024,0-16.34,7.316-16.34,16.34V495.66c0,9.024,7.316,16.34,16.34,16.34h228.766   c9.024,0,16.34-7.316,16.34-16.34V84.97C386.723,75.946,379.407,68.63,370.383,68.63z M227.677,430.298   c0,9.024-7.316,16.34-16.34,16.34s-16.34-7.316-16.34-16.34v-14.162c0-9.024,7.316-16.34,16.34-16.34s16.34,7.316,16.34,16.34   V430.298z M227.677,340.97c0,9.024-7.316,16.34-16.34,16.34s-16.34-7.316-16.34-16.34v-13.072c0-9.024,7.316-16.34,16.34-16.34   s16.34,7.316,16.34,16.34V340.97z M227.677,252.732c0,9.024-7.316,16.34-16.34,16.34s-16.34-7.316-16.34-16.34V239.66   c0-9.024,7.316-16.34,16.34-16.34s16.34,7.316,16.34,16.34V252.732z M227.677,164.494c0,9.024-7.316,16.34-16.34,16.34   s-16.34-7.316-16.34-16.34v-14.162c0-9.024,7.316-16.34,16.34-16.34s16.34,7.316,16.34,16.34V164.494z M317.004,430.298   c0,9.024-7.316,16.34-16.34,16.34c-9.024,0-16.34-7.316-16.34-16.34v-14.162c0-9.024,7.316-16.34,16.34-16.34   c9.024,0,16.34,7.316,16.34,16.34V430.298z M317.004,340.97c0,9.024-7.316,16.34-16.34,16.34c-9.024,0-16.34-7.316-16.34-16.34   v-13.072c0-9.024,7.316-16.34,16.34-16.34c9.024,0,16.34,7.316,16.34,16.34V340.97z M317.004,252.732   c0,9.024-7.316,16.34-16.34,16.34c-9.024,0-16.34-7.316-16.34-16.34V239.66c0-9.024,7.316-16.34,16.34-16.34   c9.024,0,16.34,7.316,16.34,16.34V252.732z M317.004,164.494c0,9.024-7.316,16.34-16.34,16.34c-9.024,0-16.34-7.316-16.34-16.34   v-14.162c0-9.024,7.316-16.34,16.34-16.34c9.024,0,16.34,7.316,16.34,16.34V164.494z"></path>	</g></g><g>	<g>		<path d="M313.736,0H199.353c-9.024,0-16.34,7.316-16.34,16.34v14.162c0,3.008,2.439,5.447,5.447,5.447h136.17   c3.008,0,5.447-2.439,5.447-5.447V16.34C330.077,7.316,322.76,0,313.736,0z"></path>	</g></g><g>	<g>		<path d="M461.889,206.979h-37.038c-3.008,0-5.447,2.439-5.447,5.447v34.86c0,3.008,2.439,5.447,5.447,5.447h47.932   c3.008,0,5.447-2.439,5.447-5.447v-23.966C478.23,214.295,470.914,206.979,461.889,206.979z"></path>	</g></g><g>	<g>		<path d="M472.783,285.413h-47.932c-3.008,0-5.447,2.439-5.447,5.447v215.694c0,3.008,2.439,5.447,5.447,5.447h37.038   c9.024,0,16.34-7.316,16.34-16.34v-204.8C478.23,287.852,475.791,285.413,472.783,285.413z"></path>	</g></g></svg>