<svg xmlns="http://www.w3.org/2000/svg" xmlns:xlink="http://www.w3.org/1999/xlink" fill="#000000" height="800px" width="800px" id="Layer_1" viewBox="0 0 512.011 512.011" xml:space="preserve"><g>	<g>		<path d="M505.755,6.259c-8.341-8.341-21.824-8.341-30.165,0l-41.92,41.92l-204.16,29.163c-4.565,0.661-8.789,2.773-12.075,6.037   L6.256,294.579c-8.341,8.32-8.341,21.824,0,30.165l181.013,181.013c4.181,4.16,9.621,6.251,15.083,6.251   c5.461,0,10.923-2.091,15.083-6.251l211.2-211.179c3.264-3.285,5.376-7.509,6.037-12.075l29.163-204.16l41.92-41.92   C514.096,28.083,514.096,14.6,505.755,6.259z M249.755,356.424c-4.16,4.16-9.621,6.251-15.083,6.251s-10.923-2.091-15.083-6.251   l-64-64c-8.341-8.341-8.341-21.824,0-30.165c8.341-8.341,21.824-8.341,30.165,0l64,64   C258.096,334.6,258.096,348.083,249.755,356.424z M313.755,292.424c-4.16,4.16-9.621,6.251-15.083,6.251   s-10.923-2.091-15.083-6.251l-64-64c-8.341-8.341-8.341-21.824,0-30.165c8.341-8.341,21.824-8.341,30.165,0l64,64   C322.096,270.6,322.096,284.083,313.755,292.424z"></path>	</g></g></svg>