<svg width="110" height="24" viewBox="0 0 110 24" fill="none" xmlns="http://www.w3.org/2000/svg">
	<path d="M26.7235 5.45716C30.5443 5.45716 33.6116 8.42608 33.6116 12.2032C33.6116 15.9545 30.5443 18.8749 26.7235 18.8749C22.9283 18.8749 19.8625 15.9591 19.8625 12.2032C19.8625 8.42608 22.9283 5.45716 26.7235 5.45716ZM26.7235 15.348C28.4985 15.348 29.8301 13.9303 29.8301 12.1774C29.8301 10.4246 28.4985 8.98408 26.7235 8.98408C24.9742 8.98408 23.6441 10.4276 23.6441 12.1804C23.6441 13.9333 24.9742 15.3525 26.7235 15.3525V15.348ZM51.6401 9.36922C51.6401 14.787 47.7572 18.511 42.1689 18.511H35.1869C35.1087 18.5118 35.0312 18.4964 34.9592 18.4658C34.8872 18.4351 34.8224 18.3899 34.7687 18.333C34.7149 18.276 34.6736 18.2085 34.6471 18.1348C34.6206 18.0611 34.6097 17.9827 34.6149 17.9045V0.847611C34.6135 0.771946 34.6273 0.696769 34.6555 0.626579C34.6837 0.556388 34.7258 0.492627 34.7792 0.439114C34.8326 0.385601 34.8963 0.343437 34.9663 0.315143C35.0364 0.286849 35.1114 0.273008 35.1869 0.27445H42.1689C47.7572 0.27445 51.6401 3.91357 51.6401 9.36467V9.36922ZM47.5544 9.36467C47.5544 6.18044 45.4238 3.86808 42.3308 3.86808H38.5145V14.9113H42.3353C45.4284 14.9113 47.559 12.4852 47.559 9.36467H47.5544ZM58.7326 5.45716C60.4213 5.45716 61.7726 6.18651 62.3643 7.17665V6.39575C62.3687 6.24951 62.427 6.11008 62.5278 6.00427C62.6287 5.89846 62.765 5.83375 62.9106 5.82259H65.536C65.6096 5.82377 65.6822 5.83958 65.7497 5.86912C65.8171 5.89866 65.878 5.94134 65.9288 5.99467C65.9796 6.048 66.0194 6.11092 66.0457 6.17977C66.0721 6.24863 66.0845 6.32204 66.0823 6.39575V17.9591C66.084 18.0314 66.071 18.1033 66.0441 18.1705C66.0172 18.2376 65.977 18.2987 65.926 18.3498C65.8749 18.401 65.814 18.4412 65.747 18.4682C65.68 18.4951 65.6082 18.5081 65.536 18.5064H62.9166C62.772 18.5056 62.6335 18.4477 62.5312 18.3452C62.429 18.2428 62.3712 18.104 62.3704 17.9591V17.1524C61.7651 18.1425 60.3956 18.8704 58.7054 18.8704C55.4307 18.8704 52.3892 16.2411 52.3892 12.1516C52.3892 8.03639 55.4565 5.45716 58.7326 5.45716ZM59.4347 15.3738C61.1749 15.3738 62.4793 14.0349 62.4793 12.1774C62.4793 10.3199 61.1749 8.98408 59.4347 8.98408C57.6945 8.98408 56.3901 10.323 56.3901 12.1804C56.3901 14.0379 57.6945 15.3768 59.4347 15.3768V15.3738ZM73.3911 5.4602C75.1071 5.4602 76.4842 6.18954 77.0819 7.12813V0.821835C77.0831 0.7481 77.0988 0.675335 77.1283 0.607766C77.1578 0.540198 77.2004 0.479174 77.2536 0.428242C77.3068 0.377311 77.3696 0.337487 77.4383 0.311085C77.5071 0.284683 77.5803 0.27223 77.6539 0.27445H80.2793C80.3516 0.272574 80.4234 0.28545 80.4906 0.312295C80.5577 0.33914 80.6187 0.379392 80.6698 0.4306C80.7209 0.481808 80.761 0.542901 80.7878 0.610161C80.8146 0.677421 80.8275 0.74944 80.8256 0.821835V17.956C80.8275 18.0284 80.8146 18.1004 80.7878 18.1677C80.761 18.235 80.7209 18.2961 80.6698 18.3473C80.6187 18.3985 80.5577 18.4387 80.4906 18.4656C80.4234 18.4924 80.3516 18.5053 80.2793 18.5034H77.6539C77.5092 18.5026 77.3708 18.4447 77.2685 18.3422C77.1662 18.2397 77.1084 18.101 77.1076 17.956V17.1494C76.407 18.1395 75.1404 18.8673 73.4426 18.8673C70.168 18.8673 67.1264 16.2381 67.1264 12.1486C67.1264 8.03336 70.1423 5.45413 73.3911 5.45413V5.4602ZM74.172 15.4041C75.9046 15.4041 77.1984 14.0516 77.1984 12.1744C77.1984 10.2972 75.9001 8.94466 74.172 8.94466C72.4439 8.94466 71.1455 10.2972 71.1455 12.1744C71.1455 14.0516 72.4439 15.4041 74.172 15.4041ZM88.1284 5.45413C89.8444 5.45413 91.2214 6.18347 91.8206 7.12206V0.821835C91.8216 0.748171 91.8372 0.675439 91.8665 0.607878C91.8958 0.540318 91.9383 0.479281 91.9914 0.42833C92.0445 0.377379 92.1072 0.337532 92.1758 0.311113C92.2445 0.284693 92.3176 0.272229 92.3911 0.27445H95.012C95.0843 0.272574 95.1561 0.28545 95.2233 0.312295C95.2904 0.33914 95.3514 0.379392 95.4025 0.4306C95.4536 0.481808 95.4937 0.542901 95.5205 0.610161C95.5473 0.677421 95.5602 0.74944 95.5583 0.821835V17.956C95.5606 18.0287 95.548 18.101 95.5214 18.1686C95.4948 18.2363 95.4547 18.2977 95.4036 18.3493C95.3524 18.4008 95.2913 18.4413 95.224 18.4683C95.1567 18.4954 95.0845 18.5083 95.012 18.5064H92.3911C92.2466 18.5056 92.1083 18.4477 92.0063 18.3451C91.9042 18.2426 91.8468 18.1039 91.8464 17.9591V17.1524C91.1442 18.1425 89.8701 18.8704 88.1814 18.8704C84.9052 18.8704 81.8652 16.2411 81.8652 12.1516C81.8652 8.03639 84.8795 5.45716 88.1284 5.45716V5.45413ZM88.9092 15.4071C90.6418 15.4071 91.9356 14.0546 91.9356 12.1774C91.9356 10.3002 90.6373 8.94769 88.9092 8.94769C87.1811 8.94769 85.8828 10.3002 85.8828 12.1774C85.8828 14.0546 87.1811 15.4071 88.9092 15.4071ZM108.893 5.82259H106.273C105.859 5.82259 105.65 6.10917 105.573 6.42153L103.152 15.4814L100.566 6.42153C100.414 5.93783 100.181 5.82259 99.8422 5.82259H97.0821C96.4314 5.82259 96.3119 6.26535 96.442 6.70811L99.9466 17.9591C100.05 18.2729 100.258 18.5064 100.647 18.5064H102.235L101.897 19.624C101.566 20.5883 100.948 20.8476 100.14 20.8476C99.4488 20.8476 98.9948 20.5747 98.5045 20.2578C98.3557 20.1449 98.1752 20.0817 97.9885 20.0773C97.7525 20.0773 97.5906 20.1835 97.3711 20.5095L96.5933 21.677C96.442 21.9181 96.3588 22.0516 96.3588 22.3093C96.3588 22.7248 96.7719 22.9841 97.2667 23.2676C98.1187 23.7559 99.2052 24 100.399 24C103.025 24 104.713 22.5671 105.467 20.1713L109.388 6.70963C109.569 6.1865 109.413 5.82259 108.893 5.82259ZM15.5271 16.0182C14.1501 17.7589 11.7592 18.8552 9.05359 18.8552C3.9722 18.8552 0 15.025 0 9.5724C0 3.90599 4.28695 0 9.70276 0C13.7007 0 16.8981 1.72252 18.316 5.18726C18.3571 5.27845 18.3797 5.37688 18.3826 5.47688C18.3826 5.64064 18.2752 5.76497 17.9286 5.88476L15.391 6.86126C15.2378 6.92461 15.0663 6.92732 14.9113 6.86884C14.7758 6.78868 14.6697 6.66692 14.6086 6.52161C13.7083 4.79151 12.0861 3.61638 9.59835 3.61638C6.37065 3.61638 4.06148 6.14102 4.06148 9.41471C4.06148 12.5883 6.02867 15.1979 9.68914 15.1979C11.6155 15.1979 13.1529 14.2881 13.8687 13.2889H11.5837C11.5055 13.2901 11.4278 13.2755 11.3553 13.2461C11.2827 13.2167 11.2168 13.1729 11.1615 13.1175C11.1062 13.0621 11.0625 12.996 11.0332 12.9234C11.0038 12.8507 10.9893 12.7729 10.9905 12.6945V10.74C10.9893 10.6616 11.0038 10.5837 11.0332 10.511C11.0625 10.4384 11.1062 10.3724 11.1615 10.3169C11.2168 10.2615 11.2827 10.2177 11.3553 10.1883C11.4278 10.1589 11.5055 10.1443 11.5837 10.1456H18.2782C18.355 10.1414 18.4318 10.1531 18.504 10.1799C18.5761 10.2066 18.642 10.2479 18.6976 10.3012C18.7532 10.3545 18.7973 10.4186 18.8272 10.4897C18.857 10.5607 18.8721 10.6371 18.8714 10.7142V17.906C18.8728 17.9844 18.8584 18.0624 18.8291 18.1351C18.7998 18.2079 18.7562 18.274 18.7008 18.3295C18.6455 18.385 18.5795 18.4287 18.5069 18.4581C18.4343 18.4874 18.3565 18.5018 18.2782 18.5004H16.1128C16.0345 18.5018 15.9567 18.4874 15.8841 18.4581C15.8115 18.4287 15.7455 18.385 15.6901 18.3295C15.6347 18.274 15.5911 18.2079 15.5618 18.1351C15.5325 18.0624 15.5181 17.9844 15.5196 17.906L15.5271 16.0182Z" fill="#111111"/>
</svg>
